<svg id="Layer_1" height="512" viewBox="0 0 512 512" width="512" xmlns="http://www.w3.org/2000/svg" data-name="Layer 1"><path d="m17 240v184h184.69l38.52-53h31.58l29.9 53h193.31v-184z" fill="#d4e1f4"/><path d="m454.88 278.1v108.62h-124.99l-30.36-39.44v-69.18z" fill="#ff5576"/><path d="m211.39 278.1v68.25l-33.39 40.37h-120.88v-108.62z" fill="#71c2ff"/><path d="m472.79 240.42v.06h-31.05l-30.02-122.57h-30.48a15.125 15.125 0 0 1 0-30.25h54.14z" fill="#8aafc4"/><path d="m130.76 87.66a15.125 15.125 0 0 1 0 30.25h-30.48l-30.02 122.57h-31.05v-.06l37.41-152.76z" fill="#8aafc4"/><path d="m17 240h30v184h-30z" fill="#bfcddd"/><path d="m57.12 278.1h30v108.62h-30z" fill="#60b0e2"/><g fill="#284268"><path d="m495 234h-17.489l-36.311-147.836a5.655 5.655 0 0 0 -5.824-4.164h-54.132a21 21 0 1 0 0 42h25.768l27.079 110h-356.182l27.079-110h25.768a21 21 0 1 0 0-42h-54.132a5.655 5.655 0 0 0 -5.824 4.164l-36.311 147.836h-17.489c-3.314 0-6 3.163-6 6.476v183.865a5.719 5.719 0 0 0 6 5.659h184.688a5.943 5.943 0 0 0 4.857-2.414l36.728-50.586h25.007l28.184 50.007a5.943 5.943 0 0 0 5.229 2.993h193.307a5.719 5.719 0 0 0 6-5.659v-183.865c0-3.313-2.686-6.476-6-6.476zm-77.452-117.711a5.757 5.757 0 0 0 -5.828-4.289h-30.476a9 9 0 1 1 0-18h49.424l34.488 140h-18.71zm-336.216-22.289h49.424a9 9 0 1 1 0 18h-30.476a5.757 5.757 0 0 0 -5.828 4.289l-28.898 117.711h-18.71zm407.668 324h-183.8l-28.185-50.007a5.941 5.941 0 0 0 -5.227-2.993h-31.576a5.943 5.943 0 0 0 -4.857 2.414l-36.728 50.586h-175.627v-172h466z"/><path d="m34 274.453a6 6 0 0 0 6-6v-6.2a6 6 0 0 0 -12 0v6.2a6 6 0 0 0 6 6z"/><path d="m34 393.706a6 6 0 0 0 6-6v-100.527a6 6 0 0 0 -12 0v100.527a6 6 0 0 0 6 6z"/><path d="m57.116 393h120.884a6.142 6.142 0 0 0 4.623-2.315l33.2-40.441a6.018 6.018 0 0 0 1.177-3.894v-68.25c0-3.314-2.292-6.1-5.6-6.1h-154.284a6.182 6.182 0 0 0 -6.116 6.1v108.621a6.344 6.344 0 0 0 6.116 6.279zm5.884-109h142v60.19l-29.822 36.81h-112.178z"/><path d="m325.25 390.52a5.915 5.915 0 0 0 4.637 2.48h125a6.344 6.344 0 0 0 6.113-6.279v-108.621a6.182 6.182 0 0 0 -6.116-6.1h-155.356c-3.314 0-5.528 2.782-5.528 6.1v69.185a5.8 5.8 0 0 0 1.009 3.66zm-19.25-106.52h143v97h-116.16l-26.84-35.761z"/></g></svg>