<svg id="Layer_1" height="512" viewBox="0 0 512 512" width="512" xmlns="http://www.w3.org/2000/svg" data-name="Layer 1"><path d="m225 302.39v.02 56.59h37v-57.4z" fill="#b0b5ca"/><path d="m303.83 359h-119.13a3.712 3.712 0 0 0 -3.7 3.84v109.16h127v-109.16a4.123 4.123 0 0 0 -4.17-3.84z" fill="#c79a83"/><path d="m313.45 472h-138.37a22.94 22.94 0 0 0 -23.08 22.98v.02h185v-.02c0-12.79-10.76-22.98-23.55-22.98z" fill="#bf796a"/><path d="m244.18 17c80.02 0 144.9 65.05 144.9 145.3s-64.88 145.3-144.9 145.3a145.131 145.131 0 0 1 -18.76-1.21c-71.16-9.22-126.14-70.22-126.14-144.09 0-80.25 64.87-145.3 144.9-145.3z" fill="#696991"/><path d="m244.18 37.86c68.53 0 124.09 55.71 124.09 124.44s-55.56 124.43-124.09 124.43-124.09-55.71-124.09-124.43 55.55-124.44 124.09-124.44z" fill="#8888a3"/><path d="m275.84 130.55a44.834 44.834 0 1 1 -63.32 0 44.989 44.989 0 0 1 63.32 0z" fill="#696991"/><ellipse cx="328.155" cy="162.43" fill="#b6d098" rx="18.052" ry="18.102"/><ellipse cx="244.045" cy="78.095" fill="#b6d098" rx="18.057" ry="18.104"/><path d="m258.1 148.34a19.711 19.711 0 1 1 -27.84 0 19.785 19.785 0 0 1 27.84 0z" fill="#b6d098"/><ellipse cx="244.305" cy="246.5" fill="#b6d098" rx="18.052" ry="18.102"/><path d="m205.08 472h-30a22.94 22.94 0 0 0 -23.08 22.98v.02h30v-.02a22.94 22.94 0 0 1 23.08-22.98z" fill="#aa6b61"/><path d="m211 362.84a3.712 3.712 0 0 1 3.7-3.84h-30a3.712 3.712 0 0 0 -3.7 3.84v109.16h30z" fill="#aa806d"/><path d="m150.09 162.3a124.326 124.326 0 0 1 109.089-123.533 125.025 125.025 0 0 0 -15-.907c-68.54 0-124.09 55.71-124.09 124.44s55.55 124.43 124.09 124.43a125.025 125.025 0 0 0 15-.907 124.324 124.324 0 0 1 -109.089-123.523z" fill="#717189"/><ellipse cx="160.195" cy="162.17" fill="#b6d098" rx="18.052" ry="18.102"/><path d="m209.39 384.54h68.91v64.44h-68.91z" fill="#daaa79"/><g fill="#284268"><path d="m209 455h69a6 6 0 0 0 6-6v-64a6 6 0 0 0 -6-6h-69a6 6 0 0 0 -6 6v64a6 6 0 0 0 6 6zm6-64h57v52h-57z"/><path d="m412.721 235.426a38.285 38.285 0 0 0 -38.021 38.315 27.216 27.216 0 0 1 -26.969 27.259h-43.309a151.525 151.525 0 0 0 90.654-138.7c0-83.426-67.693-151.3-150.9-151.3s-150.9 67.872-150.9 151.3a151.419 151.419 0 0 0 125.724 149.178v41.522h-34.3a9.719 9.719 0 0 0 -9.7 9.836v103a29.239 29.239 0 0 0 -29 29.164 5.936 5.936 0 0 0 5.925 6h184.69a6.149 6.149 0 0 0 6.157-6.016 29.036 29.036 0 0 0 -28.772-29.153v-102.995a10.122 10.122 0 0 0 -10.165-9.836h-35.835v-40h79.731a39.229 39.229 0 0 0 38.969-39.259 26.185 26.185 0 0 1 26.024-26.214 6.051 6.051 0 0 0 0-12.1zm-99.268 242.574a17.034 17.034 0 0 1 16.083 11h-170.536a17.034 17.034 0 0 1 16.083-11zm-11.453-113v101h-115v-101zm-71-12v-39.988c4.344.379 8.737.584 13.177.584 3.981 0 7.92-.173 11.823-.48v39.884zm13.177-51.4c-76.588 0-138.9-62.489-138.9-139.3s62.312-139.3 138.9-139.3 138.9 62.489 138.9 139.3-62.311 139.3-138.9 139.3z"/><path d="m244.177 136.561a25.488 25.488 0 0 0 -18.166 7.543 25.81 25.81 0 0 0 0 36.387 25.645 25.645 0 0 0 36.333 0 25.81 25.81 0 0 0 0-36.387 25.49 25.49 0 0 0 -18.167-7.543zm9.67 35.457a13.646 13.646 0 0 1 -19.339 0 13.788 13.788 0 0 1 0-19.44 13.646 13.646 0 0 1 19.339 0 13.788 13.788 0 0 1 0 19.44z"/><path d="m244.307 222.4a23.87 23.87 0 0 0 -17.013 7.066 24.169 24.169 0 0 0 0 34.074 24.018 24.018 0 0 0 34.027 0 24.169 24.169 0 0 0 0-34.074 23.875 23.875 0 0 0 -17.014-7.066zm8.516 32.666a12.017 12.017 0 0 1 -17.033 0 12.147 12.147 0 0 1 0-17.126 12.014 12.014 0 0 1 17.033 0 12.149 12.149 0 0 1 0 17.124z"/><path d="m345.169 145.39a23.867 23.867 0 0 0 -17.013-7.065 23.873 23.873 0 0 0 -17.014 7.065 24.169 24.169 0 0 0 0 34.074 24.018 24.018 0 0 0 34.027 0 24.167 24.167 0 0 0 0-34.074zm-8.5 25.6a12.017 12.017 0 0 1 -17.033 0 12.149 12.149 0 0 1 0-17.126 12.017 12.017 0 0 1 17.033 0 12.147 12.147 0 0 1 .003 17.126z"/><path d="m244.049 102.2a23.87 23.87 0 0 0 17.013-7.065 24.169 24.169 0 0 0 0-34.074 24.018 24.018 0 0 0 -34.027 0 24.169 24.169 0 0 0 0 34.074 23.871 23.871 0 0 0 17.014 7.065zm-8.517-32.665a12.017 12.017 0 0 1 17.033 0 12.147 12.147 0 0 1 0 17.126 12.017 12.017 0 0 1 -17.033 0 12.147 12.147 0 0 1 0-17.129z"/><path d="m160.2 138.066a23.87 23.87 0 0 0 -17.013 7.065 24.17 24.17 0 0 0 0 34.075 23.87 23.87 0 0 0 17.013 7.065 23.873 23.873 0 0 0 17.013-7.065 24.168 24.168 0 0 0 0-34.075 23.869 23.869 0 0 0 -17.013-7.065zm8.517 32.666a12.017 12.017 0 0 1 -17.033 0 12.148 12.148 0 0 1 0-17.127 12.017 12.017 0 0 1 17.033 0 12.148 12.148 0 0 1 -.002 17.127z"/><path d="m244.177 111.4a50.377 50.377 0 0 0 -35.907 14.913 51.046 51.046 0 0 0 0 71.966 50.688 50.688 0 0 0 71.815 0 51.046 51.046 0 0 0 0-71.966 50.379 50.379 0 0 0 -35.908-14.913zm27.411 78.4a38.687 38.687 0 0 1 -54.821 0 39.023 39.023 0 0 1 0-55.018 38.684 38.684 0 0 1 54.821 0 39.023 39.023 0 0 1 0 55.025z"/><path d="m244.177 31.864c-71.732 0-130.092 58.512-130.092 130.434s58.36 130.434 130.092 130.434 130.092-58.513 130.092-130.432-58.359-130.436-130.092-130.436zm0 248.868c-65.116 0-118.092-53.129-118.092-118.434s52.976-118.434 118.092-118.434 118.092 53.129 118.092 118.436-52.976 118.432-118.092 118.432z"/><path d="m183.571 65.085a114.672 114.672 0 0 0 -49.564 66.435 6 6 0 1 0 11.561 3.215 102.693 102.693 0 0 1 44.393-59.492 6 6 0 0 0 -6.39-10.158z"/><path d="m200.468 68.863a5.978 5.978 0 0 0 2.43-.517c2-.888 4.054-1.721 6.1-2.474a6 6 0 1 0 -4.147-11.261c-2.29.843-4.585 1.774-6.821 2.766a6 6 0 0 0 2.437 11.486z"/></g></svg>