<svg id="Layer_1" height="512" viewBox="0 0 512 512" width="512" xmlns="http://www.w3.org/2000/svg" data-name="Layer 1"><path d="m404.97 494.92v.08c-.64 0-1.27-.02-1.89-.08z" fill="#d4e1f4"/><path d="m202.68 365.58v61.52h-116.65v-.02a41.445 41.445 0 0 0 37.2-41.22v-20.28a39.724 39.724 0 0 1 39.73-39.74q.705 0 1.41.03a39.718 39.718 0 0 1 38.31 39.71z" fill="#baa379"/><path d="m164 326h2.16c-.714-.06-1.434-.106-2.16-.13z" fill="#d3bd94"/><path d="m380 470.41v-99.48a44.625 44.625 0 0 0 -44.7-44.93h-169.14a39.769 39.769 0 0 1 36.84 39.58v84.25a44.9 44.9 0 0 0 44.77 45.17h155.31c-12.7-1-23.08-11.65-23.08-24.59z" fill="#d3bd94"/><path d="m228 26.02c-13.39 0-13.507-9.02-26.9-9.02s-13.438 9.02-26.818 9.02-13.423-9.02-26.803-9.02-13.394 9.02-26.784 9.02-13.388-9.02-26.768-9.02-13.578 9.02-26.968 9.02-12.959-9.02-26.959-9.02v368.86a41.749 41.749 0 0 0 41.713 41.43 40.661 40.661 0 0 0 4.153-.21 41.388 41.388 0 0 0 37.134-41.22v-20.28a39.741 39.741 0 0 1 11.745-28.1 39.31 39.31 0 0 1 27.973-11.64c.47 0 1.282.01 1.282.03v.13h91v-309c-14 0-13.625 9.02-27 9.02z" fill="#ffe6bb"/><path d="m254.53 297.5a141.375 141.375 0 0 1 52.88-272.5c77.96 0 141.16 63.29 141.16 141.38s-63.2 141.37-141.16 141.37a140.621 140.621 0 0 1 -52.88-10.25z" fill="#8ea3ca"/><path d="m307.41 45.3a121.075 121.075 0 1 1 -120.9 121.08 120.989 120.989 0 0 1 120.9-121.08z" fill="#a9b9d8"/><path d="m338.25 135.49a43.65 43.65 0 1 1 -61.69 0 43.728 43.728 0 0 1 61.69 0z" fill="#8ea3ca"/><path d="m319.97 235.85a17.6 17.6 0 1 1 -24.88 0 17.63 17.63 0 0 1 24.88 0z" fill="#8ea3ca"/><path d="m401.66 154.05a17.6 17.6 0 1 1 -24.88 0 17.63 17.63 0 0 1 24.88 0z" fill="#8ea3ca"/><ellipse cx="307.41" cy="166.375" fill="#a9b9d8" rx="19.172" ry="19.202"/><ellipse cx="307.28" cy="84.445" fill="#8ea3ca" rx="17.589" ry="17.618"/><path d="m233 449.83v-84.25a39.769 39.769 0 0 0 -36.84-39.58h-30a39.769 39.769 0 0 1 36.84 39.58v84.25a44.9 44.9 0 0 0 44.77 45.17h30a44.9 44.9 0 0 1 -44.77-45.17z" fill="#c1aa85"/><path d="m70 385.86v-360.018a25.478 25.478 0 0 1 -3.041.178c-13.38 0-12.959-9.02-26.959-9.02v368.86a41.749 41.749 0 0 0 41.713 41.43 40.661 40.661 0 0 0 4.153-.21 41.092 41.092 0 0 0 10.8-2.607 41.765 41.765 0 0 1 -26.666-38.613z" fill="#eacfa9"/><path d="m216.51 166.38a121.038 121.038 0 0 1 105.9-120.153 121.068 121.068 0 1 0 -15 241.223 121.926 121.926 0 0 0 15-.927 121.035 121.035 0 0 1 -105.9-120.143z" fill="#9dacc6"/><ellipse cx="225.59" cy="166.245" fill="#8ea3ca" rx="17.592" ry="17.615"/><g fill="#284268"><path d="m94.229 103h-16.393a6 6 0 0 0 0 12h16.393a6 6 0 0 0 0-12z"/><path d="m94.229 146h-16.393a6 6 0 0 0 0 12h16.393a6 6 0 0 0 0-12z"/><path d="m94.229 189h-16.393a6 6 0 0 0 0 12h16.393a6 6 0 0 0 0-12z"/><path d="m94.229 232h-16.393a6 6 0 0 0 0 12h16.393a6 6 0 0 0 0-12z"/><path d="m94.229 270h-16.393a6 6 0 0 0 0 12h16.393a6 6 0 0 0 0-12z"/><path d="m257.647 413.337a11.419 11.419 0 0 1 .037 22.838c-.042 0-.1-.007-.14-.007s-.091.006-.133.007a11.433 11.433 0 0 1 -11.3-11.416 6 6 0 0 0 -6-6 5.8 5.8 0 0 0 -5.766 6 23.691 23.691 0 0 0 17.655 22.641v5.147a6 6 0 1 0 12 0v-5.147a23.273 23.273 0 0 0 17.184-22.64 23.548 23.548 0 0 0 -23.537-23.422 11.422 11.422 0 1 1 11.3-11.421 6 6 0 0 0 6 6 6.206 6.206 0 0 0 6.235-6 23.271 23.271 0 0 0 -17.182-22.641v-4.355a6 6 0 0 0 -12 0v4.355a23.689 23.689 0 0 0 -17.655 22.64 23.346 23.346 0 0 0 23.302 23.421z"/><path d="m310.3 449h28.842a6 6 0 0 0 0-12h-28.842a6 6 0 0 0 0 12z"/><path d="m310.3 414h28.842a6 6 0 0 0 0-12h-28.842a6 6 0 0 0 0 12z"/><path d="m310.3 379h28.842a6 6 0 0 0 0-12h-28.842a6 6 0 0 0 0 12z"/><path d="m471.608 237.341a37.371 37.371 0 0 0 -37.2 37.37 26.277 26.277 0 0 1 -26.116 26.289h-41.031a147.593 147.593 0 0 0 87.311-134.625c0-81.264-66.019-147.375-147.166-147.375a146.388 146.388 0 0 0 -46.406 7.511v-9.511a6.206 6.206 0 0 0 -6.236-6c-8.525 0-13.2 3.067-16.856 5.532-3.115 2.1-5.232 3.485-10.093 3.485s-6.948-1.386-10.063-3.485c-3.659-2.465-8.227-5.532-16.752-5.532s-13.085 3.067-16.743 5.532c-3.115 2.1-5.176 3.485-10.036 3.485s-6.918-1.386-10.032-3.484c-3.659-2.465-8.213-5.533-16.738-5.533s-13.077 3.067-16.736 5.533c-3.114 2.1-5.172 3.484-10.031 3.484s-6.917-1.386-10.031-3.484c-3.653-2.465-8.211-5.533-16.736-5.533s-13.076 3.068-16.734 5.533c-3.114 2.1-5.171 3.484-10.029 3.484s-6.914-1.386-10.028-3.484c-3.658-2.465-8.407-5.533-16.926-5.533a6.171 6.171 0 0 0 -6.2 6v368.865a47.641 47.641 0 0 0 47.613 47.422c1.406 0 2.893-.122 4.269-.242.018 0 .134-.045.152-.045h110.966v16.83a50.944 50.944 0 0 0 50.765 51.17h154.935c.75 0 1.507.042 2.271.042a6.054 6.054 0 0 0 6-6.063 5.982 5.982 0 0 0 -6-5.979h-1.771c-9.42-1-17.2-8.935-17.2-18.586v-99.485a50.681 50.681 0 0 0 -50.7-50.929h-74.3v-13.761a146.388 146.388 0 0 0 46.406 7.513 147.92 147.92 0 0 0 14.914-.752h85.972a38.29 38.29 0 0 0 38.117-38.289 25.3 25.3 0 0 1 25.2-25.308 6.031 6.031 0 0 0 0-12.062zm-390.108 183.946a35.531 35.531 0 0 1 -35.5-35.422v-361.765a13.2 13.2 0 0 1 4.224 2.389c3.658 2.465 8.309 5.533 16.832 5.533s13.126-3.068 16.784-5.533c3.113-2.103 5.195-3.489 10.053-3.489s6.929 1.386 10.043 3.484c3.658 2.465 8.217 5.533 16.741 5.533s13.081-3.068 16.74-5.533c3.114-2.1 5.173-3.484 10.032-3.484s6.917 1.386 10.031 3.484c3.659 2.465 8.212 5.533 16.736 5.533s13.078-3.068 16.737-5.533c3.115-2.1 5.172-3.484 10.031-3.484s6.919 1.386 10.034 3.485c3.659 2.465 8.213 5.532 16.738 5.532s13.315-3.067 16.974-5.532a13.455 13.455 0 0 1 4.27-2.392v7.021a148.171 148.171 0 0 0 -74.443 71.886h-58.679a6 6 0 1 0 0 12h53.592a146.281 146.281 0 0 0 -7.818 31h-45.774a6 6 0 1 0 0 12h44.6c-.156 2.773-.243 5.564-.243 8.375a148.074 148.074 0 0 0 1.738 22.625h-46.1a6 6 0 1 0 0 12h48.474a146.41 146.41 0 0 0 11.309 31h-59.778a6 6 0 1 0 0 12h66.484a148.4 148.4 0 0 0 20.5 26h-86.984a6 6 0 1 0 0 12h100.378a147.275 147.275 0 0 0 32.744 19.636v18.364h-84.635c-.126 0-.251-.075-.375-.067-.344-.008-.8-.051-1.148-.051a45.846 45.846 0 0 0 -45.842 45.694v20.289a35.531 35.531 0 0 1 -35.5 35.422zm115.5-.287h-83.49a47.416 47.416 0 0 0 15.49-35.135v-20.289a34 34 0 0 1 68 0zm138.3-89a38.668 38.668 0 0 1 38.7 38.929v99.485a30.685 30.685 0 0 0 6.628 18.586h-132.863a38.931 38.931 0 0 1 -38.765-39.17v-84.254a44.948 44.948 0 0 0 -15.2-33.576zm-27.9-30.248c-74.532 0-135.167-60.73-135.167-135.377s60.641-135.375 135.173-135.375 135.166 60.73 135.166 135.377-60.635 135.375-135.166 135.375z"/><path d="m325.211 148.555a25.156 25.156 0 0 0 -35.611 0 25.256 25.256 0 0 0 0 35.639 25.156 25.156 0 0 0 35.611 0 25.255 25.255 0 0 0 0-35.638zm-8.492 27.16a13.155 13.155 0 0 1 -18.627 0 13.239 13.239 0 0 1 0-18.681 13.155 13.155 0 0 1 18.628 0 13.238 13.238 0 0 1 -.001 18.681z"/><path d="m324.213 231.611a23.569 23.569 0 0 0 -33.364 0 23.661 23.661 0 0 0 0 33.388 23.57 23.57 0 0 0 33.364 0 23.661 23.661 0 0 0 0-33.388zm-8.491 24.91a11.57 11.57 0 0 1 -16.381 0 11.643 11.643 0 0 1 0-16.43 11.569 11.569 0 0 1 16.381 0 11.644 11.644 0 0 1 0 16.43z"/><path d="m405.9 149.807a23.569 23.569 0 0 0 -33.364 0 23.661 23.661 0 0 0 0 33.388 23.57 23.57 0 0 0 33.364 0 23.661 23.661 0 0 0 0-33.388zm-8.491 24.909a11.57 11.57 0 0 1 -16.381 0 11.643 11.643 0 0 1 0-16.43 11.569 11.569 0 0 1 16.381 0 11.644 11.644 0 0 1 .003 16.43z"/><path d="m307.28 108.058a23.417 23.417 0 0 0 16.682-6.92 23.661 23.661 0 0 0 0-33.388 23.57 23.57 0 0 0 -33.364 0 23.661 23.661 0 0 0 0 33.389 23.419 23.419 0 0 0 16.682 6.919zm-8.191-31.829a11.57 11.57 0 0 1 16.381 0 11.643 11.643 0 0 1 0 16.43 11.569 11.569 0 0 1 -16.381 0 11.644 11.644 0 0 1 0-16.43z"/><path d="m242.272 149.555a23.571 23.571 0 0 0 -33.365 0 23.663 23.663 0 0 0 0 33.389 23.57 23.57 0 0 0 33.365 0 23.661 23.661 0 0 0 0-33.388zm-8.492 24.909a11.569 11.569 0 0 1 -16.381 0 11.644 11.644 0 0 1 0-16.431 11.57 11.57 0 0 1 16.381 0 11.643 11.643 0 0 1 0 16.431z"/><path d="m342.5 131.246a49.572 49.572 0 0 0 -70.179 0 49.789 49.789 0 0 0 0 70.258 49.572 49.572 0 0 0 70.179 0 49.789 49.789 0 0 0 0-70.258zm-8.5 61.779a37.571 37.571 0 0 1 -53.195 0 37.771 37.771 0 0 1 0-53.3 37.571 37.571 0 0 1 53.195 0 37.771 37.771 0 0 1 0 53.3z"/><path d="m307.406 39.3c-69.971 0-126.9 57.007-126.9 127.077s56.926 127.077 126.9 127.077 126.9-57.007 126.9-127.077-56.93-127.077-126.9-127.077zm0 242.154c-63.354 0-114.9-51.623-114.9-115.077s51.546-115.077 114.9-115.077 114.9 51.623 114.9 115.077-51.547 115.075-114.9 115.075z"/><path d="m248.281 71.647a111.745 111.745 0 0 0 -48.357 64.735 6 6 0 1 0 11.56 3.22 99.765 99.765 0 0 1 43.181-57.794 6 6 0 0 0 -6.384-10.161z"/><path d="m264.822 75.624a5.977 5.977 0 0 0 2.429-.517c1.938-.859 3.934-1.669 5.934-2.4a6 6 0 0 0 -4.145-11.262c-2.241.825-4.48 1.732-6.654 2.7a6 6 0 0 0 2.436 11.487z"/></g></svg>