<svg id="Layer_1" height="512" viewBox="0 0 512 512" width="512" xmlns="http://www.w3.org/2000/svg" data-name="Layer 1"><path d="m370.05 329.78h10.36v-35.22" fill="#7c7e89"/><path d="m69 228h374v227h-374z" fill="#888a91"/><path d="m38 127h436v101h-436z" fill="#869bbc"/><path d="m116 51h280v112h-280z" fill="#c16068"/><path d="m171.86 163.03v33.91h-40.1a16 16 0 0 1 -16-16v-17.91z" fill="#6e747c"/><path d="m171.86 163.03h56.09v33.91h-56.09z" fill="#7e8389"/><path d="m227.95 163.03h56.1v33.91h-56.1z" fill="#6e747c"/><path d="m284.05 163.03h56.09v33.91h-56.09z" fill="#7e8389"/><path d="m396.24 163.03v17.91a16 16 0 0 1 -16 16h-40.1v-33.91z" fill="#6e747c"/><path d="m396.24 33v18.36h-56.1v-34.36h40.1a16 16 0 0 1 16 16z" fill="#6e747c"/><path d="m340.14 17.45v33.91h-56.09v-33.91-.45h56.09z" fill="#7e8389"/><path d="m284.05 17.45v33.91h-56.1v-33.91-.45h56.1z" fill="#6e747c"/><path d="m227.95 17.45v33.91h-56.09v-33.91-.45h56.09z" fill="#7e8389"/><path d="m171.86 17.45v33.91h-56.1v-18.36a16 16 0 0 1 16-16h40.1z" fill="#6e747c"/><path d="m256 66.61a40.36 40.36 0 1 1 -40.4 40.36 40.382 40.382 0 0 1 40.4-40.36z" fill="#5fcda4"/><path d="m272.08 106.97-24.08 15.98v-31.96z" fill="#d8ff33"/><path d="m132 295h248v35h-248z" fill="#a4bdc1"/><path d="m444.7 455h-377.4c-12.6 0-23.3 9.81-23.3 22.4v17.6h423v-17.6a22.036 22.036 0 0 0 -22.3-22.4z" fill="#869bbc"/><path d="m370.05 329.78v124.83h-114.05v-124.24-.59z" fill="#80698c"/><path d="m256 330.37v124.24h-114.05v-124.83h114.05z" fill="#897793"/><path d="m69 228h30v227h-30z" fill="#a8aaaf"/><path d="m38 127h30v101h-30z" fill="#adc2e0"/><path d="m97.3 455h-30c-12.6 0-23.3 9.81-23.3 22.4v17.6h30v-17.6c0-12.59 10.7-22.4 23.3-22.4z" fill="#adc2e0"/><g fill="#284268"><path d="m473.723 121h-71.723v-88a22 22 0 0 0 -22-22h-248a22 22 0 0 0 -22 22v88h-71.723a6.611 6.611 0 0 0 -6.277 6.417v100.359a6.437 6.437 0 0 0 6.277 6.224h24.723v214.879a28.967 28.967 0 0 0 -25 28.521v17.6c0 3.314 3.184 6 6.5 6h423c3.314 0 6.5-2.686 6.5-6v-17.6a28.967 28.967 0 0 0 -25-28.524v-214.876h24.723a6.437 6.437 0 0 0 6.277-6.224v-100.359a6.611 6.611 0 0 0 -6.277-6.417zm-127.723-98h34.237a9.811 9.811 0 0 1 9.763 10v12h-44zm-56 0h44v22h-44zm-56 0h44v22h-44zm-56 0h44v22h-44zm-56 10a9.811 9.811 0 0 1 9.763-10h34.237v22h-44zm0 24h268v100h-268zm268 112v11.944a9.86 9.86 0 0 1 -9.763 10.056h-34.237v-22zm-56 0v22h-44v-22zm-56 0v22h-44v-22zm-56 0v22h-44v-22zm-100 0h44v22h-34.237a9.86 9.86 0 0 1 -9.763-10.056zm340 308.4v11.6h-412v-11.6c0-9.262 8.033-16.4 17.3-16.4h377.4c9.267 0 17.3 7.141 17.3 16.4zm-81.587-188.4h-248.826a5.3 5.3 0 0 0 -5.587 5.562v35.216c0 3.314 2.273 6.222 5.587 6.222h4.413v113h-61v-215h362v215h-61v-113h4.413c3.314 0 5.587-2.908 5.587-6.222v-35.216a5.3 5.3 0 0 0 -5.587-5.562zm-242.413 35v-23h236v23zm226 12v113h-102v-113zm-114 0v113h-102v-113zm218-114h-424v-89h66v48a22 22 0 0 0 22 22h248a22 22 0 0 0 22-22v-48h66z"/><path d="m279 405.765a6 6 0 0 0 6-6v-9.322a6 6 0 0 0 -12 0v9.322a6 6 0 0 0 6 6z"/><path d="m233 405.765a6 6 0 0 0 6-6v-9.322a6 6 0 0 0 -12 0v9.322a6 6 0 0 0 6 6z"/><path d="m92 253.249a6 6 0 0 0 -6 6v6.2a6 6 0 0 0 12 0v-6.2a6 6 0 0 0 -6-6z"/><path d="m92 278.179a6 6 0 0 0 -6 6v100.527a6 6 0 0 0 12 0v-100.527a6 6 0 0 0 -6-6z"/><path d="m256 60.61a46.362 46.362 0 1 0 46.4 46.362 46.435 46.435 0 0 0 -46.4-46.362zm0 80.724a34.362 34.362 0 1 1 34.4-34.362 34.421 34.421 0 0 1 -34.4 34.362z"/><path d="m275.4 101.973-24.081-15.982a6 6 0 0 0 -9.319 5v31.965a6 6 0 0 0 9.319 5l24.081-15.985a6 6 0 0 0 0-10zm-21.4 9.8v-9.6l7.229 4.8z"/></g></svg>