<svg id="Layer_1" height="512" viewBox="0 0 512 512" width="512" xmlns="http://www.w3.org/2000/svg" data-name="Layer 1"><path d="m314.31 47h-254.19a16.5 16.5 0 1 0 -.075 33h254.265a16.541 16.541 0 0 0 11.71-4.89 16.3 16.3 0 0 0 4.85-11.635 16.489 16.489 0 0 0 -16.56-16.475z" fill="#7188b6"/><path d="m314.125 432h-253.955a16.576 16.576 0 0 0 -11.74 4.89 16.272 16.272 0 0 0 -4.87 11.635 16.519 16.519 0 0 0 16.61 16.475h254.1a16.415 16.415 0 0 0 16.6-16.447 16.7 16.7 0 0 0 -16.745-16.553z" fill="#7188b6"/><path d="m66 401v30.52.48h242v-.48-30.52z" fill="#889cc2"/><path d="m66 80h242v30h-242z" fill="#889cc2"/><path d="m76 110v290.06.94h222v-.94-290.06z" fill="#f3ce7d"/><path d="m220 131h45v249h-45z" fill="#c1a265"/><path d="m220.47 150h-.47v210h248v-210z" fill="#80aaff"/><path d="m358.1 218.89h83.43v72.01h-83.43z" fill="#d4e1f4"/><path d="m414.38 313.24h26.23v22.69h-26.23z" fill="#d4e1f4"/><path d="m414.38 173.86h26.23v22.69h-26.23z" fill="#d4e1f4"/><path d="m359.02 313.24h26.23v22.69h-26.23z" fill="#d4e1f4"/><path d="m359.02 173.86h26.23v22.69h-26.23z" fill="#d4e1f4"/><path d="m247.38 218.89h83.43v72.01h-83.43z" fill="#d4e1f4"/><path d="m303.66 313.24h26.23v22.69h-26.23z" fill="#d4e1f4"/><path d="m303.66 173.86h26.23v22.69h-26.23z" fill="#d4e1f4"/><path d="m248.3 313.24h26.23v22.69h-26.23z" fill="#d4e1f4"/><path d="m248.3 173.86h26.23v22.69h-26.23z" fill="#d4e1f4"/><path d="m136.29 465.19h101.86v29.81h-101.86z" fill="#889cc2"/><path d="m136.29 17h101.86v29.81h-101.86z" fill="#889cc2"/><path d="m73.56 63.448a16.4 16.4 0 0 1 16.56-16.448h-30a16.5 16.5 0 1 0 -.075 33h30a16.484 16.484 0 0 1 -16.485-16.552z" fill="#5f7699"/><path d="m73.56 448.525a16.272 16.272 0 0 1 4.87-11.635 16.576 16.576 0 0 1 11.74-4.89h-30a16.576 16.576 0 0 0 -11.74 4.89 16.272 16.272 0 0 0 -4.87 11.635 16.519 16.519 0 0 0 16.61 16.475h30a16.519 16.519 0 0 1 -16.61-16.475z" fill="#5f7699"/><path d="m66 401v30.52.48h30v-.48-30.52z" fill="#778baa"/><path d="m66 80h30v30h-30z" fill="#778baa"/><path d="m76 110v291h30v-.94-290.06z" fill="#d8b56f"/><g fill="#284268"><path d="m102 125.531a6 6 0 0 0 -6 6v6.849a6 6 0 0 0 12 0v-6.849a6 6 0 0 0 -6-6z"/><path d="m102 153.052a6 6 0 0 0 -6 6v166.17a6 6 0 0 0 12 0v-166.17a6 6 0 0 0 -6-6z"/><path d="m468.439 144h-164.439v-28h4.146a6.115 6.115 0 0 0 5.854-6.27v-23.73h.314a22.5 22.5 0 1 0 0-45h-70.314v-24a5.877 5.877 0 0 0 -5.853-6h-101.86a6.252 6.252 0 0 0 -6.287 6v24h-69.88a22.5 22.5 0 1 0 0 45h-.12v23.73a6.487 6.487 0 0 0 6.287 6.27h3.713v279h-3.713c-3.313 0-6.287 2.3-6.287 5.614v25.386h.168a22.5 22.5 0 1 0 0 45h69.832v24a6.252 6.252 0 0 0 6.287 6h101.86a5.877 5.877 0 0 0 5.853-6v-24h70.265a22.5 22.5 0 1 0 0-45h-.265v-25.386a5.559 5.559 0 0 0 -5.854-5.614h-4.146v-30h164.439a5.233 5.233 0 0 0 5.561-5.5v-209.2c0-3.317-2.247-6.3-5.561-6.3zm-326.439-121h90v18h-90zm-81.88 51a10.5 10.5 0 1 1 0-21h254.194a10.5 10.5 0 1 1 0 21zm204.6 51h-44.288c-3.313 0-6.432 2.667-6.432 5.98v248.936a6.457 6.457 0 0 0 6.432 6.084h44.287a6.318 6.318 0 0 0 6.281-6.084v-14.916h21v30h-210v-279h210v28h-21v-13.02a6.23 6.23 0 0 0 -6.281-5.98zm-5.72 12v7h-33v-7zm-33 228h33v9h-33zm76 42v19h-230v-19zm-230-303v-18h230v18zm160 385h-90v-18h90zm82.265-51a10.5 10.5 0 1 1 0 21h-254.097a10.5 10.5 0 1 1 0-21zm147.735-85h-236v-197h236z"/><path d="m248 203h26a6 6 0 0 0 6-6v-23a6 6 0 0 0 -6-6h-26a6 6 0 0 0 -6 6v23a6 6 0 0 0 6 6zm6-23h15v11h-15z"/><path d="m274 307h-26a6 6 0 0 0 -6 6v23a6 6 0 0 0 6 6h26a6 6 0 0 0 6-6v-23a6 6 0 0 0 -6-6zm-5 23h-15v-11h15z"/><path d="m304 203h26a6 6 0 0 0 6-6v-23a6 6 0 0 0 -6-6h-26a6 6 0 0 0 -6 6v23a6 6 0 0 0 6 6zm6-23h14v11h-14z"/><path d="m330 307h-26a6 6 0 0 0 -6 6v23a6 6 0 0 0 6 6h26a6 6 0 0 0 6-6v-23a6 6 0 0 0 -6-6zm-6 23h-14v-11h14z"/><path d="m359 203h26a6 6 0 0 0 6-6v-23a6 6 0 0 0 -6-6h-26a6 6 0 0 0 -6 6v23a6 6 0 0 0 6 6zm6-23h14v11h-14z"/><path d="m385 307h-26a6 6 0 0 0 -6 6v23a6 6 0 0 0 6 6h26a6 6 0 0 0 6-6v-23a6 6 0 0 0 -6-6zm-6 23h-14v-11h14z"/><path d="m414 203h26a6 6 0 0 0 6-6v-23a6 6 0 0 0 -6-6h-26a6 6 0 0 0 -6 6v23a6 6 0 0 0 6 6zm6-23h15v11h-15z"/><path d="m440 307h-26a6 6 0 0 0 -6 6v23a6 6 0 0 0 6 6h26a6 6 0 0 0 6-6v-23a6 6 0 0 0 -6-6zm-5 23h-15v-11h15z"/><path d="m247 297h83a6 6 0 0 0 6-6v-72a6 6 0 0 0 -6-6h-83a6 6 0 0 0 -6 6v72a6 6 0 0 0 6 6zm6-72h72v60h-72z"/><path d="m358 297h83a6 6 0 0 0 6-6v-72a6 6 0 0 0 -6-6h-83a6 6 0 0 0 -6 6v72a6 6 0 0 0 6 6zm6-72h72v60h-72z"/></g></svg>