<svg id="Layer_1" height="512" viewBox="0 0 512 512" width="512" xmlns="http://www.w3.org/2000/svg" data-name="Layer 1"><path d="m17 111v202h262.73l93.27-78.65v-123.35z" fill="#5fa8ed"/><path d="m195.24 160.44a51.305 51.305 0 1 1 -51.35 51.31 51.328 51.328 0 0 1 51.35-51.31z" fill="#eb7288"/><path d="m215.68 211.75-30.61 20.31v-40.63z" fill="#eecd7c"/><path d="m373.48 79.55v31.37h-71.29v-51.71h50.96a20.336 20.336 0 0 1 20.33 20.34z" fill="#5b6372"/><path d="m302.19 59.78v51.14h-71.3v-51.14-.57h71.3z" fill="#767d89"/><path d="m230.89 59.78v51.14h-71.3v-51.14-.57h71.3z" fill="#5b6372"/><path d="m159.59 59.78v51.14h-71.29v-51.14-.57h71.29z" fill="#767d89"/><path d="m88.3 59.78v51.14h-71.3v-31.37a20.338 20.338 0 0 1 20.34-20.34h50.96z" fill="#5b6372"/><path d="m88.3 313.14v51.14h-50.96a20.332 20.332 0 0 1 -20.34-20.34v-30.8z" fill="#5b6372"/><path d="m88.3 313.14h71.29v51.14h-71.29z" fill="#767d89"/><path d="m159.59 313.14h71.3v51.14h-71.3z" fill="#5b6372"/><path d="m231 313v51h44.82 4.18v-51z" fill="#767d89"/><path d="m373.48 230.35c3.32-.31 6.69-.46 10.09-.46a111.508 111.508 0 1 1 -10.09.46z" fill="#d4e1f4"/><path d="m17 111h30v202h-30z" fill="#86c4f7"/><path d="m67.34 59.21h-30a20.338 20.338 0 0 0 -20.34 20.34v31.37h30v-31.37a20.338 20.338 0 0 1 20.34-20.34z" fill="#737b87"/><path d="m47 343.94v-30.8h-30v30.8a20.332 20.332 0 0 0 20.34 20.34h30a20.332 20.332 0 0 1 -20.34-20.34z" fill="#737b87"/><path d="m304.46 364.14a111.444 111.444 0 0 1 94.145-133.24 112.469 112.469 0 0 0 -15.035-1.013c-3.4 0-6.77.15-10.09.46a111.451 111.451 0 1 0 25.074 221.434 111.541 111.541 0 0 1 -94.094-87.641z" fill="#bacadd"/><path d="m383.57 287.99c45.39 0 82.06 53.35 82.06 53.35s-36.67 53.35-82.06 53.35-82.07-53.35-82.07-53.35 36.68-53.35 82.07-53.35z" fill="#5fcda4"/><circle cx="383.57" cy="341.34" fill="#4ca987" r="45.01"/><g fill="#284268"><path d="m195.242 154.441a57.307 57.307 0 1 0 57.351 57.307 57.394 57.394 0 0 0 -57.351-57.307zm0 102.613a45.307 45.307 0 1 1 45.351-45.306 45.38 45.38 0 0 1 -45.351 45.306z"/><path d="m219 206.749-30.622-20.317a6.046 6.046 0 0 0 -9.374 5v40.633a6.051 6.051 0 0 0 9.384 5l30.609-20.316a6 6 0 0 0 0-10zm-28 14.13v-18.263l13.756 9.132z"/><path d="m41 132.249a6 6 0 0 0 -6 6v6.2a6 6 0 0 0 12 0v-6.2a6 6 0 0 0 -6-6z"/><path d="m41 157.179a6 6 0 0 0 -6 6v100.527a6 6 0 0 0 12 0v-100.527a6 6 0 0 0 -6-6z"/><path d="m445.632 310.2c-20.54-18.456-42-28.212-62.065-28.212-47.993 0-85.441 53.667-87.012 55.952a6 6 0 0 0 0 6.8 174 174 0 0 0 24.945 27.738c20.54 18.457 42 28.212 62.065 28.212 47.994 0 85.441-53.667 87.012-55.951a6 6 0 0 0 0-6.8 173.986 173.986 0 0 0 -24.945-27.739zm-115.916 53.526a170.892 170.892 0 0 1 -20.755-22.386 170.842 170.842 0 0 1 20.755-22.386 126.9 126.9 0 0 1 17.215-13.054 50.887 50.887 0 0 0 0 70.884 126.979 126.979 0 0 1 -17.215-13.058zm53.851 16.628a39.014 39.014 0 1 1 39.008-39.014 39.055 39.055 0 0 1 -39.008 39.014zm36.551-3.483a50.89 50.89 0 0 0 .082-70.971 126.947 126.947 0 0 1 17.214 13.056 170.832 170.832 0 0 1 20.754 22.385c-5.498 7.139-19.583 23.984-38.05 35.53z"/><path d="m383.567 223.893c-1.53 0-3.051.039-4.567.1v-144.441c0-14.524-11.331-26.552-25.852-26.552h-315.812a26.55 26.55 0 0 0 -26.336 26.552v264.391a26.127 26.127 0 0 0 26.336 26.057h232.341a117.438 117.438 0 1 0 113.89-146.107zm-75.567-158.893h45.148c7.905 0 13.852 6.646 13.852 14.552v25.448h-59zm-71 0h59v40h-59zm-71 0h59v40h-59zm-72 0h60v40h-60zm-71 14.552a14.538 14.538 0 0 1 14.336-14.552h44.664v40h-59zm59 278.448h-44.664a14.115 14.115 0 0 1 -14.336-14.057v-24.943h59zm72 0h-60v-39h60zm71 0h-59v-39h59zm42.321 0h-30.321v-39h31.274a117.6 117.6 0 0 0 -.953 39zm-244.321-51v-190h344v108.067a117.775 117.775 0 0 0 -95.74 81.933zm360.567 139.787a105.447 105.447 0 1 1 105.433-105.447 105.559 105.559 0 0 1 -105.433 105.447z"/></g></svg>