<svg id="Layer_1" height="512" viewBox="0 0 512 512" width="512" xmlns="http://www.w3.org/2000/svg" data-name="Layer 1"><path d="m478.99 17 9.66 76.03-69.62 8.82 53.38-84.02z" fill="#58606d"/><path d="m472.41 17.83-53.38 84.02-76.48 9.68 53.38-84.01z" fill="#797e89"/><path d="m395.93 27.52-53.38 84.01-76.47 9.69 53.37-84.01z" fill="#58606d"/><path d="m319.45 37.21-53.37 84.01-76.49 9.68 53.38-84.01z" fill="#797e89"/><path d="m242.97 46.89-53.38 84.01-62.75 7.95-.19.04a53.962 53.962 0 0 0 -4.34-12.78l44.17-69.53z" fill="#58606d"/><path d="m90 66.27-18.81 29.6 51.12 30.24 44.17-69.53z" fill="#797e89"/><path d="m20.26 75.1 6.2 48.89 44.73-28.12 18.81-29.6z" fill="#58606d"/><path d="m30 229h462v266h-462z" fill="#ccd3df"/><path d="m417.09 326.09a51.407 51.407 0 0 0 -36.46-15.09h-239.32a51.5 51.5 0 1 0 -.24 103h239.56a51.484 51.484 0 0 0 36.46-87.91z" fill="#87b299"/><path d="m306.53 414.1a71.856 71.856 0 1 1 21.59-51.35 71.76 71.76 0 0 1 -21.59 51.35z" fill="#5fcda4"/><path d="m284.8 362.75-42.9 28.47v-56.95z" fill="#d8ff33"/><path d="m492.05 152.32v76.8h-70.3l63.67-76.8z" fill="#58606d"/><path d="m485.42 152.32-63.67 76.8h-77.1l63.68-76.8z" fill="#797e89"/><path d="m408.33 152.32-63.68 76.8h-77.09l63.67-76.8z" fill="#58606d"/><path d="m331.23 152.32-63.67 76.8h-77.1l63.68-76.8z" fill="#797e89"/><path d="m254.14 152.32-63.68 76.8h-77.09l63.67-76.8z" fill="#58606d"/><path d="m128.15 152-.48.14-68.54 49.28-22.86 27.58h77.1l63.67-77z" fill="#797e89"/><path d="m30 180.53v48.47h6.27l23.04-27.5z" fill="#58606d"/><path d="m71.19 95.87c.88-.05 1.76-.07 2.65-.07a53.818 53.818 0 0 1 53.89 53.9c0 .87-.02 1.74-.06 2.6a53.9 53.9 0 1 1 -56.48-56.43z" fill="#ccd3df"/><path d="m73.84 127.93a21.765 21.765 0 1 1 -21.77 21.77 21.768 21.768 0 0 1 21.77-21.77z" fill="#b0b5ca"/><path d="m30 229h30v266h-30z" fill="#b3bac6"/><path d="m214.18 362.75a71.928 71.928 0 0 1 56.972-70.33 71.91 71.91 0 1 0 0 140.661 71.938 71.938 0 0 1 -56.97-70.331z" fill="#52b28b"/><path d="m49.64 180.53a53.885 53.885 0 0 1 34.209-83.8 54.2 54.2 0 0 0 -10.009-.93c-.89 0-1.77.02-2.65.07a53.892 53.892 0 1 0 12.638 106.785c-1.591-.3-3.161-.66-4.7-1.095a53.987 53.987 0 0 1 -29.488-21.03z" fill="#b3bac6"/><g fill="#284268"><path d="m73.839 177.464a27.769 27.769 0 1 0 -27.766-27.764 27.8 27.8 0 0 0 27.766 27.764zm0-43.538a15.769 15.769 0 1 1 -15.766 15.774 15.786 15.786 0 0 1 15.766-15.774z"/><path d="m24 182.306v312.694a5.706 5.706 0 0 0 5.643 6h462.408a5.957 5.957 0 0 0 5.949-6v-342.677a6.241 6.241 0 0 0 -5.949-6.323h-358.422c-.042 0-.1-1.348-.172-2.1l355.943-45a5.927 5.927 0 0 0 5.2-6.648l-9.661-76.022a6 6 0 0 0 -6.706-5.192l-458.733 58.104a6 6 0 0 0 -5.2 6.711l5.981 47.077a59.4 59.4 0 0 0 -6.153 26.77 60.7 60.7 0 0 0 9.872 32.606zm462 306.694h-450v-254h450zm0-266h-51.486l51.486-62.035zm-13.346-65-53.728 65h-61.506l53.727-65zm-77.095 0-53.728 65h-61.506l53.727-65zm-77.1 0-53.727 65h-61.502l53.728-65zm-77.094 0-53.728 65h-61.503l53.728-65zm-77.1 0-53.728 65h-61.497l12.313-14.789a60.487 60.487 0 0 0 71.747-50.211zm-128.265 62.482v-24.691a58.44 58.44 0 0 0 13.475 8.438zm445.939-132.648-51 6.458 43.181-67.965zm-21.439-62.445-45.019 70.862-61.021 7.728 45.022-70.862zm-76.48 9.686-45.02 70.862-61.02 7.728 45.02-70.865zm-76.482 9.687-45.021 70.861-61.02 7.728 45.021-70.861zm-76.482 9.686-45.021 70.861-54.9 6.953a59.523 59.523 0 0 0 -2.037-5.652l40.938-64.434zm-137.502 17.414 61.02-7.728-32.149 50.6a59.922 59.922 0 0 0 -40.614-24.39zm-15.461 1.958-10.348 16.286a59.747 59.747 0 0 0 -37.212 18.28l-3.569-28.086zm-4.254 27.98a47.9 47.9 0 1 1 -47.89 47.9 47.947 47.947 0 0 1 47.89-47.9z"/><path d="m54 269.453a6 6 0 0 0 6-6v-6.2a6 6 0 0 0 -12 0v6.2a6 6 0 0 0 6 6z"/><path d="m54 388.706a6 6 0 0 0 6-6v-100.527a6 6 0 0 0 -12 0v100.527a6 6 0 0 0 6 6z"/><path d="m141.066 420h62.382a77.845 77.845 0 0 0 105.41 0h71.769a57.5 57.5 0 1 0 0-115h-72.217c-13.838-13-32.171-20.141-52.257-20.141s-38.419 7.141-52.253 20.141h-62.83a57.5 57.5 0 1 0 0 115zm239.561-103a45.5 45.5 0 1 1 0 91h-61.136a77.423 77.423 0 0 0 -.3-91zm-124.474-20.162a65.91 65.91 0 1 1 -65.971 65.91 66.015 66.015 0 0 1 65.971-65.91zm-115.087 20.162h52.045a77.423 77.423 0 0 0 -.3 91h-51.745a45.5 45.5 0 1 1 0-91z"/><path d="m239.115 396.509a5.9 5.9 0 0 0 2.812.713 5.96 5.96 0 0 0 3.307-1l42.887-28.474a6 6 0 0 0 -.006-10l-42.893-28.475a5.93 5.93 0 0 0 -9.222 5v56.949a5.956 5.956 0 0 0 3.115 5.287zm8.885-51.051 26.044 17.29-26.044 17.289z"/></g></svg>