<svg id="Layer_1" height="512" viewBox="0 0 512 512" width="512" xmlns="http://www.w3.org/2000/svg" data-name="Layer 1"><path d="m57 40v349h130.75l.285-.11 177.965-242.35v-106.54z" fill="#c1dfea"/><path d="m17 40.1h40.23v348.94h-40.23z" fill="#a2c3cc"/><path d="m365.89 142.54a166.952 166.952 0 1 1 -37.68-4.27 166.888 166.888 0 0 1 37.68 4.27z" fill="#dfe1e6"/><path d="m326.07 243.07a66.3 66.3 0 1 1 -66.29 66.3 66.293 66.293 0 0 1 66.29-66.3z" fill="#8a8fa5"/><path d="m326.07 290.21a19.155 19.155 0 1 1 -19.15 19.16 19.162 19.162 0 0 1 19.15-19.16z" fill="#b5bac4"/><path d="m223.98 388.91a166.868 166.868 0 0 1 124.235-249.442 166.837 166.837 0 0 0 -186.795 165.622 166.742 166.742 0 0 0 166.79 166.81 168.5 168.5 0 0 0 20.056-1.2 166.818 166.818 0 0 1 -124.286-81.79z" fill="#ccc"/><g fill="#284268"><path d="m85 59.249a6 6 0 0 0 -6 6v6.2a6 6 0 0 0 12 0v-6.2a6 6 0 0 0 -6-6z"/><path d="m85 84.179a6 6 0 0 0 -6 6v100.527a6 6 0 1 0 12 0v-100.527a6 6 0 0 0 -6-6z"/><path d="m372 137.9v-97.8a6.18 6.18 0 0 0 -6.113-6.1h-348.887a6.083 6.083 0 0 0 -6 6.1v348.938a5.969 5.969 0 0 0 6 5.962h163.7a172.839 172.839 0 0 0 147.51 82.9c95.277 0 172.79-77.521 172.79-172.811 0-80.164-54.859-147.748-129-167.189zm-321 245.1h-28v-337h28zm12 0v-337h297v89.216a173.039 173.039 0 0 0 -31.79-2.943c-95.276 0-172.789 77.525-172.789 172.816a171.783 171.783 0 0 0 18.585 77.911zm265.21 82.9c-88.659 0-160.789-72.141-160.789-160.815s72.13-160.816 160.789-160.816 160.79 72.146 160.79 160.82-72.13 160.811-160.79 160.811z"/><path d="m326.073 237.067a72.3 72.3 0 1 0 72.288 72.3 72.376 72.376 0 0 0 -72.288-72.3zm0 132.6a60.3 60.3 0 1 1 60.288-60.3 60.363 60.363 0 0 1 -60.288 60.298z"/><path d="m328.214 416.715c-60.33-.033-109.44-49.265-109.473-109.6a6.1 6.1 0 0 0 -6-6.11 6.222 6.222 0 0 0 -6 6.259c.037 66.945 54.527 121.736 121.466 121.736a6.144 6.144 0 0 0 0-12.285z"/><path d="m359.822 189.911a6 6 0 1 0 -3.122 11.589 109.573 109.573 0 0 1 80.98 105.617 5.9 5.9 0 0 0 6 5.883 5.9 5.9 0 0 0 6-5.89 121.594 121.594 0 0 0 -89.858-117.199z"/><path d="m328.208 197.739c2.613 0 5.258.1 7.862.282.146.011.29.016.434.016a6 6 0 0 0 5.978-5.573 5.882 5.882 0 0 0 -5.557-6.282c-2.885-.206-5.816-.182-8.712-.182a5.871 5.871 0 1 0 0 11.739z"/><path d="m326.073 284.211a25.155 25.155 0 1 0 25.152 25.155 25.183 25.183 0 0 0 -25.152-25.155zm0 38.31a13.155 13.155 0 1 1 13.152-13.155 13.168 13.168 0 0 1 -13.152 13.155z"/></g></svg>