<svg id="Layer_1" height="512" viewBox="0 0 512 512" width="512" xmlns="http://www.w3.org/2000/svg" data-name="Layer 1"><path d="m489.53 405.39v52.72a42.426 42.426 0 0 1 -42.46 42.39h-382.14a42.426 42.426 0 0 1 -42.46-42.39v-52.72z" fill="#f58387"/><path d="m489.53 64.89v340.5h-467.06v-340.5a42.426 42.426 0 0 1 42.46-42.39h382.14a42.426 42.426 0 0 1 42.46 42.39z" fill="#80aaff"/><path d="m393.88 70.85h-.01a10.608 10.608 0 0 0 -10.61 10.69l-.12 263.77a10.615 10.615 0 0 0 21.23-.01v-.04l.12-263.91a10.606 10.606 0 0 0 -10.61-10.5z" fill="#d4e1f4"/><path d="m309.46 73.94a10.614 10.614 0 0 0 -18.1 7.55l-.11 263.85a10.615 10.615 0 0 0 21.23-.06v-.06l.1-263.82a10.529 10.529 0 0 0 -3.12-7.46z" fill="#d4e1f4"/><path d="m217.66 73.91a10.621 10.621 0 0 0 -18.08 7.66l-.14 263.73a10.615 10.615 0 0 0 21.23-.02v-.02l.14-263.94a10.522 10.522 0 0 0 -3.15-7.41z" fill="#d4e1f4"/><path d="m125.76 73.93a10.621 10.621 0 0 0 -18.1 7.57l-.09 263.82a10.615 10.615 0 0 0 21.23-.04v-.04l.09-263.85a10.556 10.556 0 0 0 -3.13-7.46z" fill="#d4e1f4"/><path d="m411.32 160.07h-35.08a17.49 17.49 0 0 0 0 34.98h35.08a17.49 17.49 0 0 0 0-34.98z" fill="#797e89"/><path d="m319.47 265h-35.08a17.485 17.485 0 1 0 0 34.97h35.08a17.485 17.485 0 1 0 0-34.97z" fill="#797e89"/><path d="m227.61 136.75h-35.08a17.49 17.49 0 0 0 0 34.98h35.08a17.49 17.49 0 0 0 0-34.98z" fill="#797e89"/><path d="m135.76 218.36h-35.08a17.49 17.49 0 0 0 0 34.98h35.08a17.49 17.49 0 1 0 0-34.98z" fill="#797e89"/><ellipse cx="407.12" cy="451.5" fill="#4689d3" rx="19.9" ry="19.87"/><path d="m332.81 431.63a19.87 19.87 0 1 1 -19.9 19.87 19.884 19.884 0 0 1 19.9-19.87z" fill="#4689d3"/><path d="m84.98 428.34h140.39v46.32h-140.39z" fill="#5fcda4"/><path d="m52.47 458.11v-52.72h-30v52.72a42.426 42.426 0 0 0 42.46 42.39h30a42.426 42.426 0 0 1 -42.46-42.39z" fill="#d36e75"/><path d="m52.47 64.89a42.426 42.426 0 0 1 42.46-42.39h-30a42.426 42.426 0 0 0 -42.46 42.39v340.5h30z" fill="#719de2"/><g fill="#284268"><path d="m447.07 17h-382.14c-26.721 0-48.93 21.209-48.93 47.9v393.21c0 26.681 22.209 48.89 48.93 48.89h382.14c26.721 0 48.93-22.209 48.93-48.895v-393.205c0-26.691-22.209-47.9-48.93-47.9zm36.93 441.105c0 20.068-16.826 36.895-36.93 36.895h-382.14c-20.104 0-36.93-16.827-36.93-36.895v-47.105h456zm0-59.105h-456v-334.1c0-20.073 16.826-35.9 36.93-35.9h382.14c20.104 0 36.93 15.827 36.93 35.9z"/><path d="m85 480h140a6 6 0 0 0 6-6v-46a6 6 0 0 0 -6-6h-140a6 6 0 0 0 -6 6v46a6 6 0 0 0 6 6zm6-46h128v35h-128z"/><path d="m332.814 477.373a25.873 25.873 0 1 0 -25.9-25.873 25.918 25.918 0 0 0 25.9 25.873zm0-39.746a13.873 13.873 0 1 1 -13.9 13.873 13.9 13.9 0 0 1 13.9-13.873z"/><path d="m407.12 477.373a25.873 25.873 0 1 0 -25.9-25.873 25.917 25.917 0 0 0 25.9 25.873zm0-39.746a13.873 13.873 0 1 1 -13.9 13.873 13.9 13.9 0 0 1 13.9-13.873z"/><path d="m48 78.749a6 6 0 0 0 -6 6v6.2a6 6 0 0 0 12 0v-6.2a6 6 0 0 0 -6-6z"/><path d="m48 103.679a6 6 0 0 0 -6 6v150.527a6 6 0 0 0 12 0v-150.527a6 6 0 0 0 -6-6z"/><path d="m319.469 259h-.176l-.709-177.619a16.615 16.615 0 0 0 -33.229.132l.708 177.487h-1.677a23.5 23.5 0 0 0 0 47h.577l.287 39.394a16.616 16.616 0 0 0 28.4 11.587 16.458 16.458 0 0 0 4.825-11.791l-.282-39.19h1.276a23.5 23.5 0 0 0 0-47zm-20.775-180.793a4.618 4.618 0 0 1 7.89 3.221l.709 177.572h-9.23l-.708-177.535a4.562 4.562 0 0 1 1.339-3.258zm6.45 270.317a4.621 4.621 0 0 1 -7.894-3.208l-.287-39.316h9.23l.286 39.268a4.547 4.547 0 0 1 -1.335 3.256zm14.325-54.524h-35.083a11.5 11.5 0 0 1 0-23h35.083a11.5 11.5 0 0 1 0 23z"/><path d="m227.614 131h-.222l-.582-49.627a16.719 16.719 0 0 0 -16.61-16.464 16.47 16.47 0 0 0 -11.822 4.906 16.715 16.715 0 0 0 -4.791 11.963l.574 49.222h-1.63a23.5 23.5 0 0 0 0 47h.546l.359 167.451a16.595 16.595 0 0 0 28.381 11.584 16.209 16.209 0 0 0 4.849-11.635l-.359-167.4h1.307a23.5 23.5 0 0 0 0-47zm-20.705-52.72a4.622 4.622 0 0 1 3.288-1.4 4.717 4.717 0 0 1 4.614 4.652l.58 49.47h-9.229l-.579-49.378a4.7 4.7 0 0 1 1.326-3.344zm6.415 270.312a4.564 4.564 0 0 1 -3.274 1.322 4.514 4.514 0 0 1 -4.614-4.471l-.359-167.443h9.23l.359 167.408a4.412 4.412 0 0 1 -1.342 3.184zm14.29-182.592h-35.083a11.5 11.5 0 0 1 0-23h35.083a11.5 11.5 0 0 1 0 23z"/><path d="m135.759 212h-.183l-.688-130.824a16.587 16.587 0 0 0 -28.4-11.476 16.114 16.114 0 0 0 -4.83 11.628l.687 130.672h-1.669a23.5 23.5 0 0 0 0 47h.557l.332 86.17a16.711 16.711 0 0 0 16.616 16.63 16.472 16.472 0 0 0 11.775-4.845 16.826 16.826 0 0 0 4.839-11.919l-.332-86.036h1.3a23.5 23.5 0 0 0 0-47zm-20.759-133.882a4.551 4.551 0 0 1 3.278-1.316 4.483 4.483 0 0 1 4.615 4.415l.682 130.783h-9.229l-.688-130.712a4.352 4.352 0 0 1 1.342-3.17zm6.461 270.319a4.635 4.635 0 0 1 -3.276 1.4 4.745 4.745 0 0 1 -4.615-4.733l-.337-86.104h9.23l.332 86.1a4.757 4.757 0 0 1 -1.339 3.337zm14.298-101.437h-35.083a11.5 11.5 0 0 1 0-23h35.083a11.5 11.5 0 0 1 0 23z"/><path d="m411.324 154h-.2l-.632-72.734a16.612 16.612 0 0 0 -28.419-11.51 16.406 16.406 0 0 0 -4.81 11.793l.627 72.451h-1.649a23.5 23.5 0 0 0 0 47h.549l.354 144.3a16.615 16.615 0 1 0 33.229-.08l-.353-144.22h1.3a23.5 23.5 0 0 0 0-47zm-20.732-75.8a4.624 4.624 0 0 1 7.9 3.169l.628 72.631h-9.229l-.631-72.55a4.519 4.519 0 0 1 1.332-3.25zm6.439 270.316a4.614 4.614 0 0 1 -7.887-3.247l-.354-144.269h9.23l.353 144.248a4.587 4.587 0 0 1 -1.342 3.264zm14.293-159.516h-35.083a11.5 11.5 0 0 1 0-23h35.083a11.5 11.5 0 0 1 0 23z"/></g></svg>