<svg id="Layer_1" height="512" viewBox="0 0 512 512" width="512" xmlns="http://www.w3.org/2000/svg" data-name="Layer 1"><path d="m271.052 262.655a189.619 189.619 0 0 1 -46.1-18.123l.044.278-.085-.28c-.41-.22-.957-.44-1.368-.66l-14.543-7.9-75 2.06-15.45 7.82-1.965 1.03a205.28 205.28 0 0 1 -44.347 15.77 72.028 72.028 0 0 0 -55.238 70.03v113.32h298l1.285-150.14a72.51 72.51 0 0 0 -45.233-33.205z" fill="#c79a83"/><path d="m134 238.03-15.45 7.82-1.965 1.03a205.28 205.28 0 0 1 -44.347 15.77 72.028 72.028 0 0 0 -55.238 70.03v113.32h30v-113.32a72.028 72.028 0 0 1 55.238-70.03 205.28 205.28 0 0 0 44.347-15.77l1.965-1.03 15.45-7.82z" fill="#ad8674"/><path d="m238.28 54.21 3.79 9.5a108.3 108.3 0 0 1 .22 79.64 11.618 11.618 0 0 0 -3.36-.49h-3.14v-21.03c0-9.52-2.69-17.05-7.35-23.23s-11.29-11.04-19.18-15.19c-3.57 14.02-19.78 19.13-39.23 19.13-17.93 0-33.11-3.52-38.17-15.91l-.08-.2c-13.01 8.94-21.54 18.44-21.54 35.4v21.03h-3.14a11.786 11.786 0 0 0 -4.87 1.05l-3.82-9.6a82.335 82.335 0 0 1 0-61l.59-1.5a12.879 12.879 0 0 1 11.97-8.1 15.5 15.5 0 0 0 15.52-15.48 15.5 15.5 0 0 1 11.96-15.08 14.65 14.65 0 0 1 5.2-.2c11.14 1.39 75.85 8.95 98.42-.21v7.9a26.092 26.092 0 0 1 -3.79 13.57z" fill="#797e89"/><path d="m266.24 322.93-30.19 41.61 19.68 19.34-44.38 61.96.4-155.67h.02z" fill="#c2684f"/><path d="m223.46 243.87c.41.22.81.44 1.22.66l-.15.28v4.35a52.927 52.927 0 0 1 -90.31 37.33c-.91-.91-1.79-1.85-2.63-2.82a52.51 52.51 0 0 1 -12.87-34.51v-3.31l15.62-7.82v21.67a49.027 49.027 0 0 0 74.72 0v-23.73z" fill="#5fa8ed"/><path d="m211.77 283.55-.02 6.62-.4 155.67h-79.45l-.3-155.55-.01-6.62c.84.97 1.72 1.91 2.63 2.82a52.987 52.987 0 0 0 77.55-2.94z" fill="#9ac5a1"/><path d="m131.6 290.29.3 155.55-44.38-61.96 20.61-19.34-31.12-40.69 54.58-33.56z" fill="#c2684f"/><path d="m208.7 224.88-74.7-2.05v36.87a49.33 49.33 0 0 0 75 0v-34.6z" fill="#efc597"/><path d="m316.12 295.85a100.96 100.96 0 0 1 60.76-20.23c56.08 0 101.55 45.59 101.55 101.82a101.547 101.547 0 0 1 -202.98 4.97c-.08-1.65-.12-3.3-.12-4.97a101.761 101.761 0 0 1 40.79-81.59z" fill="#7790c0"/><path d="m376.88 290.24a87.2 87.2 0 1 1 -86.96 87.2 87.086 87.086 0 0 1 86.96-87.2z" fill="#a9b9d8"/><path d="m399.07 355.2a31.42 31.42 0 1 1 -44.38 0 31.524 31.524 0 0 1 44.38 0z" fill="#7790c0"/><ellipse cx="435.735" cy="377.53" fill="#d67f82" rx="12.649" ry="12.686"/><ellipse cx="376.885" cy="377.44" fill="#d67f82" rx="13.795" ry="13.832"/><ellipse cx="376.975" cy="436.45" fill="#d67f82" rx="12.649" ry="12.686"/><path d="m385.74 309.47a12.668 12.668 0 1 1 -17.89 0 12.711 12.711 0 0 1 17.89 0z" fill="#d67f82"/><path d="m134.34 222.83a62.719 62.719 0 0 1 -24.1-49.36v-7.12h-3.14a11.745 11.745 0 1 1 0-23.49h3.14v-21.03c0-16.96 8.53-26.46 21.54-35.4l.08.2c5.06 12.39 20.24 15.91 38.17 15.91 19.45 0 35.66-5.11 39.23-19.13 7.89 4.15 14.52 9 19.18 15.19s7.35 13.71 7.35 23.23v21.03h3.14a11.618 11.618 0 0 1 3.36.49 11.743 11.743 0 0 1 -3.36 23h-3.14v7.12a62.812 62.812 0 0 1 -101.45 49.36z" fill="#ffd8b7"/><path d="m309.92 377.44a87.121 87.121 0 0 1 76.96-86.623 87.2 87.2 0 1 0 0 173.246 87.121 87.121 0 0 1 -76.96-86.623z" fill="#91a3c1"/><ellipse cx="318.025" cy="377.35" fill="#d67f82" rx="12.649" ry="12.686"/><g fill="#284268"><path d="m45 325.309a6 6 0 0 0 -6 6v5.8a6 6 0 0 0 12 0v-5.8a6 6 0 0 0 -6-6z"/><path d="m45 348.632a6 6 0 0 0 -6 6v70.076a6 6 0 0 0 12 0v-70.076a6 6 0 0 0 -6-6z"/><path d="m495 426.593a28.394 28.394 0 0 0 -28.443 28.373 17.042 17.042 0 0 1 -17.103 17.034h-20.942a107.946 107.946 0 0 0 55.917-94.557c0-59.452-48.246-107.819-107.548-107.819a106.724 106.724 0 0 0 -59.141 17.812 78.621 78.621 0 0 0 -45.373-30.622 186.761 186.761 0 0 1 -46.056-18.208l-11.311-6.186v-4.678c16-12.568 27-32.216 27-54.274v-1.346a18.111 18.111 0 0 0 14.807-17.522 17.751 17.751 0 0 0 -7.049-14.085 113.772 113.772 0 0 0 -2.092-79.027l-2.8-6.913a31.916 31.916 0 0 0 3.134-13.934v-7.9a5.955 5.955 0 0 0 -8.207-5.559c-16.32 6.618-61.593 4.039-95.411-.182a20.733 20.733 0 0 0 -7.307.31 21.4 21.4 0 0 0 -16.591 20.921 9.513 9.513 0 0 1 -9.518 9.487 18.781 18.781 0 0 0 -17.538 11.873l-.6 1.5a88.007 88.007 0 0 0 0 65.446l2.069 5.189a17.787 17.787 0 0 0 -5.689 12.874 18.1 18.1 0 0 0 14.792 17.522v1.346c0 20.84 10 39.527 24 52.128v8.733l-14.185 7.191a197.035 197.035 0 0 1 -43.015 15.294 77.695 77.695 0 0 0 -59.8 75.868v113.161a6.136 6.136 0 0 0 6 6.157h282.265a107.308 107.308 0 0 0 94.076 32h56.113a29.056 29.056 0 0 0 29.1-29.034 16.436 16.436 0 0 1 16.446-16.438 5.968 5.968 0 1 0 0-11.935zm-391.021-351.061.6-1.5a6.843 6.843 0 0 1 6.392-4.322 21.527 21.527 0 0 0 21.519-21.487 9.45 9.45 0 0 1 7.328-9.236 8.858 8.858 0 0 1 3.082-.087c16.081 2.009 66.254 7.509 93.164 1.818a20.24 20.24 0 0 1 -20.242 20.11 6 6 0 0 0 0 12 32.128 32.128 0 0 0 20.487-7.352l.284.457a100.8 100.8 0 0 1 5.4 57.906v-2.009c0-25.154-17.074-37-29.84-43.727a6.109 6.109 0 0 0 -5.285-.174 6.031 6.031 0 0 0 -3.4 4c-3.241 12.713-22.341 14.611-33.431 14.611-18.577 0-29.248-3.976-32.607-12.153l-.07-.169a6 6 0 0 0 -3.831-3.532 6.264 6.264 0 0 0 -5.267.794c-12.537 8.62-24.262 19.474-24.262 40.35v10.908l-.14-.648a76.065 76.065 0 0 1 .119-56.558zm12.021 97.936v-7.116c0-3.314-2.45-6.352-5.763-6.352h-3.137a5.506 5.506 0 1 1 0-11h3.139a5.927 5.927 0 0 0 5.761-6.143v-21.027c0-12.227 5.257-19.759 13.862-26.632 10.585 13.341 32.347 13.343 40.109 13.343 25.305 0 37.071-7.919 42.237-16.541 12.309 7.869 17.792 17.051 17.792 29.83v21.027a5.952 5.952 0 0 0 5.8 6.143h3.139a5.506 5.506 0 1 1 0 11h-3.139c-3.314 0-5.795 3.038-5.795 6.352v7.116c0 31.237-25.692 56.651-57 56.651s-57.005-25.414-57.005-56.651zm87 61.742v22.209a43.365 43.365 0 0 1 -63 0v-23.559a69.816 69.816 0 0 0 32.818 8.259 68.8 68.8 0 0 0 30.182-6.909zm-75 12.541v11.954a6.178 6.178 0 0 0 1.595 3.884 55.144 55.144 0 0 0 83.967 0 6.015 6.015 0 0 0 1.438-3.884v-13.6l4 1.9v1.148c0 25.8-21.275 46.8-47.138 46.8-25.729 0-46.963-20.778-47.179-46.4zm-52 192.249v-57.485a6 6 0 0 0 -12 0v57.485h-41v-107.318a65.808 65.808 0 0 1 50.678-64.2 216.073 216.073 0 0 0 39.361-13.238 58.441 58.441 0 0 0 12.554 30.529v1.155l-51.724 31.808a6 6 0 0 0 -1.624 8.756l27.822 36.387-16.649 15.629a6.105 6.105 0 0 0 -.772 7.947l37.576 52.545zm19.462-55.339 16.772-15.744a6 6 0 0 0 .66-8.019l-27.082-35.419 39.81-24.479.241 126.11zm109.907 55.339h-67.481l-.274-142.807a59.006 59.006 0 0 0 68.122-.049zm12.358-139.247 39.817 23.947-26.351 36.32a6 6 0 0 0 .651 7.8l16.017 15.741-30.461 42.532zm49.273 81.762v57.485h-43.969l37.576-52.545a6.054 6.054 0 0 0 -.672-7.812l-16-15.739 27.165-37.446a6.006 6.006 0 0 0 -1.765-8.672l-51.57-31.012v-1.131a58.428 58.428 0 0 0 12.535-31.479 191.594 191.594 0 0 0 39.274 14.321 66.551 66.551 0 0 1 38.543 26.122 107.745 107.745 0 0 0 -38.786 82.836v.327a5.983 5.983 0 0 0 -2.331 4.745zm12 57.485v-17.9a107.963 107.963 0 0 0 10.335 17.9zm97.881 33.262c-52.685 0-95.548-42.985-95.548-95.819s42.863-95.819 95.548-95.819 95.548 42.984 95.548 95.819-42.863 95.819-95.548 95.819z"/><path d="m376.881 357.612a19.645 19.645 0 0 0 -14 5.813 19.882 19.882 0 0 0 0 28.034 19.766 19.766 0 0 0 28 0 19.883 19.883 0 0 0 0-28.034 19.642 19.642 0 0 0 -14-5.813zm5.506 25.374a7.768 7.768 0 0 1 -11.012 0 7.862 7.862 0 0 1 0-11.086 7.77 7.77 0 0 1 11.011 0 7.861 7.861 0 0 1 .001 11.086z"/><path d="m376.972 417.764a18.508 18.508 0 0 0 -13.194 5.478 18.732 18.732 0 0 0 0 26.413 18.628 18.628 0 0 0 26.389 0 18.734 18.734 0 0 0 0-26.414 18.509 18.509 0 0 0 -13.195-5.477zm4.7 23.418a6.627 6.627 0 0 1 -9.395 0 6.712 6.712 0 0 1 0-9.465 6.628 6.628 0 0 1 9.395 0 6.713 6.713 0 0 1 -.003 9.465z"/><path d="m448.93 364.327a18.626 18.626 0 0 0 -26.388 0 18.733 18.733 0 0 0 0 26.413 18.628 18.628 0 0 0 26.388 0 18.734 18.734 0 0 0 0-26.413zm-8.5 17.939a6.629 6.629 0 0 1 -9.4 0 6.715 6.715 0 0 1 0-9.466 6.629 6.629 0 0 1 9.4 0 6.714 6.714 0 0 1 .003 9.466z"/><path d="m376.791 337.122a18.513 18.513 0 0 0 13.194-5.478 18.734 18.734 0 0 0 0-26.414 18.626 18.626 0 0 0 -26.388 0 18.733 18.733 0 0 0 0 26.413 18.51 18.51 0 0 0 13.194 5.479zm-4.7-23.418a6.625 6.625 0 0 1 9.394 0 6.713 6.713 0 0 1 0 9.465 6.626 6.626 0 0 1 -9.395 0 6.713 6.713 0 0 1 .004-9.469z"/><path d="m318.027 358.667a18.511 18.511 0 0 0 -13.194 5.478 18.734 18.734 0 0 0 0 26.414 18.629 18.629 0 0 0 26.389 0 18.733 18.733 0 0 0 0-26.413 18.508 18.508 0 0 0 -13.195-5.479zm4.7 23.418a6.628 6.628 0 0 1 -9.4 0 6.712 6.712 0 0 1 0-9.465 6.629 6.629 0 0 1 9.4 0 6.715 6.715 0 0 1 -.001 9.465z"/><path d="m376.881 339.981a37.091 37.091 0 0 0 -26.435 10.978 37.565 37.565 0 0 0 0 52.967 37.318 37.318 0 0 0 52.871 0 37.567 37.567 0 0 0 0-52.967 37.093 37.093 0 0 0 -26.436-10.978zm17.939 55.471a25.318 25.318 0 0 1 -35.878 0 25.545 25.545 0 0 1 0-36.019 25.317 25.317 0 0 1 35.877 0 25.546 25.546 0 0 1 .001 36.019z"/><path d="m376.881 284.244c-51.261 0-92.966 41.809-92.966 93.2s41.7 93.2 92.966 93.2 92.966-41.808 92.966-93.2-41.704-93.2-92.966-93.2zm0 174.4c-44.645 0-80.966-36.425-80.966-81.2s36.321-81.2 80.966-81.2 80.966 36.426 80.966 81.2-36.321 81.197-80.966 81.197z"/></g></svg>