<svg id="Layer_1" height="512" viewBox="0 0 512 512" width="512" xmlns="http://www.w3.org/2000/svg" data-name="Layer 1"><path d="m416.765 21.14a13.677 13.677 0 0 0 -9.817-4.14 13.987 13.987 0 0 0 -13.948 14.13v212.87h28v-212.87a14.205 14.205 0 0 0 -4.235-9.99z" fill="#8ea3ca"/><path d="m426.31 244h-340.51a17.659 17.659 0 0 0 -12.452 5.205 17.415 17.415 0 0 0 12.342 29.795h340.62a17.328 17.328 0 0 0 12.4-5.01 17.572 17.572 0 0 0 -12.4-29.99z" fill="#f3ce7d"/><path d="m392.57 51.49v94.23l-44.71 15.42a281.713 281.713 0 0 1 -183.72 0l-44.71-15.42v-94.23l44.71 15.43a281.713 281.713 0 0 0 183.72 0z" fill="#f3ce7d"/><path d="m115.085 27a14.1 14.1 0 0 0 -24.085 9.99v207.01h28v-207.01a13.934 13.934 0 0 0 -3.915-9.99z" fill="#8ea3ca"/><path d="m391.055 470.025-236.055-190.025v-1h-45l263.4 212.862a14.042 14.042 0 1 0 17.658-21.837z" fill="#9b7e79"/><path d="m357 279-236.09 190.827a14.092 14.092 0 1 0 17.725 21.909l263.515-212.736z" fill="#d5ba9e"/><path d="m285.11 121.82-14.56 14.27 3.49 19.97-18.04-9.51-18.04 9.51 3.49-19.97-14.56-14.27 19.93-3.17 9.18-18.38 9.18 18.38z" fill="#eb7288"/><path d="m98.176 261.537a17.3 17.3 0 0 1 5.167-12.332 17.659 17.659 0 0 1 12.457-5.205h-30a17.659 17.659 0 0 0 -12.452 5.205 17.415 17.415 0 0 0 12.342 29.795h30a17.442 17.442 0 0 1 -17.514-17.463z" fill="#d8b571"/><path d="m119.43 51.49v94.23l30 10.347v-94.224z" fill="#d8b571"/><g fill="#284268"><path d="m234.993 138.165-2.939 16.863a6 6 0 0 0 8.709 6.337l15.237-8.033 15.237 8.033a6 6 0 0 0 8.709-6.337l-2.939-16.863 12.3-12.057a6 6 0 0 0 -3.258-10.211l-16.885-2.685-7.8-15.623a6 6 0 0 0 -10.738 0l-7.8 15.623-16.877 2.688a6 6 0 0 0 -3.258 10.211zm12.774-13.586a6 6 0 0 0 4.426-3.246l3.807-7.633 3.807 7.629a6 6 0 0 0 4.426 3.246l8.167 1.3-6.045 5.926a6 6 0 0 0 -1.711 5.315l1.382 7.934-7.228-3.811a5.995 5.995 0 0 0 -5.6 0l-7.228 3.811 1.382-7.934a6 6 0 0 0 -1.711-5.315l-6.045-5.926z"/><path d="m71 52.453a6 6 0 0 0 6-6v-6.2a6 6 0 1 0 -12 0v6.2a6 6 0 0 0 6 6z"/><path d="m71 171.706a6 6 0 0 0 6-6v-100.527a6 6 0 0 0 -12 0v100.527a6 6 0 0 0 6 6z"/><path d="m85.686 285h21.726l116.542 94.035-106.776 86.154a20.178 20.178 0 0 0 -3.047 28.3 19.971 19.971 0 0 0 13.511 7.393 20.441 20.441 0 0 0 2.191.118 19.941 19.941 0 0 0 12.579-4.459l113.588-91.649 113.588 91.651a19.943 19.943 0 0 0 12.579 4.457 20.455 20.455 0 0 0 2.191-.118 19.968 19.968 0 0 0 13.511-7.394 20.176 20.176 0 0 0 -3.047-28.3l-106.776-86.153 116.542-94.035h21.726a23.555 23.555 0 0 0 23.64-23.436 23.21 23.21 0 0 0 -22.954-23.423v-207.007a20 20 0 1 0 -40 0v16.082l-40.885 14.03a277.9 277.9 0 0 1 -180.123 0l-40.992-14.03v-10.224a20 20 0 1 0 -40 0v201.149a23.21 23.21 0 0 0 -22.954 23.423 23.555 23.555 0 0 0 23.64 23.436zm40.835 0h25.873l94.051 75.887-12.936 10.439zm44.982 0h168.997l-84.5 68.178zm215.784 189.528a8.159 8.159 0 0 1 1.229 11.444 8.09 8.09 0 0 1 -11.392 1.232l-111.569-90.022 12.936-10.438zm-252.411 12.672a8.09 8.09 0 0 1 -11.392-1.232 8.159 8.159 0 0 1 1.229-11.444l234.893-189.524h25.873zm264.124-456.066a8 8 0 1 1 16 0v206.866h-16zm-274 28.775 36.972 12.68a288.558 288.558 0 0 0 93.922 15.652 289.51 289.51 0 0 0 94.081-15.652l37.025-12.68v81.53l-40.885 14.03a277.9 277.9 0 0 1 -180.123 0l-40.992-14.03zm0 94.224 36.972 12.68a288.558 288.558 0 0 0 93.922 15.652 289.51 289.51 0 0 0 94.081-15.652l37.025-12.68v83.867h-262zm-28-117.141a8 8 0 1 1 16 0v201.008h-16zm-11.314 213.008h340.628a11.5 11.5 0 1 1 0 23h-340.628a11.5 11.5 0 1 1 0-23z"/></g></svg>