<svg id="Layer_1" height="512" viewBox="0 0 512 512" width="512" xmlns="http://www.w3.org/2000/svg" data-name="Layer 1"><path d="m264.21 94h-226.01a21.162 21.162 0 0 0 -14.99 6.285 21.726 21.726 0 0 0 -6.21 15.248 21.422 21.422 0 0 0 21.2 21.467h226.01a21.346 21.346 0 0 0 15-6.425 21.6 21.6 0 0 0 6.21-15.178 21.37 21.37 0 0 0 -21.21-21.397z" fill="#f58387"/><path d="m263.13 137h-224.65l12.34 243.94a33.784 33.784 0 0 0 33.92 32.06h132.11a33.809 33.809 0 0 0 22.04-8.105l.12-.078 20.99-172.817v.03z" fill="#6b96ff"/><path d="m248.32 84.19.58 9.94h-196.2l.57-9.94a33.989 33.989 0 0 1 33.82-30.83h127.41a33.974 33.974 0 0 1 33.82 30.83z" fill="#f7afb6"/><path d="m151.21 179.89v177.48h-101.23l-.34.02-8.97-177.45 1.06-.05z" fill="#a0eaea"/><path d="m344.14 198.87c71.63 0 129.7 58.15 129.7 129.88s-58.07 129.89-129.7 129.89a129.885 129.885 0 0 1 0-259.77z" fill="#a3ba88"/><path d="m344.14 217.52a111.235 111.235 0 1 1 -111.08 111.23 111.152 111.152 0 0 1 111.08-111.23z" fill="#6993b2"/><path d="m371.11 301.74a38.177 38.177 0 1 1 -53.95 0 38.241 38.241 0 0 1 53.95 0z" fill="#a3ba88"/><ellipse cx="416.61" cy="328.87" fill="#437fb5" rx="16.162" ry="16.181"/><ellipse cx="344.255" cy="401.33" fill="#437fb5" rx="16.156" ry="16.18"/><path d="m355.45 244.74a16.172 16.172 0 1 1 -22.86 0 16.193 16.193 0 0 1 22.86 0z" fill="#437fb5"/><ellipse cx="344.135" cy="328.75" fill="#437fb5" rx="15" ry="15.017"/><path d="m80.82 380.94-12.34-243.94h-30l12.34 243.94a33.784 33.784 0 0 0 33.92 32.06h30a33.784 33.784 0 0 1 -33.92-32.06z" fill="#5c89e5"/><path d="m83.27 84.19a33.989 33.989 0 0 1 33.82-30.83h-30a33.989 33.989 0 0 0 -33.82 30.83l-.57 9.94h30z" fill="#e2a1ab"/><path d="m47 115.532a21.724 21.724 0 0 1 6.21-15.247 21.162 21.162 0 0 1 14.99-6.285h-30a21.162 21.162 0 0 0 -14.99 6.285 21.724 21.724 0 0 0 -6.21 15.247 21.422 21.422 0 0 0 21.2 21.468h30a21.422 21.422 0 0 1 -21.2-21.468z" fill="#e07981"/><path d="m71.73 179.89h-30l-1.06.05 8.97 177.45.34-.02h29.659l-8.969-177.43z" fill="#86cecc"/><path d="m263.06 328.75a111.2 111.2 0 0 1 96.079-110.217 111.235 111.235 0 1 0 0 220.444 111.2 111.2 0 0 1 -96.079-110.227z" fill="#5c859e"/><path d="m283.09 317.19a16.172 16.172 0 1 1 -22.85 0 16.205 16.205 0 0 1 22.85 0z" fill="#437fb5"/><g fill="#284268"><path d="m126 196.249a6 6 0 0 0 -6 6v6.2a6 6 0 0 0 12 0v-6.2a6 6 0 0 0 -6-6z"/><path d="m126 221.179a6 6 0 0 0 -6 6v90.527a6 6 0 0 0 12 0v-90.527a6 6 0 0 0 -6-6z"/><path d="m495 393.381a34.881 34.881 0 0 0 -34.665 34.888 23.711 23.711 0 0 1 -23.508 23.731h-35.582a136.072 136.072 0 0 0 78.59-123.247c0-74.928-60.874-135.886-135.7-135.886a134.812 134.812 0 0 0 -77.84 24.644l2.639-75.29a27.327 27.327 0 0 0 -4.723-54.221h-9.652l-.246-4.22c0-.073-.009-.293-.016-.364a39.936 39.936 0 0 0 -39.792-36.416h-127.418a39.967 39.967 0 0 0 -39.793 36.448c-.006.073-.012.169-.016.241l-.246 4.311h-8.827a27.3 27.3 0 0 0 -5.458 54.037l12.08 239a39.938 39.938 0 0 0 39.913 37.963h132.109a40.012 40.012 0 0 0 20.952-5.927 135.455 135.455 0 0 0 106.335 51.565c4.429 0 8.808-.221 13.13-.638h79.561a35.725 35.725 0 0 0 35.508-35.731 22.788 22.788 0 0 1 22.665-22.797 6.046 6.046 0 0 0 0-12.091zm-435.749-308.981a27.962 27.962 0 0 1 27.836-25.4h127.418a27.958 27.958 0 0 1 27.834 25.4l.2 3.6h-183.487zm-36.251 31.1a15.469 15.469 0 0 1 15.2-15.5h226.011a15.5 15.5 0 0 1 0 31h-226.006a15.469 15.469 0 0 1 -15.205-15.5zm32.341 235.5-8.363-165h98.022v165zm161.508 56h-132.109a28.1 28.1 0 0 1 -27.928-26.75l-.864-17.25h95.26a5.52 5.52 0 0 0 5.792-5.63v-177.482a5.731 5.731 0 0 0 -5.792-5.888h-104.836l-1.582-31h212.123l-2.964 84.315a135.779 135.779 0 0 0 -23.209 175.985 27.984 27.984 0 0 1 -13.891 3.7zm127.287 45.638c-68.207 0-123.7-55.575-123.7-123.885s55.491-123.886 123.7-123.886 123.7 55.575 123.7 123.886-55.492 123.885-123.7 123.885z"/><path d="m344.136 307.734a20.845 20.845 0 0 0 -14.85 6.159 21.059 21.059 0 0 0 0 29.719 20.845 20.845 0 0 0 14.85 6.159 20.847 20.847 0 0 0 14.85-6.159 21.059 21.059 0 0 0 0-29.719 20.847 20.847 0 0 0 -14.85-6.159zm6.359 27.4a8.983 8.983 0 0 1 -12.718 0 9.043 9.043 0 0 1 0-12.761 8.982 8.982 0 0 1 12.718 0 9.042 9.042 0 0 1 .005 12.76z"/><path d="m344.252 379.146a22.182 22.182 0 1 0 15.671 6.5 22.006 22.006 0 0 0 -15.671-6.5zm7.18 29.385a10.143 10.143 0 0 1 -14.361 0 10.209 10.209 0 0 1 0-14.406 10.143 10.143 0 0 1 14.361 0 10.209 10.209 0 0 1 0 14.406z"/><path d="m432.282 313.187a22.182 22.182 0 1 0 0 31.364 22.006 22.006 0 0 0 0-31.365zm-8.491 22.884a10.143 10.143 0 0 1 -14.361 0 10.207 10.207 0 0 1 0-14.405 10.141 10.141 0 0 1 14.36 0 10.209 10.209 0 0 1 .001 14.405z"/><path d="m344.021 278.36a22 22 0 0 0 15.671-6.5 22.226 22.226 0 0 0 0-31.365 22.141 22.141 0 0 0 -31.343 0 22.182 22.182 0 0 0 15.672 37.864zm-7.181-29.385a10.141 10.141 0 0 1 14.361 0 10.207 10.207 0 0 1 0 14.405 10.141 10.141 0 0 1 -14.36 0 10.209 10.209 0 0 1 -.001-14.405z"/><path d="m271.663 306.455a22 22 0 0 0 -15.672 6.5 22.225 22.225 0 0 0 0 31.364 22.142 22.142 0 0 0 31.343 0 22.227 22.227 0 0 0 0-31.364 22 22 0 0 0 -15.671-6.5zm7.18 29.385a10.143 10.143 0 0 1 -14.361 0 10.207 10.207 0 0 1 0-14.4 10.141 10.141 0 0 1 14.361 0 10.207 10.207 0 0 1 0 14.4z"/><path d="m344.137 284.547a43.835 43.835 0 0 0 -31.223 12.953 44.3 44.3 0 0 0 0 62.51 44.113 44.113 0 0 0 62.444 0 44.3 44.3 0 0 0 0-62.51 43.833 43.833 0 0 0 -31.221-12.953zm22.73 66.981a32.112 32.112 0 0 1 -45.462 0 32.278 32.278 0 0 1 0-45.55 32.109 32.109 0 0 1 45.462 0 32.278 32.278 0 0 1 0 45.55z"/><path d="m344.136 211.518c-64.555 0-117.075 52.591-117.075 117.235s52.52 117.235 117.075 117.235 117.075-52.588 117.075-117.235-52.519-117.235-117.075-117.235zm0 222.47c-57.938 0-105.075-47.208-105.075-105.235s47.139-105.235 105.075-105.235 105.075 47.208 105.075 105.235-47.136 105.235-105.075 105.235z"/></g></svg>