<svg id="Layer_1" height="512" viewBox="0 0 512 512" width="512" xmlns="http://www.w3.org/2000/svg" data-name="Layer 1"><path d="m17 110h478v291h-478z" fill="#a4bdc1"/><path d="m256 169.47c47.14 0 85.35 38.37 85.35 85.7s-38.21 85.7-85.35 85.7-85.35-38.37-85.35-85.7 38.21-85.7 85.35-85.7z" fill="#6addc7"/><path d="m289.97 255.17-50.87 33.94v-67.88z" fill="#eb7288"/><path d="m495 401.04v41.35a40 40 0 0 1 -40 40h-55.6v-81.35z" fill="#75967a"/><path d="m455 30h-56v80h96v-40.39a39.671 39.671 0 0 0 -40-39.61z" fill="#75967a"/><path d="m303.8 401.04h95.6v81.35h-95.6z" fill="#9ac5a1"/><path d="m304 30v80h95v-79.62-.38z" fill="#9ac5a1"/><path d="m208.2 401.04h95.6v81.35h-95.6z" fill="#75967a"/><path d="m208 30v80h96v-79.62-.38z" fill="#75967a"/><path d="m112.6 401.04h95.6v81.35h-95.6z" fill="#9ac5a1"/><path d="m208.2 30.38v79.69h-95.6v-79.69-.77h95.6z" fill="#9ac5a1"/><path d="m112.6 401.04v81.35h-55.6a40 40 0 0 1 -40-40v-41.35z" fill="#75967a"/><path d="m57 30a39.671 39.671 0 0 0 -40 39.61v40.39h96v-80z" fill="#75967a"/><path d="m17 110h30v291h-30z" fill="#8ea3a5"/><path d="m200.65 255.17a85.607 85.607 0 0 1 70.35-84.354 85.425 85.425 0 0 0 -15-1.346c-47.14 0-85.35 38.37-85.35 85.7s38.21 85.7 85.35 85.7a85.521 85.521 0 0 0 15-1.346 85.607 85.607 0 0 1 -70.35-84.354z" fill="#5cbfac"/><path d="m47 442.39v-41.35h-30v41.35a40 40 0 0 0 40 40h30a40 40 0 0 1 -40-40z" fill="#657f68"/><path d="m87 30h-30a39.671 39.671 0 0 0 -40 39.61v40.39h30v-40.39a39.671 39.671 0 0 1 40-39.61z" fill="#657f68"/><g fill="#284268"><path d="m455 24h-398a46 46 0 0 0 -46 46v373a46 46 0 0 0 46 46h398a46 46 0 0 0 46-46v-373a46 46 0 0 0 -46-46zm-145 12h83v68h-83zm-96 0h84v68h-84zm-95 0h83v68h-83zm-96 33.613a33.71 33.71 0 0 1 34-33.613h50v68h-84zm84 406.387h-50a33.71 33.71 0 0 1 -34-33.613v-35.387h84zm95 0h-83v-69h83zm96 0h-84v-69h84zm95 0h-83v-69h83zm96-33.613a33.71 33.71 0 0 1 -34 33.613h-50v-69h84zm0-47.387h-466v-279h466zm0-291h-84v-68h50a33.71 33.71 0 0 1 34 33.613z"/><path d="m42 151.453a6 6 0 0 0 6-6v-6.2a6 6 0 0 0 -12 0v6.2a6 6 0 0 0 6 6z"/><path d="m42 270.706a6 6 0 0 0 6-6v-100.527a6 6 0 0 0 -12 0v100.527a6 6 0 0 0 6 6z"/><path d="m256 346.873c50.37 0 91.349-41.138 91.349-91.7s-40.979-91.7-91.349-91.7-91.349 41.138-91.349 91.7 40.979 91.7 91.349 91.7zm0-171.407c43.753 0 79.349 35.755 79.349 79.7s-35.6 79.7-79.349 79.7-79.349-35.755-79.349-79.7 35.596-79.7 79.349-79.7z"/><path d="m236.221 294.4a6.072 6.072 0 0 0 6.2-.3l50.872-33.937a6 6 0 0 0 .007-9.983l-50.866-33.937a6.076 6.076 0 0 0 -9.434 4.989v67.874a6.049 6.049 0 0 0 3.221 5.294zm8.779-61.952 34.056 22.721-34.056 22.722z"/></g></svg>