<svg id="Layer_1" height="512" viewBox="0 0 512 512" width="512" xmlns="http://www.w3.org/2000/svg" data-name="Layer 1"><path d="m327.3 106h-115.43a9.847 9.847 0 0 1 -7.42-3.075l-27.38-29.893a40.125 40.125 0 0 0 -29.67-13.032h-90.2a40.281 40.281 0 0 0 -40.2 40.3v263.43a40.249 40.249 0 0 0 40.2 40.27h4.23c22.21 0 49.96-18.025 49.96-40.235l255.61-168.975v-48.19c0-22.21-17.5-40.6-39.7-40.6z" fill="#7394dd"/><path d="m376.6 155h-234.76a39.711 39.711 0 0 0 -39.84 39.99v168.74c0 22.21-18.36 40.27-40.57 40.27h186.79l168.78-119.59v-89.42a40.189 40.189 0 0 0 -40.4-39.99z" fill="#5f7dd1"/><path d="m482.93 264h-242.72a12.54 12.54 0 0 0 -12.21 12.41v145.59h267v-145.59c0-6.63-5.44-12.41-12.07-12.41z" fill="#f2cd7d"/><path d="m229.22 422h-1.22v17.91a12.268 12.268 0 0 0 12.21 12.09h242.72a12.14 12.14 0 0 0 12.07-12.09v-17.91z" fill="#eb7288"/><path d="m361.61 289.5a53.445 53.445 0 1 1 -53.56 53.45 53.505 53.505 0 0 1 53.56-53.45z" fill="#95c9ab"/><path d="m382.92 342.95-31.92 21.16v-42.33z" fill="#eb7288"/><path d="m433.71 405.83a16.075 16.075 0 1 1 -16.09 16.07 16.087 16.087 0 0 1 16.09-16.07z" fill="#797e89"/><path d="m270.21 264h-30a12.54 12.54 0 0 0 -12.21 12.41v145.59h30v-145.59a12.54 12.54 0 0 1 12.21-12.41z" fill="#dbb975"/><path d="m47 363.73v-263.43a40.281 40.281 0 0 1 40.2-40.3h-30a40.281 40.281 0 0 0 -40.2 40.3v263.43a40.249 40.249 0 0 0 40.2 40.27h4.23a49.773 49.773 0 0 0 13.376-1.961 40.3 40.3 0 0 1 -27.806-38.309z" fill="#6387c6"/><path d="m258 439.91v-17.91h-30v17.91a12.268 12.268 0 0 0 12.21 12.09h30a12.268 12.268 0 0 1 -12.21-12.09z" fill="#d36a80"/><g fill="#284268"><path d="m45 107.249a6 6 0 0 0 -6 6v6.2a6 6 0 0 0 12 0v-6.2a6 6 0 0 0 -6-6z"/><path d="m45 132.179a6 6 0 0 0 -6 6v100.527a6 6 0 1 0 12 0v-100.527a6 6 0 0 0 -6-6z"/><path d="m482.932 258h-59.932v-63.012c0-25.475-20.925-45.988-46.4-45.988h-3.6v-2.4c0-25.481-20.226-46.6-45.7-46.6h-115.435a3.864 3.864 0 0 1 -2.987-1.121l-27.378-29.893a46.254 46.254 0 0 0 -34.1-14.986h-90.2a46.335 46.335 0 0 0 -46.2 46.3v263.433a46.31 46.31 0 0 0 46.2 46.267h164.8v29.91a18.284 18.284 0 0 0 18.212 18.09h242.72a18.16 18.16 0 0 0 18.068-18.09v-163.5c0-9.925-8.146-18.41-18.068-18.41zm-421.503 140h-4.229a34.3 34.3 0 0 1 -34.2-34.267v-263.433a34.321 34.321 0 0 1 34.2-34.3h90.2a34.322 34.322 0 0 1 25.248 11.18l27.365 29.759a15.884 15.884 0 0 0 11.852 5.061h115.435c18.858 0 33.7 15.739 33.7 34.6v2.4h-219.161a45.764 45.764 0 0 0 -45.839 45.988v168.745c0 18.858-15.708 34.267-34.571 34.267zm160.571-121.593v121.593h-129.536c9.316-9 15.536-20.724 15.536-34.267v-168.745a33.75 33.75 0 0 1 33.839-33.988h234.761c18.864 0 34.4 15.13 34.4 33.988v63.012h-170.788a18.559 18.559 0 0 0 -18.212 18.407zm267 163.5a6.148 6.148 0 0 1 -6.068 6.09h-242.72a6.273 6.273 0 0 1 -6.212-6.087v-11.91h178.452a22.09 22.09 0 0 0 42.508 0h34.04zm-65.385-18.005a10.091 10.091 0 1 1 10.091 10.07 10.093 10.093 0 0 1 -10.091-10.067zm65.385-5.902h-34.04a22.09 22.09 0 0 0 -42.508 0h-178.452v-139.593a6.556 6.556 0 0 1 6.212-6.407h242.72a6.432 6.432 0 0 1 6.068 6.407z"/><path d="m361.608 283.5a59.446 59.446 0 1 0 59.558 59.446 59.568 59.568 0 0 0 -59.558-59.446zm0 106.891a47.446 47.446 0 1 1 47.558-47.445 47.555 47.555 0 0 1 -47.558 47.447z"/><path d="m386.239 337.947-31.919-21.163a6 6 0 0 0 -9.32 5v42.327a6 6 0 0 0 9.319 5l31.92-21.163a6 6 0 0 0 0-10zm-29.239 14.987v-19.973l15.062 9.987z"/></g></svg>