<svg id="Layer_1" height="512" viewBox="0 0 512 512" width="512" xmlns="http://www.w3.org/2000/svg" data-name="Layer 1"><path d="m223.73 180a65.7 65.7 0 0 1 -21.15 45.03c-1.48 1.38-3.03 2.63-4.63 3.86a65.209 65.209 0 0 1 -20.24 10.62 61.9 61.9 0 0 1 -7.47 1.905 66.154 66.154 0 0 1 -56.76-15.554 63.173 63.173 0 0 1 -6.23-6.121 66.118 66.118 0 0 1 -15.95-39.74h-74.521l35.221 258h201.14l.07.065 38.81-198.154 6.01-59.911z" fill="#ea7288"/><path d="m16.779 180 35.221 258h30l-35.221-258z" fill="#cc667c"/><path d="m33.44 301.52 9.9 73.4.12-.02 182.54-.9 10.795-75.87z" fill="#ccd3df"/><path d="m118.19 300.23a55.762 55.762 0 0 1 77.4-1.19c.06.05.11.11.17.16a56.031 56.031 0 0 1 6.23 74.61c-.04.05-.08.11-.12.16a55.892 55.892 0 1 1 -83.69-73.73z" fill="#9ebd88"/><path d="m306.62 55.6a1.715 1.715 0 0 1 1.25 2.08l-29.78 121.84h-30.77l25.16-129.28a1.73 1.73 0 0 1 2.12-1.35z" fill="#d3ac67"/><path d="m230.3 34.35v145.17h-6.57a66.237 66.237 0 0 1 -21.15 45.39c-1.48 1.38-3.03 2.69-4.63 3.92l-1.17-194.48a1.731 1.731 0 0 1 1.73-1.73h30.07a1.728 1.728 0 0 1 1.72 1.73z" fill="#e5c37f"/><path d="m166.19 33.67a1.727 1.727 0 0 0 -1.82-1.64l-30.02 1.66a1.731 1.731 0 0 0 -1.63 1.82l.63 11.42 10.64 194.32a66.71 66.71 0 0 0 26.25.15 61.942 61.942 0 0 0 7.47-1.92z" fill="#c1a395"/><path d="m133.35 47h-39.15a1.709 1.709 0 0 0 -1.72 1.9l14.84 170.563-.07.051a66.581 66.581 0 0 0 36.74 21.777z" fill="#e5c37f"/><path d="m64.07 33.49 22.37 146.03h-37.3l-18.31-141.65a1.727 1.727 0 0 1 1.49-1.94l29.81-3.93a1.725 1.725 0 0 1 1.94 1.49z" fill="#d3ac67"/><path d="m143.56 374.5a56.07 56.07 0 0 1 4.62-74.26l.01-.01a55.786 55.786 0 0 1 24.323-14.161 55.749 55.749 0 0 0 -54.323 14.161l-.01.01a55.9 55.9 0 0 0 54.325 93.626 55.9 55.9 0 0 1 -28.945-19.366z" fill="#8ba378"/><path d="m63.44 301.52h-30l9.9 73.4.12-.02 29.857-.147z" fill="#b1bbc9"/><path d="m292.02 238.67a127.084 127.084 0 1 1 -69.83 135.3 128.262 128.262 0 0 1 -1.72-20.97 126.952 126.952 0 0 1 71.55-114.33z" fill="#4689d3"/><path d="m347.38 244.21a108.785 108.785 0 1 1 -108.69 108.79 108.741 108.741 0 0 1 108.69-108.79z" fill="#d4e1f4"/><path d="m373.78 326.58a37.349 37.349 0 1 1 -52.8 0 37.4 37.4 0 0 1 52.8 0z" fill="#5fa8ed"/><ellipse cx="418.295" cy="353.11" fill="#b0b5ca" rx="15.817" ry="15.826"/><ellipse cx="347.49" cy="423.97" fill="#b0b5ca" rx="15.811" ry="15.825"/><ellipse cx="347.27" cy="282.02" fill="#b0b5ca" rx="15.811" ry="15.825"/><path d="m357.76 342.61a14.683 14.683 0 1 1 -20.76 0 14.7 14.7 0 0 1 20.76 0z" fill="#b0b5ca"/><path d="m268.69 353a108.775 108.775 0 0 1 93.69-107.754 108.785 108.785 0 1 0 0 215.5 108.771 108.771 0 0 1 -93.69-107.746z" fill="#bfcddd"/><ellipse cx="276.46" cy="352.88" fill="#b0b5ca" rx="15.811" ry="15.825"/><g fill="#284268"><path d="m76.273 198.881c-.492-1.787-.931-3.618-1.306-5.441a6 6 0 1 0 -11.754 2.416c.428 2.081.93 4.171 1.492 6.212a6 6 0 1 0 11.568-3.187z"/><path d="m121.488 259.344a6 6 0 0 0 -2.587-8.081 85.062 85.062 0 0 1 -35.547-34.8 6 6 0 1 0 -10.546 5.723 97.052 97.052 0 0 0 40.6 39.749 5.993 5.993 0 0 0 8.081-2.587z"/><path d="m495 416.045a34.093 34.093 0 0 0 -34.049 34.064 22.906 22.906 0 0 1 -22.874 22.891h-33.421c44.7-21 75.634-67.179 75.634-120.012 0-73.348-59.624-133.017-132.911-133.017a132.129 132.129 0 0 0 -48.337 9.109l4.954-48.9a5.543 5.543 0 0 0 -1.518-4.418 5.812 5.812 0 0 0 -4.452-1.762h-12.3l27.974-114.649a8.014 8.014 0 0 0 -5.582-9.567l-32.2-6.746a7.747 7.747 0 0 0 -5.868 1 8.258 8.258 0 0 0 -3.458 5.3l-24.218 124.662h-6.374v-139.646a7.168 7.168 0 0 0 -7.423-7.354h-30.071a7.586 7.586 0 0 0 -7.728 7.578l1.159 191.336a59.6 59.6 0 0 1 -8.7 5l-11.053-197.548a7.737 7.737 0 0 0 -8.141-7.317l-30.02 1.65a7.671 7.671 0 0 0 -5.335 2.564 7.755 7.755 0 0 0 -1.956 5.606l.28 5.131h-32.812a7.676 7.676 0 0 0 -7.689 8.442l12.189 140.077a61.144 61.144 0 0 1 -1.4-10.29 6 6 0 0 0 -5.7-5.693l-21.594-140.91a7.728 7.728 0 0 0 -8.657-6.576l-29.816 3.927a7.972 7.972 0 0 0 -6.654 8.9l17.433 135.123h-25.312a5.639 5.639 0 0 0 -5.946 6.441l34.873 258.532a5.852 5.852 0 0 0 5.946 5.027h198.667a132.512 132.512 0 0 0 96.839 42.007 88.192 88.192 0 0 0 16.289-1.007h74.409a34.919 34.919 0 0 0 34.874-34.891 22.082 22.082 0 0 1 22.049-22.068 6 6 0 1 0 0-12zm-217.462-360.167 23.462 5.03-27.623 113.092h-18.777zm-53.538-16.878v135h-.266a5.8 5.8 0 0 0 -5.993 5.464 59.277 59.277 0 0 1 -5.9 23.1 60.682 60.682 0 0 1 -7.971 12.517l-1.07-176.081zm-63.56-.74 11.015 196.74c-.784.186-1.571.36-2.364.514a60.561 60.561 0 0 1 -11.578 1.117 61.2 61.2 0 0 1 -7.787-.506l-10.78-196.682zm-32.772 14.74 7.674 140.21 2.2 40.03a59.963 59.963 0 0 1 -20.078-11.864c-1.521-1.355-2.963-2.742-4.325-4.219l-14.278-164.157zm-90.343-11.442 21.44-2.7 20.681 135.142h-25.034zm-13.462 144.442h61.948a72.261 72.261 0 0 0 120.844 43.329 70.845 70.845 0 0 0 16-21.426 76.324 76.324 0 0 0 6.572-21.9h62.163l-4.975 48.815a133.884 133.884 0 0 0 -57.241 57.406l-31.35.774a61.71 61.71 0 0 0 -82.059 1.273l-77.081 1.415zm184.493 118.745 15.309-.381a131.882 131.882 0 0 0 -6.2 20.514 62.469 62.469 0 0 0 -9.109-20.133zm6.962 63.255h-2.626c.8-1.636 1.5-3.28 2.155-4.929.125 1.653.287 3.294.471 4.929zm-7.959-28.037a49.917 49.917 0 1 1 -15.859-36.535 50.154 50.154 0 0 1 15.859 36.535zm-167.059-32.543 65.208-.994a62.155 62.155 0 0 0 -2.872 62.142l-54.052.306zm16.818 124.58-6.918-51.246 60.57-.287a61.736 61.736 0 0 0 93.957-.467h12.5a132.473 132.473 0 0 0 23.3 52zm290.261 42.017c-66.671 0-120.911-54.29-120.911-121.021s54.24-121.021 120.911-121.021 120.911 54.29 120.911 121.025-54.24 121.017-120.911 121.017z"/><path d="m362 338.369a20.688 20.688 0 1 0 0 29.253 20.534 20.534 0 0 0 0-29.253zm-8.488 20.771a8.668 8.668 0 0 1 -12.266 0 8.705 8.705 0 0 1 0-12.289 8.668 8.668 0 0 1 12.266 0 8.707 8.707 0 0 1 0 12.289z"/><path d="m347.491 402.145a21.826 21.826 0 1 0 15.425 6.4 21.66 21.66 0 0 0 -15.425-6.4zm6.937 28.774a9.8 9.8 0 0 1 -13.872 0 9.845 9.845 0 0 1 0-13.9 9.8 9.8 0 0 1 13.872 0 9.845 9.845 0 0 1 0 13.9z"/><path d="m433.72 337.678a21.825 21.825 0 1 0 0 30.862 21.662 21.662 0 0 0 0-30.862zm-8.489 22.38a9.8 9.8 0 0 1 -13.873 0 9.845 9.845 0 0 1 0-13.9 9.8 9.8 0 0 1 13.873 0 9.843 9.843 0 0 1 0 13.9z"/><path d="m347.267 303.847a21.826 21.826 0 1 0 -15.425-6.395 21.656 21.656 0 0 0 15.425 6.395zm-6.937-28.775a9.8 9.8 0 0 1 13.872 0 9.846 9.846 0 0 1 0 13.9 9.8 9.8 0 0 1 -13.872 0 9.846 9.846 0 0 1 0-13.9z"/><path d="m276.463 331.058a21.825 21.825 0 1 0 15.425 6.394 21.662 21.662 0 0 0 -15.425-6.394zm6.936 28.774a9.8 9.8 0 0 1 -13.873 0 9.845 9.845 0 0 1 0-13.9 9.8 9.8 0 0 1 13.873 0 9.843 9.843 0 0 1 .001 13.9z"/><path d="m347.379 309.633a43.363 43.363 0 1 0 30.641 12.7 43.031 43.031 0 0 0 -30.641-12.7zm22.152 65.541a31.308 31.308 0 0 1 -44.3 0 31.346 31.346 0 1 1 44.3 0z"/><path d="m347.379 238.214c-63.239 0-114.688 51.491-114.688 114.782s51.449 114.781 114.688 114.781 114.687-51.49 114.687-114.777-51.448-114.786-114.687-114.786zm0 217.563a102.782 102.782 0 1 1 102.687-102.777 102.851 102.851 0 0 1 -102.687 102.777z"/></g></svg>