<svg id="Layer_1" height="512" viewBox="0 0 512 512" width="512" xmlns="http://www.w3.org/2000/svg" data-name="Layer 1"><path d="m465 403.77v-250.85a30.79 30.79 0 0 0 -30.66-30.92h-356.68a30.79 30.79 0 0 0 -30.66 30.92v250.85l-.051 1.17c.25-.01.451.06.7.06h416.7c.25 0 .451-.07.7-.06z" fill="#85888e"/><path d="m87 162v242.2.8h112.9l12.31 18h87.57l12.31-18h112.91v-.8-242.2z" fill="#f2c787"/><path d="m117 162h-30v242.2.8h30v-.8z" fill="#d8b07c"/><path d="m465.11 404.94-153.02.06-12.31 18h-87.57l-12.31-18-153.01-.06a30.534 30.534 0 0 0 .76 61.06h416.7a30.534 30.534 0 0 0 .76-61.06z" fill="#6d7486"/><path d="m372.48 122.12a141.524 141.524 0 0 1 13.96 40.45 143.808 143.808 0 0 1 2.33 25.84c0 78.76-63.73 142.61-142.33 142.61s-142.33-63.85-142.33-142.61a143.482 143.482 0 0 1 2.34-25.9 142.28 142.28 0 0 1 266.03-40.39z" fill="#80aaff"/><path d="m246.44 66.28c67.32 0 121.89 54.68 121.89 122.13s-54.57 122.13-121.89 122.13-121.89-54.68-121.89-122.13 54.57-122.13 121.89-122.13z" fill="#758ebd"/><path d="m277.54 157.25a44.024 44.024 0 1 1 -62.2 0 44.138 44.138 0 0 1 62.2 0z" fill="#80aaff"/><path d="m341.47 175.97a17.752 17.752 0 1 1 -25.08 0 17.8 17.8 0 0 1 25.08 0z" fill="#5ec3ef"/><ellipse cx="246.44" cy="188.41" fill="#5ec3ef" rx="19.333" ry="19.374"/><ellipse cx="246.565" cy="271.055" fill="#5ec3ef" rx="17.728" ry="17.769"/><ellipse cx="246.31" cy="105.765" fill="#5ec3ef" rx="17.733" ry="17.77"/><path d="m154.55 188.41a122.063 122.063 0 0 1 106.89-121.21 122.95 122.95 0 0 0 -15-.921c-67.32 0-121.89 54.68-121.89 122.13s54.57 122.13 121.89 122.13a122.95 122.95 0 0 0 15-.921 122.063 122.063 0 0 1 -106.89-121.208z" fill="#657ea8"/><ellipse cx="163.95" cy="188.285" fill="#5ec3ef" rx="17.733" ry="17.77"/><g fill="#284268"><path d="m471 399.494v-246.578a36.831 36.831 0 0 0 -36.659-36.916h-58.409a148.119 148.119 0 0 0 -258.983 0h-39.29a36.831 36.831 0 0 0 -36.659 36.916v246.578a36.555 36.555 0 0 0 6.649 72.506h416.7a36.555 36.555 0 0 0 6.651-72.506zm-36.659-271.494a24.817 24.817 0 0 1 24.659 24.916v246.084h-28v-236.534a6.745 6.745 0 0 0 -6.377-6.466h-33.418a147.57 147.57 0 0 0 -9.255-28zm-187.9 209.01a97.841 97.841 0 0 0 17.159-1.01h84.558a38.447 38.447 0 0 0 38.381-38.434 25.512 25.512 0 0 1 25.456-25.514 6 6 0 1 0 0-11.994 37.521 37.521 0 0 0 -37.456 37.508 26.433 26.433 0 0 1 -26.385 26.434h-41.067a148.716 148.716 0 0 0 86.275-156h25.638v231h-106.913a5.922 5.922 0 0 0 -4.968 2.55l-10.519 15.45h-81.2l-10.53-15.45a5.922 5.922 0 0 0 -4.97-2.55h-106.9v-231h6.517a149.522 149.522 0 0 0 -1.406 20.408c0 81.945 66.539 148.602 148.327 148.602zm0-285.212c75.171 0 136.328 61.284 136.328 136.613s-61.16 136.612-136.331 136.612-136.327-61.284-136.327-136.612 61.157-136.611 136.327-136.611zm-193.441 101.118a24.817 24.817 0 0 1 24.659-24.916h33.271a147.6 147.6 0 0 0 -9.256 28h-14.3a6.745 6.745 0 0 0 -6.374 6.466v236.534h-28zm411.351 307.084h-416.702a24.5 24.5 0 1 1 0-49h149.071l10.524 15.45a5.924 5.924 0 0 0 4.968 2.55h87.566a5.921 5.921 0 0 0 4.968-2.55l10.524-15.45h149.081a24.5 24.5 0 1 1 0 49z"/><path d="m112 301.453a6 6 0 0 0 6-6v-6.2a6 6 0 0 0 -12 0v6.2a6 6 0 0 0 6 6z"/><path d="m112 386.706a6 6 0 0 0 6-6v-66.527a6 6 0 0 0 -12 0v66.527a6 6 0 0 0 6 6z"/><path d="m246.438 213.783a25.15 25.15 0 0 0 17.919-7.436 25.43 25.43 0 0 0 0-35.873 25.306 25.306 0 0 0 -35.836 0 25.43 25.43 0 0 0 0 35.873 25.149 25.149 0 0 0 17.917 7.436zm-9.423-34.832a13.3 13.3 0 0 1 18.848 0 13.412 13.412 0 0 1 0 18.92 13.306 13.306 0 0 1 -18.848 0 13.412 13.412 0 0 1 0-18.92z"/><path d="m246.565 247.29a23.561 23.561 0 0 0 -16.785 6.965 23.823 23.823 0 0 0 0 33.6 23.706 23.706 0 0 0 33.571 0 23.823 23.823 0 0 0 0-33.6 23.561 23.561 0 0 0 -16.786-6.965zm8.291 32.092a11.7 11.7 0 0 1 -16.582 0 11.8 11.8 0 0 1 0-16.65 11.707 11.707 0 0 1 16.582 0 11.8 11.8 0 0 1 0 16.65z"/><path d="m328.927 212.305a23.56 23.56 0 0 0 16.786-6.966 23.823 23.823 0 0 0 0-33.6 23.709 23.709 0 0 0 -33.571 0 23.823 23.823 0 0 0 0 33.6 23.558 23.558 0 0 0 16.785 6.966zm-8.291-32.093a11.708 11.708 0 0 1 16.583 0 11.805 11.805 0 0 1 0 16.651 11.708 11.708 0 0 1 -16.583 0 11.805 11.805 0 0 1 0-16.651z"/><path d="m246.312 129.531a23.558 23.558 0 0 0 16.786-6.966 23.821 23.821 0 0 0 0-33.6 23.708 23.708 0 0 0 -33.572 0 23.821 23.821 0 0 0 0 33.6 23.558 23.558 0 0 0 16.786 6.966zm-8.291-32.093a11.708 11.708 0 0 1 16.583 0 11.8 11.8 0 0 1 0 16.651 11.708 11.708 0 0 1 -16.583 0 11.8 11.8 0 0 1 0-16.651z"/><path d="m147.165 205.085a23.706 23.706 0 0 0 33.571 0 23.823 23.823 0 0 0 0-33.6 23.709 23.709 0 0 0 -33.571 0 23.823 23.823 0 0 0 0 33.6zm8.494-25.127a11.708 11.708 0 0 1 16.583 0 11.805 11.805 0 0 1 0 16.651 11.708 11.708 0 0 1 -16.583 0 11.805 11.805 0 0 1 0-16.651z"/><path d="m246.438 238.477a49.607 49.607 0 0 0 35.345-14.669 50.188 50.188 0 0 0 0-70.795 49.916 49.916 0 0 0 -70.688 0 50.188 50.188 0 0 0 0 70.795 49.606 49.606 0 0 0 35.343 14.669zm-26.849-76.988a37.918 37.918 0 0 1 53.7 0 38.17 38.17 0 0 1 0 53.843 37.915 37.915 0 0 1 -53.7 0 38.17 38.17 0 0 1 0-53.843z"/><path d="m246.438 316.545c70.52 0 127.891-57.481 127.891-128.134s-57.371-128.135-127.891-128.135-127.889 57.481-127.889 128.135 57.371 128.134 127.889 128.134zm0-244.269c63.9 0 115.891 52.1 115.891 116.135s-51.988 116.134-115.891 116.134-115.889-52.1-115.889-116.134 51.988-116.135 115.889-116.135z"/></g></svg>