<svg id="Layer_1" height="512" viewBox="0 0 512 512" width="512" xmlns="http://www.w3.org/2000/svg" data-name="Layer 1"><path d="m290.09 407.51-.16-.11-67.82.07-.04.03c-79.04 4.04-138.61 21.9-138.61 43.32 0 24.4 77.25 44.18 172.54 44.18s172.54-19.78 172.54-44.18c0-21.41-59.49-39.26-138.45-43.31z" fill="#dfe1e6"/><path d="m113.46 450.82c0-21.42 59.57-39.28 138.61-43.32l.04-.03 37.865-.039-.045-.031-67.82.07-.04.03c-79.04 4.04-138.61 21.9-138.61 43.32 0 24.4 77.25 44.18 172.54 44.18q7.582 0 15-.168c-88.265-1.947-157.54-20.906-157.54-44.012z" fill="#cfd0d1"/><path d="m367.76 63.21a157.6 157.6 0 0 1 19.46 199.52l-97.29 144.67-33.93 50.46-33.89-50.39-97.33-144.74a157.6 157.6 0 0 1 19.46-199.52h.01a158.246 158.246 0 0 1 223.51 0z" fill="#e28197"/><path d="m254.87 64.73a110.72 110.72 0 1 1 -110.66 110.72 110.687 110.687 0 0 1 110.66-110.72z" fill="#6addc7"/><path d="m254.87 80.63a94.82 94.82 0 1 1 -94.77 94.82 94.794 94.794 0 0 1 94.77-94.82z" fill="#5db28f"/><path d="m279.05 151.26a34.2 34.2 0 1 1 -48.35 0 34.228 34.228 0 0 1 48.35 0z" fill="#6addc7"/><path d="m328.76 165.79a13.792 13.792 0 1 1 -19.5 0 13.809 13.809 0 0 1 19.5 0z" fill="#6addc7"/><ellipse cx="254.87" cy="175.445" fill="#4ca987" rx="15.032" ry="15.042"/><path d="m264.72 229.86a13.792 13.792 0 1 1 -19.5 0 13.809 13.809 0 0 1 19.5 0z" fill="#6addc7"/><ellipse cx="254.775" cy="111.285" fill="#6addc7" rx="13.782" ry="13.795"/><path d="m154.78 262.73a157.6 157.6 0 0 1 19.46-199.52h.01a157.512 157.512 0 0 1 96.75-45.498 157.879 157.879 0 0 0 -126.75 45.498h-.01a157.6 157.6 0 0 0 -19.46 199.52l97.33 144.74 33.89 50.39 15-22.305-18.89-28.085z" fill="#c67188"/><path d="m190.1 175.45a94.823 94.823 0 0 1 79.77-93.633 94.82 94.82 0 1 0 0 187.266 94.823 94.823 0 0 1 -79.77-93.633z" fill="#539b7a"/><circle cx="190.74" cy="175.355" fill="#6addc7" r="13.79"/><g fill="#284268"><path d="m390.694 416.926c-23.394-7.23-55.047-12.413-89.991-14.791l91.497-136.056a163.587 163.587 0 0 0 -20.2-207.111c-63.959-63.854-168.029-63.854-231.988 0a163.587 163.587 0 0 0 -20.2 207.111l91.488 136.055c-34.918 2.377-66.547 7.554-89.939 14.775-29.126 8.992-43.894 20.4-43.894 33.915 0 15.232 18.52 27.7 55.047 37.05 33.056 8.464 76.913 13.126 123.486 13.126s90.43-4.662 123.49-13.126c36.527-9.353 55.047-21.818 55.047-37.05 0-13.503-14.751-24.908-43.843-33.898zm-260.933-157.543a151.943 151.943 0 1 1 252.478 0l-126.239 187.725zm246.753 216.866c-32.114 8.223-74.914 12.751-120.514 12.751s-88.4-4.528-120.514-12.751c-33.969-8.7-46.023-19.132-46.023-25.425 0-12.166 41.215-32.2 129.594-37.149l31.964 47.533a6 6 0 0 0 9.958 0l31.964-47.533c88.379 4.954 129.594 24.99 129.594 37.149 0 6.293-12.054 16.727-46.023 25.425z"/><path d="m158.472 87.474a5.984 5.984 0 0 0 4.3-1.813c2.435-2.5 5-4.927 7.614-7.21a6 6 0 1 0 -7.891-9.041c-2.859 2.5-5.658 5.146-8.319 7.877a6 6 0 0 0 4.3 10.187z"/><path d="m126.213 175.45a128.025 128.025 0 0 1 21.3-70.869 6 6 0 0 0 -10.008-6.623 140.557 140.557 0 0 0 -4.083 148.432 6 6 0 1 0 10.355-6.065 128.457 128.457 0 0 1 -17.564-64.875z"/><path d="m333.958 291a31.146 31.146 0 0 0 31.177-31.1 18.448 18.448 0 0 1 18.457-18.428 5.979 5.979 0 1 0 0-11.957 30.426 30.426 0 0 0 -30.457 30.385 19.132 19.132 0 0 1 -19.177 19.1h-25.62a116.64 116.64 0 0 0 -53.465-220.316c-64.326 0-116.66 52.383-116.66 116.744a116.759 116.759 0 0 0 116.66 116.647 77.516 77.516 0 0 0 15.269-1.075zm-183.745-115.55a104.661 104.661 0 1 1 104.66 104.722 104.81 104.81 0 0 1 -104.66-104.722z"/><path d="m269.746 160.572a21.041 21.041 0 1 0 0 29.754 20.894 20.894 0 0 0 0-29.754zm-8.486 21.271a9.041 9.041 0 1 1 0-12.788 8.972 8.972 0 0 1 0 12.788z"/><path d="m268.965 225.619a19.8 19.8 0 1 0 0 27.992 19.654 19.654 0 0 0 0-27.992zm-8.488 19.509a7.781 7.781 0 0 1 -11.01 0 7.791 7.791 0 1 1 11.01 0z"/><path d="m333 161.553a19.8 19.8 0 1 0 0 27.991 19.655 19.655 0 0 0 0-27.992zm-8.487 19.508a7.8 7.8 0 1 1 0-11.026 7.74 7.74 0 0 1 .002 11.026z"/><path d="m254.775 131.079a19.8 19.8 0 1 0 -13.993-5.8 19.654 19.654 0 0 0 13.993 5.8zm-5.5-25.308a7.779 7.779 0 0 1 11.008 0 7.8 7.8 0 0 1 -5.5 13.308 7.8 7.8 0 0 1 -5.5-13.308z"/><path d="m190.737 155.556a19.8 19.8 0 1 0 13.992 5.8 19.651 19.651 0 0 0 -13.992-5.8zm5.5 25.308a7.8 7.8 0 1 1 0-11.026 7.808 7.808 0 0 1 .005 11.026z"/><path d="m283.3 147.016a40.213 40.213 0 1 0 0 56.866 39.921 39.921 0 0 0 0-56.866zm-8.492 48.384a28.212 28.212 0 1 1 0-39.9 28 28 0 0 1 0 39.9z"/><path d="m254.873 74.626a100.824 100.824 0 1 0 100.771 100.824 100.911 100.911 0 0 0 -100.771-100.824zm0 189.647a88.824 88.824 0 1 1 88.771-88.823 88.9 88.9 0 0 1 -88.771 88.823z"/></g></svg>