<svg id="Layer_1" height="512" viewBox="0 0 512 512" width="512" xmlns="http://www.w3.org/2000/svg" data-name="Layer 1"><path d="m495 387.42v84.28h-478v-84.28z" fill="#8ea3ca"/><path d="m494.79 70.3v253.01a30 30 0 0 1 -30 30h-417.58a30 30 0 0 1 -30-30v-253.01a30 30 0 0 1 30-30h417.58a30 30 0 0 1 30 30z" fill="#5fcda4"/><path d="m121.56 429.56a19.535 19.535 0 1 1 19.54 19.62 19.576 19.576 0 0 1 -19.54-19.62z" fill="#73baf4"/><path d="m245.63 68.71c70.22 0 127.15 57.19 127.15 127.75s-56.93 127.75-127.15 127.75-127.16-57.19-127.16-127.75 56.93-127.75 127.16-127.75z" fill="#797e89"/><path d="m245.63 87.05c60.14 0 108.89 48.98 108.89 109.41s-48.75 109.41-108.89 109.41-108.9-48.99-108.9-109.41 48.75-109.41 108.9-109.41z" fill="#b0b5ca"/><path d="m273.41 168.55a39.606 39.606 0 0 1 0 55.82 39.159 39.159 0 0 1 -55.57 0 39.606 39.606 0 0 1 0-55.82 39.159 39.159 0 0 1 55.57 0z" fill="#4689d3"/><path d="m330.52 185.32a15.964 15.964 0 0 1 0 22.51 15.8 15.8 0 0 1 -22.4 0 15.964 15.964 0 0 1 0-22.51 15.777 15.777 0 0 1 22.4 0z" fill="#5fa8ed"/><ellipse cx="245.625" cy="196.46" fill="#5fa8ed" rx="17.272" ry="17.355"/><path d="m256.94 259.24a15.964 15.964 0 0 1 0 22.51 15.777 15.777 0 0 1 -22.4 0 15.964 15.964 0 0 1 0-22.51 15.777 15.777 0 0 1 22.4 0z" fill="#5fa8ed"/><path d="m256.71 111.17a15.964 15.964 0 0 1 0 22.51 15.8 15.8 0 0 1 -22.4 0 15.964 15.964 0 0 1 0-22.51 15.777 15.777 0 0 1 22.4 0z" fill="#5fa8ed"/><path d="m17 387.42h30v84.28h-30z" fill="#798daf"/><path d="m47.21 353.31h30a30 30 0 0 1 -30-30v-253.01a30 30 0 0 1 30-30h-30a30 30 0 0 0 -30 30v253.01a30 30 0 0 0 30 30z" fill="#52af89"/><path d="m166.73 196.46c0-55.316 40.85-101.03 93.9-108.372a109.291 109.291 0 0 0 -15-1.038c-60.15 0-108.9 48.98-108.9 109.41s48.75 109.41 108.9 109.41a109.291 109.291 0 0 0 15-1.038c-53.05-7.344-93.9-53.065-93.9-108.372z" fill="#969db2"/><path d="m183.13 185.09a15.964 15.964 0 0 1 0 22.51 15.777 15.777 0 0 1 -22.4 0 15.964 15.964 0 0 1 0-22.51 15.8 15.8 0 0 1 22.4 0z" fill="#5fa8ed"/><g fill="#284268"><path d="m465 34h-418a36 36 0 0 0 -36 36v253a36 36 0 0 0 36 36h418a36 36 0 0 0 36-36v-253a36 36 0 0 0 -36-36zm24 289a24 24 0 0 1 -24 24h-418a24 24 0 0 1 -24-24v-253a24 24 0 0 1 24-24h418a24 24 0 0 1 24 24z"/><path d="m40.2 436h76.082a25.51 25.51 0 0 0 49.639 0h305.884a6 6 0 1 0 0-12h-305.889c-2.7-12-12.8-19.615-24.82-19.615s-22.119 7.615-24.819 19.615h-76.077a6 6 0 1 0 0 12zm87.37-6.5a13.616 13.616 0 1 1 0 .117c0-.02 0-.039 0-.059s-.005-.034-.005-.058z"/><path d="m495 381h-478a6 6 0 0 0 -6 6v84a6 6 0 0 0 6 6h478a6 6 0 0 0 6-6v-84a6 6 0 0 0 -6-6zm-6 85h-466v-73h466z"/><path d="m44 73.249a6 6 0 0 0 -6 6v6.2a6 6 0 0 0 12 0v-6.2a6 6 0 0 0 -6-6z"/><path d="m44 98.179a6 6 0 0 0 -6 6v100.527a6 6 0 0 0 12 0v-100.527a6 6 0 0 0 -6-6z"/><path d="m393.528 259.913a34.116 34.116 0 0 0 -34.1 34.128 22.933 22.933 0 0 1 -22.928 22.959h-33.646c44.859-21 75.924-67.463 75.924-120.647 0-73.752-59.732-133.7-133.153-133.7s-133.153 60.027-133.153 133.779 59.728 133.661 133.153 133.661a88.007 88.007 0 0 0 16.275-1.093h74.6a34.946 34.946 0 0 0 34.929-34.959 22.149 22.149 0 0 1 22.1-22.182 5.973 5.973 0 1 0 0-11.946zm-147.9 58.3c-66.8 0-121.153-54.619-121.153-121.754s54.346-121.754 121.15-121.754 121.153 54.619 121.153 121.754-54.349 121.754-121.153 121.754z"/><path d="m245.626 173.105a23.08 23.08 0 0 0 -16.467 6.851 23.446 23.446 0 0 0 0 33.007 23.217 23.217 0 0 0 32.933 0 23.446 23.446 0 0 0 0-33.007 23.076 23.076 0 0 0 -16.466-6.851zm7.96 31.393a11.217 11.217 0 0 1 -15.922 0 11.419 11.419 0 0 1 0-16.077 11.217 11.217 0 0 1 15.923 0 11.42 11.42 0 0 1 -.001 16.079z"/><path d="m245.739 248.579a21.661 21.661 0 0 0 -15.455 6.429 22 22 0 0 0 0 30.974 21.79 21.79 0 0 0 30.909 0 22 22 0 0 0 0-30.974 21.66 21.66 0 0 0 -15.454-6.429zm6.949 28.938a9.79 9.79 0 0 1 -13.9 0 9.976 9.976 0 0 1 0-14.044 9.79 9.79 0 0 1 13.9 0 9.976 9.976 0 0 1 0 14.044z"/><path d="m334.774 181.086a21.79 21.79 0 0 0 -30.909 0 22 22 0 0 0 0 30.975 21.791 21.791 0 0 0 30.909 0 22 22 0 0 0 0-30.975zm-8.5 22.509a9.79 9.79 0 0 1 -13.9 0 9.976 9.976 0 0 1 0-14.044 9.79 9.79 0 0 1 13.9 0 9.976 9.976 0 0 1 -.005 14.049z"/><path d="m245.513 144.339a21.664 21.664 0 0 0 15.454-6.428 22 22 0 0 0 0-30.974 21.789 21.789 0 0 0 -30.909 0 22 22 0 0 0 0 30.974 21.661 21.661 0 0 0 15.455 6.428zm-6.95-28.938a9.79 9.79 0 0 1 13.9 0 9.973 9.973 0 0 1 0 14.043 9.79 9.79 0 0 1 -13.9 0 9.975 9.975 0 0 1 0-14.044z"/><path d="m171.931 174.429a21.66 21.66 0 0 0 -15.454 6.429 22 22 0 0 0 0 30.975 21.79 21.79 0 0 0 30.909 0 22 22 0 0 0 0-30.975 21.661 21.661 0 0 0 -15.455-6.429zm6.949 28.939a9.79 9.79 0 0 1 -13.9 0 9.978 9.978 0 0 1 0-14.045 9.79 9.79 0 0 1 13.9 0 9.978 9.978 0 0 1 0 14.045z"/><path d="m277.66 164.313a45.16 45.16 0 0 0 -64.069 0 45.664 45.664 0 0 0 0 64.291 45.157 45.157 0 0 0 64.069 0 45.665 45.665 0 0 0 0-64.29zm-8.506 55.826a33.156 33.156 0 0 1 -47.057 0 33.637 33.637 0 0 1 0-47.36 33.156 33.156 0 0 1 47.057 0 33.638 33.638 0 0 1 0 47.36z"/><path d="m245.625 81.05c-63.354 0-114.9 51.772-114.9 115.409s51.541 115.41 114.9 115.41 114.9-51.773 114.9-115.41-51.546-115.409-114.9-115.409zm0 218.819c-56.736 0-102.9-46.39-102.9-103.41s46.164-103.409 102.9-103.409 102.9 46.389 102.9 103.409-46.164 103.41-102.9 103.41z"/></g></svg>