<svg id="Layer_1" height="512" viewBox="0 0 512 512" width="512" xmlns="http://www.w3.org/2000/svg" data-name="Layer 1"><path d="m292.41 416.03v37.4a41.589 41.589 0 0 1 -41.61 41.57h-166.45a41.589 41.589 0 0 1 -41.61-41.57v-37.4z" fill="#797e89"/><path d="m250.8 17h-166.45a41.368 41.368 0 0 0 -41.35 41.57v357.43h249v-357.43a41.241 41.241 0 0 0 -41.2-41.57z" fill="#5fa8ed"/><path d="m292.41 58.57v31.17h-249.67v-31.17a41.589 41.589 0 0 1 41.61-41.57h166.45a41.589 41.589 0 0 1 41.61 41.57z" fill="#797e89"/><path d="m167.58 437.85a15.585 15.585 0 1 1 -15.61 15.58 15.6 15.6 0 0 1 15.61-15.58z" fill="#58606d"/><path d="m457.18 157h-282.84a12.307 12.307 0 0 0 -12.34 12.01v145.99h307v-145.99a11.853 11.853 0 0 0 -11.82-12.01z" fill="#95c9ab"/><path d="m163.34 315h-1.34v17.6a12.652 12.652 0 0 0 12.34 12.4h282.84c6.63 0 11.82-5.78 11.82-12.4v-17.6z" fill="#f2c787"/><path d="m315.8 182.11a53.475 53.475 0 1 1 -53.58 53.48 53.529 53.529 0 0 1 53.58-53.48z" fill="#eb7288"/><path d="m337.13 235.59-31.94 21.17v-42.35z" fill="#eadf53"/><ellipse cx="407.93" cy="314.58" fill="#8ea3ca" rx="16.1" ry="16.08"/><path d="m72.74 453.43v-37.4h-30v37.4a41.589 41.589 0 0 0 41.61 41.57h30a41.589 41.589 0 0 1 -41.61-41.57z" fill="#626872"/><path d="m114.35 17h-30a41.368 41.368 0 0 0 -41.35 41.57v357.43h30v-357.43a41.368 41.368 0 0 1 41.35-41.57z" fill="#549ad3"/><path d="m114.35 17h-30a41.589 41.589 0 0 0 -41.61 41.57v31.17h30v-31.17a41.589 41.589 0 0 1 41.61-41.57z" fill="#626872"/><path d="m204.34 157h-30a12.307 12.307 0 0 0 -12.34 12.01v145.99h30v-145.99a12.307 12.307 0 0 1 12.34-12.01z" fill="#85af96"/><path d="m192 332.6v-17.6h-30v17.6a12.652 12.652 0 0 0 12.34 12.4h30a12.652 12.652 0 0 1 -12.34-12.4z" fill="#dbb37d"/><g fill="#284268"><path d="m239.038 96h11.562a6 6 0 0 0 0-12h-11.562a6 6 0 0 0 0 12z"/><path d="m167.576 475.022a21.587 21.587 0 1 0 -21.6-21.587 21.621 21.621 0 0 0 21.6 21.587zm0-31.174a9.587 9.587 0 1 1 -9.6 9.587 9.607 9.607 0 0 1 9.6-9.587z"/><path d="m76 127.068a6 6 0 0 0 -6 6v3.609a6 6 0 0 0 12 0v-3.609a6 6 0 0 0 -6-6z"/><path d="m76 153.194a6 6 0 0 0 -6 6v88.825a6 6 0 0 0 12 0v-88.825a6 6 0 0 0 -6-6z"/><path d="m457.182 151h-159.182v-92.435a47.294 47.294 0 0 0 -47.2-47.565h-166.446a47.423 47.423 0 0 0 -47.354 47.565v394.87a47.423 47.423 0 0 0 47.354 47.565h166.446a47.294 47.294 0 0 0 47.2-47.565v-102.435h159.182c9.924 0 17.818-8.478 17.818-18.4v-163.588a17.876 17.876 0 0 0 -17.818-18.012zm-171.182 302.435a35.28 35.28 0 0 1 -35.2 35.565h-166.446a35.41 35.41 0 0 1 -35.354-35.565v-31.435h237zm0-43.435h-237v-314h169.55a6 6 0 0 0 0-12h-169.55v-25.435a35.41 35.41 0 0 1 35.354-35.565h166.446a35.28 35.28 0 0 1 35.2 35.565v25.435h-14.4a6 6 0 0 0 0 12h14.4v55h-111.656a18.328 18.328 0 0 0 -18.344 18.012v163.588a18.666 18.666 0 0 0 18.344 18.4h111.656zm177-77.4c0 3.309-2.51 6.4-5.818 6.4h-282.838a6.665 6.665 0 0 1 -6.344-6.4v-11.6h218.671a22.1 22.1 0 0 0 42.524 0h33.805zm-65.165-18.014a10.1 10.1 0 1 1 10.1 10.078 10.1 10.1 0 0 1 -10.1-10.081zm65.165-5.586h-33.8c-2.624-10-11.159-16.079-21.262-16.079s-18.638 6.079-21.267 16.079h-218.671v-139.988a6.32 6.32 0 0 1 6.344-6.012h282.838a5.864 5.864 0 0 1 5.818 6.012z"/><path d="m315.8 176.114a59.472 59.472 0 1 0 59.583 59.472 59.594 59.594 0 0 0 -59.583-59.472zm0 106.944a47.472 47.472 0 1 1 47.583-47.472 47.581 47.581 0 0 1 -47.583 47.472z"/><path d="m340.438 230.585-31.933-21.173a6.174 6.174 0 0 0 -6.248-.287 6.092 6.092 0 0 0 -3.257 5.287v42.348a6.09 6.09 0 0 0 3.258 5.286 6.182 6.182 0 0 0 2.886.714 6.067 6.067 0 0 0 3.338-1l31.948-21.174a6 6 0 0 0 .008-10zm-29.438 15v-19.996l15.077 10z"/></g></svg>