<svg id="Layer_1" height="512" viewBox="0 0 512 512" width="512" xmlns="http://www.w3.org/2000/svg" data-name="Layer 1"><path d="m264.39 426h-146.87a11.276 11.276 0 0 0 -11.52 11.06v42.64a11.484 11.484 0 0 0 11.52 11.3h146.87a11.563 11.563 0 0 0 11.61-11.3v-42.64c0-6.25-5.36-11.06-11.61-11.06z" fill="#6994fe"/><path d="m221 69 2.8 244.9a20.218 20.218 0 0 0 17.971 10.369l11.779-.269h23.74a36.785 36.785 0 0 1 36.27-33.578c19.22 0 34.95 15.578 36.27 33.578h34.51c11.84 0 21.66-9.09 21.66-20.9v-234.1z" fill="#7d8fad"/><path d="m405.79 42.38v26.97h-184.46v-26.97a21.409 21.409 0 0 1 21.44-21.38h141.58a21.409 21.409 0 0 1 21.44 21.38z" fill="#8ea3ca"/><path d="m379.57 103.66v101.59h-132.02v-101.59z" fill="#eadf53"/><path d="m332.89 156.13-32.59 19.26v-38.52z" fill="#49bdff"/><path d="m223.82 313.91a20.411 20.411 0 0 0 17.96 10.61l11.77-.03h23.74a36.063 36.063 0 0 1 9.45-21.81v68.82a31.492 31.492 0 0 1 -31.54 31.44v22.81h-122.97v-151.45a31.393 31.393 0 0 1 9.03-22.03l80.07-63.21v71.77l.14.18 30.49-24.08 5.58 5.56a23.545 23.545 0 0 1 0 33.35l-33.45 33.36z" fill="#ffd8b7"/><path d="m136 479.7v-42.64a11.276 11.276 0 0 1 11.52-11.06h-30a11.276 11.276 0 0 0 -11.52 11.06v42.64a11.484 11.484 0 0 0 11.52 11.3h30a11.484 11.484 0 0 1 -11.52-11.3z" fill="#5f89dd"/><path d="m171.26 252.27 50.07-39.527v-23.683l-80.07 63.21a31.393 31.393 0 0 0 -9.03 22.03v151.45h30v-151.45a31.393 31.393 0 0 1 9.03-22.03z" fill="#efc9ac"/><path d="m140.5 446.98a12.191 12.191 0 1 1 -11.82 12.18 12.009 12.009 0 0 1 11.82-12.18z" fill="#5fcda4"/><path d="m248 104h30v101h-30z" fill="#cec14d"/><g fill="#284268"><path d="m248 212h132a6 6 0 0 0 6-6v-102a6 6 0 0 0 -6-6h-132a6 6 0 0 0 -6 6v102a6 6 0 0 0 6 6zm6-102h120v89h-120z"/><path d="m198 69.076a6 6 0 0 0 6-6v-4.487a6 6 0 0 0 -12 0v4.487a6 6 0 0 0 6 6z"/><path d="m192 173.312a6 6 0 0 0 12 0v-92.695a6 6 0 0 0 -12 0z"/><path d="m384.347 15h-141.576c-15.131 0-27.771 12.283-27.771 27.381v143.619l-78.131 61.824a37.831 37.831 0 0 0 -10.869 26.476v145.7h-8.484a17.3 17.3 0 0 0 -17.516 17.057v42.643a17.507 17.507 0 0 0 17.516 17.3h146.884a17.584 17.584 0 0 0 17.6-17.3v-42.643c0-9.541-8.064-17.057-17.6-17.057h-3.4v-11.537c18-2.873 32-18.356 32-36.966v-66.57a30.337 30.337 0 0 1 50.847 19.773 5.768 5.768 0 0 0 5.985 5.3h34.507c15.135 0 27.661-11.8 27.661-26.9v-260.719a27.624 27.624 0 0 0 -27.653-27.381zm-120.647 417a5.3 5.3 0 0 1 5.3 5.3v42.4a5.3 5.3 0 0 1 -5.3 5.3h-146.4a5.3 5.3 0 0 1 -5.3-5.3v-42.4a5.3 5.3 0 0 1 5.3-5.3zm17.3-60.5a25.719 25.719 0 0 1 -25.766 25.444 6.2 6.2 0 0 0 -6.234 6v17.056h-111v-145.7a25.359 25.359 0 0 1 7.178-17.57l69.822-55.075v56.822l-42.484 33.544a6 6 0 1 0 7.436 9.418l71.548-56.493 1.8 1.8a17.537 17.537 0 0 1 0 24.854l-33.445 33.352a6 6 0 0 0 -1.753 3.9l-.422 7.272c-.007.116-.011.232-.011.348a37.206 37.206 0 0 0 3.694 15.934 36.584 36.584 0 0 1 -2.517 35.759 5.857 5.857 0 0 0 -.846 3.335v15.722a6 6 0 1 0 12 0v-13.971a50.218 50.218 0 0 0 3.389-43.633 26.09 26.09 0 0 0 8.349 1.382h.057l35.491-.267a5.869 5.869 0 0 0 3.714-1.341zm119-68.4c0 8.485-7.142 14.9-15.661 14.9h-29.3a42.6 42.6 0 0 0 -41.484-33.457c-20.225 0-37.469 14.775-41.484 34.067l-30.3.39h-.031a14.5 14.5 0 0 1 -11.789-6.335l.041-.836 31.8-31.736a29.542 29.542 0 0 0 -.015-41.848l-5.577-5.559a6 6 0 0 0 -7.956-.46l-21.244 16.774v-174h173zm0-240.1h-173v-20.619c0-8.481 7.257-15.381 15.771-15.381h141.576a15.612 15.612 0 0 1 15.653 15.381z"/><path d="m335.94 150.964-32.589-19.264a6.276 6.276 0 0 0 -6.176-.047 6.144 6.144 0 0 0 -3.175 5.214v38.524a6.144 6.144 0 0 0 3.175 5.211 6.276 6.276 0 0 0 3.048.789 6.132 6.132 0 0 0 3.09-.835l32.609-19.262a6 6 0 0 0 .018-10.33zm-29.94 13.911v-17.492l14.8 8.746z"/><path d="m140.5 477.347a18.188 18.188 0 1 0 -17.825-18.184 18.028 18.028 0 0 0 17.825 18.184zm0-24.369a6.2 6.2 0 1 1 -5.825 6.185 6.019 6.019 0 0 1 5.825-6.185z"/></g></svg>