<svg id="Layer_1" height="512" viewBox="0 0 512 512" width="512" xmlns="http://www.w3.org/2000/svg" data-name="Layer 1"><path d="m429.07 443.3h65.93v37.77h-65.93z" fill="#4689d3"/><path d="m495 314.75v28.98h-65.93v-28.98a13.939 13.939 0 0 1 13.94-13.94h38.05a13.939 13.939 0 0 1 13.94 13.94z" fill="#5fa8ed"/><path d="m433.83 31h-355.76a11.993 11.993 0 0 0 -12.07 11.88v183.12h380v-183.12a12.08 12.08 0 0 0 -12.17-11.88z" fill="#5fcda4"/><path d="m326.05 443.3h65.93v37.77h-65.93z" fill="#4689d3"/><path d="m391.98 314.75v28.98h-65.93v-28.98a13.939 13.939 0 0 1 13.94-13.94h38.05a13.939 13.939 0 0 1 13.94 13.94z" fill="#5fa8ed"/><path d="m223.03 443.3h65.94v37.77h-65.94z" fill="#4689d3"/><path d="m288.97 314.75v28.98h-65.94v-28.98a13.947 13.947 0 0 1 13.95-13.94h38.04a13.947 13.947 0 0 1 13.95 13.94z" fill="#5fa8ed"/><path d="m120.02 443.3h65.93v37.77h-65.93z" fill="#4689d3"/><path d="m185.95 314.75v28.98h-65.93v-28.98a13.939 13.939 0 0 1 13.94-13.94h38.05a13.939 13.939 0 0 1 13.94 13.94z" fill="#5fa8ed"/><path d="m429 344v11l14 27h52v-38z" fill="#4689d3"/><path d="m326 344v10l14 28h.99 36.06.95l14-28v-10z" fill="#4689d3"/><path d="m223 344v10.56.44l14 27h37.03.51l13.94-27h.52v-11z" fill="#4689d3"/><path d="m120 344v10.23.77l14 27h.95 36.06.99l14-27v-11z" fill="#4689d3"/><path d="m17 443.3h65.93v37.77h-65.93z" fill="#4689d3"/><path d="m17 344v38h50.99.52l14.49-27.41v-10.59z" fill="#4689d3"/><path d="m82.93 314.75v28.98h-65.93v-28.98a13.939 13.939 0 0 1 13.94-13.94h38.05a13.939 13.939 0 0 1 13.94 13.94z" fill="#5fa8ed"/><path d="m378 394v14l14 23h37.07l13.93-22.62v-.37-14.01z" fill="#4689d3"/><path d="m275 394v14l14 23h37.05l13.94-23h.01v-14z" fill="#4689d3"/><path d="m172 394v14l14 23h.46 36.06.51l13.95-23h.02v-14z" fill="#4689d3"/><path d="m69 394v14l14 23h.45 36.57l13.94-23h.04v-14z" fill="#4689d3"/><path d="m256 62.03a66.235 66.235 0 1 1 -66.3 66.23 66.261 66.261 0 0 1 66.3-66.23z" fill="#f58387"/><path d="m282.39 128.26-39.52 26.23v-52.46z" fill="#eadf53"/><path d="m67 226h-1v25.34a11.809 11.809 0 0 0 12.07 11.66h355.76a11.9 11.9 0 0 0 12.17-11.66v-25.34z" fill="#797e89"/><path d="m370 206.2a19.915 19.915 0 1 1 -19.92 19.91 19.913 19.913 0 0 1 19.92-19.91z" fill="#58606d"/><g fill="#5fa8ed"><path d="m429.55 351h-38.05a13.224 13.224 0 0 0 -13.5 13.53v29.47h65v-29.47a13.183 13.183 0 0 0 -13.45-13.53z"/><path d="m326.53 351h-38.05a13.214 13.214 0 0 0 -13.48 13.53v29.47h65v-29.47a13.2 13.2 0 0 0 -13.47-13.53z"/><path d="m223.52 351h-38.05a13.2 13.2 0 0 0 -13.47 13.53v29.47h65v-29.47a13.214 13.214 0 0 0 -13.48-13.53z"/><path d="m120.5 351h-38.05a13.183 13.183 0 0 0 -13.45 13.53v29.47h65v-29.47a13.224 13.224 0 0 0 -13.5-13.53z"/><path d="m481.06 400h-38.05a14.328 14.328 0 0 0 -14.01 14.32v28.68h66v-28.68c0-7.7-6.24-14.32-13.94-14.32z"/><path d="m378.04 400h-38.05a14.31 14.31 0 0 0 -13.99 14.32v28.68h66v-28.68c0-7.7-6.26-14.32-13.96-14.32z"/><path d="m275.02 400h-38.04a14.3 14.3 0 0 0 -13.98 14.32v28.68h66v-28.68a14.3 14.3 0 0 0 -13.98-14.32z"/><path d="m172.01 400h-38.05c-7.7 0-13.96 6.62-13.96 14.32v28.68h66v-28.68a14.31 14.31 0 0 0 -13.99-14.32z"/><path d="m68.99 400h-38.05c-7.7 0-13.94 6.62-13.94 14.32v28.68h66v-28.68a14.328 14.328 0 0 0 -14.01-14.32z"/></g><path d="m219.7 128.26a66.25 66.25 0 0 1 51.3-64.507 66.235 66.235 0 1 0 0 129.024 66.264 66.264 0 0 1 -51.3-64.517z" fill="#db7980"/><path d="m67.36 226h28.64v-183.12a11.993 11.993 0 0 1 12.07-11.88h-30a11.993 11.993 0 0 0 -12.07 11.88v183.12z" fill="#54ba90"/><path d="m96 251.34v-25.34h-30v25.34a11.809 11.809 0 0 0 12.07 11.66h30a11.809 11.809 0 0 1 -12.07-11.66z" fill="#636870"/><path d="m78.074 269h355.76c9.9 0 18.166-7.758 18.166-17.656v-208.462a18.1 18.1 0 0 0 -18.166-17.882h-355.76a18.018 18.018 0 0 0 -18.074 17.882v208.462a17.828 17.828 0 0 0 18.074 17.656zm-6.074-226.118a6.006 6.006 0 0 1 6.074-5.882h355.76a6.088 6.088 0 0 1 6.166 5.882v177.118h-44.792c-2.715-11-12.984-19.917-25.21-19.917a26.4 26.4 0 0 0 -25.209 19.917h-272.789zm311.917 183.232a13.919 13.919 0 1 1 -13.917-13.914 13.934 13.934 0 0 1 13.917 13.914zm-311.917 5.886h272.789a25.913 25.913 0 0 0 50.419 0h44.792v19.344a5.9 5.9 0 0 1 -6.166 5.656h-355.76a5.82 5.82 0 0 1 -6.074-5.656z" fill="#284268"/><path d="m89 59.632a6 6 0 0 0 -6 6v4.468a6 6 0 0 0 12 0v-4.47a6 6 0 0 0 -6-5.998z" fill="#284268"/><path d="m89 85.558a6 6 0 0 0 -6 6v71.412a6 6 0 0 0 12 0v-71.412a6 6 0 0 0 -6-6z" fill="#284268"/><path d="m256 56.026a72.236 72.236 0 1 0 72.3 72.236 72.35 72.35 0 0 0 -72.3-72.236zm0 132.474a60.236 60.236 0 1 1 60.3-60.236 60.336 60.336 0 0 1 -60.3 60.236z" fill="#284268"/><path d="m285.707 123.263-39.514-26.228a5.909 5.909 0 0 0 -9.193 5v52.455a5.941 5.941 0 0 0 3.1 5.287 5.873 5.873 0 0 0 2.8.713 5.947 5.947 0 0 0 3.3-1l39.505-26.228a6 6 0 0 0 -.006-10zm-36.707 20.043v-30.088l22.664 15.044z" fill="#284268"/><path d="m481.058 295h-38.047a19.859 19.859 0 0 0 -20.011 19.748v30.252h-25v-30.252a19.814 19.814 0 0 0 -19.959-19.748h-38.048a19.844 19.844 0 0 0 -19.993 19.748v30.252h-25v-30.252a19.829 19.829 0 0 0 -19.976-19.748h-38.048a19.829 19.829 0 0 0 -19.976 19.748v30.252h-25v-30.252a19.844 19.844 0 0 0 -19.993-19.748h-38.048a19.814 19.814 0 0 0 -19.959 19.748v30.252h-25v-30.252a19.859 19.859 0 0 0 -20.011-19.748h-38.047a19.8 19.8 0 0 0 -19.942 19.748v66.752c0 3.313 2.687 5.5 6 5.5h46v7h-32.059c-10.996 0-19.941 9.325-19.941 20.321v66.747a5.943 5.943 0 0 0 6 5.932h65.931a6 6 0 0 0 6.069-5.932v-44.068h25v44.068a5.958 5.958 0 0 0 6.017 5.932h65.931a5.987 5.987 0 0 0 6.052-5.932v-44.068h25v44.068a5.973 5.973 0 0 0 6.035 5.932h65.93a5.973 5.973 0 0 0 6.035-5.932v-44.068h25v44.068a5.987 5.987 0 0 0 6.052 5.932h65.931a5.958 5.958 0 0 0 6.017-5.932v-44.068h25v44.068a6 6 0 0 0 6.069 5.932h65.931a5.943 5.943 0 0 0 6-5.932v-66.747c0-11-8.945-20.321-19.941-20.321h-32.059v-7h46c3.313 0 6-2.191 6-5.5v-66.752a19.8 19.8 0 0 0 -19.942-19.748zm-89.558 62h38.05a7.2 7.2 0 0 1 7.45 7.534v23.466h-53v-23.466a7.246 7.246 0 0 1 7.5-7.534zm-59.5-42.252a7.832 7.832 0 0 1 7.993-7.748h38.048a7.8 7.8 0 0 1 7.959 7.748v23.252h-54zm14 60.252v-10.466c0-5.879-2.1-11.534-6.159-14.534h38.352c-4.06 3-6.193 8.655-6.193 14.534v10.466zm26 12v7h-26v-7zm-83.515-30h38.048a7.218 7.218 0 0 1 7.467 7.534v23.466h-53v-23.466a7.232 7.232 0 0 1 7.485-7.534zm-59.485-42.252a7.818 7.818 0 0 1 7.976-7.748h38.048a7.818 7.818 0 0 1 7.976 7.748v23.252h-54zm14 60.252v-10.466c0-5.879-2.115-11.534-6.176-14.534h38.352c-4.061 3-6.176 8.655-6.176 14.534v10.466zm26 12v7h-26v-7zm-83.533-30h38.048a7.232 7.232 0 0 1 7.485 7.534v23.466h-53v-23.466a7.218 7.218 0 0 1 7.467-7.534zm-59.467-42.252a7.8 7.8 0 0 1 7.959-7.748h38.048a7.832 7.832 0 0 1 7.993 7.748v23.252h-54zm14 60.252v-10.466c0-5.879-2.133-11.534-6.193-14.534h38.352c-4.059 3-6.159 8.655-6.159 14.534v10.466zm26 12v7h-26v-7zm-83.55-30h38.05a7.246 7.246 0 0 1 7.5 7.534v23.466h-53v-23.466a7.2 7.2 0 0 1 7.45-7.534zm-59.45-42.252a7.788 7.788 0 0 1 7.942-7.748h38.047a7.847 7.847 0 0 1 8.011 7.748v23.252h-54zm0 60.252v-25h46.142c-4.061 3-6.142 8.655-6.142 14.534v10.466zm54 100h-54v-26h54zm0-38h-54v-22.679c0-4.379 3.562-8.321 7.941-8.321h38.049a8.342 8.342 0 0 1 8.01 8.321zm37-22.679v10.679h-25v-10.679c0-5.879-2.641-11.321-6.7-14.321h38.35c-4.061 3-6.65 8.442-6.65 14.321zm66 60.679h-54v-26h54zm0-38h-54v-22.679a8.3 8.3 0 0 1 7.958-8.321h38.049a8.328 8.328 0 0 1 7.993 8.321zm37-22.679v10.679h-25v-10.679c0-5.879-2.624-11.321-6.685-14.321h38.352c-4.06 3-6.667 8.442-6.667 14.321zm66 60.679h-54v-26h54zm0-38h-54v-22.679a8.313 8.313 0 0 1 7.976-8.321h38.048a8.313 8.313 0 0 1 7.976 8.321zm37-22.679v10.679h-25v-10.679c0-5.879-2.607-11.321-6.667-14.321h38.352c-4.061 3-6.685 8.442-6.685 14.321zm66 60.679h-54v-26h54zm0-38h-54v-22.679a8.328 8.328 0 0 1 7.993-8.321h38.049a8.3 8.3 0 0 1 7.958 8.321zm37-22.679v10.679h-25v-10.679c0-5.879-2.589-11.321-6.65-14.321h38.35c-4.059 3-6.7 8.442-6.7 14.321zm66 60.679h-54v-26h54zm-7.941-69c4.379 0 7.941 3.942 7.941 8.321v22.679h-54v-22.679a8.342 8.342 0 0 1 8.01-8.321zm7.941-31h-40v-10.466c0-5.879-2.081-11.534-6.142-14.534h46.142zm0-37h-54v-23.252a7.847 7.847 0 0 1 8.011-7.748h38.047a7.788 7.788 0 0 1 7.942 7.748z" fill="#284268"/></svg>