<svg id="Layer_1" height="512" viewBox="0 0 512 512" width="512" xmlns="http://www.w3.org/2000/svg" data-name="Layer 1"><path d="m23 131v249.09c0 15.48 13.03 27.91 28.49 27.91h200.05l.27-.025 146.865-124.252.325-.253v-152.47z" fill="#d4e1f4"/><path d="m370.6 63h-319.11c-15.46 0-28.49 12.4-28.49 27.88v40.12h376v-40.12c0-15.48-12.93-27.88-28.4-27.88z" fill="#e28197"/><path d="m398.48 263.75a121.18 121.18 0 0 1 70.3 110.07c0 66.92-54.15 121.18-120.94 121.18a121.065 121.065 0 0 1 -120.93-121.18c0-66.93 54.14-121.19 120.93-121.19a120.086 120.086 0 0 1 50.64 11.12z" fill="#797e89"/><path d="m347.84 270.03a103.785 103.785 0 1 1 -103.57 103.79 103.681 103.681 0 0 1 103.57-103.79z" fill="#b0b5ca"/><path d="m372.99 348.61a35.606 35.606 0 1 1 -50.3 0 35.682 35.682 0 0 1 50.3 0z" fill="#797e89"/><path d="m426.07 363.25a15.083 15.083 0 1 1 -21.31 0 15.107 15.107 0 0 1 21.31 0z" fill="#4689d3"/><ellipse cx="347.945" cy="441.53" fill="#4689d3" rx="15.071" ry="15.101"/><path d="m358.39 295.43a15.083 15.083 0 1 1 -21.31 0 15.125 15.125 0 0 1 21.31 0z" fill="#4689d3"/><path d="m357.73 363.91a14 14 0 1 1 -19.78 0 14.027 14.027 0 0 1 19.78 0z" fill="#4689d3"/><path d="m337.3 23.7a23.049 23.049 0 0 0 -39.3 16.18v50.12h46v-50.12a22.813 22.813 0 0 0 -6.7-16.18z" fill="#8ea3ca"/><path d="m117.234 23.7a23.005 23.005 0 0 0 -39.234 16.18v50.12h46v-50.12a22.862 22.862 0 0 0 -6.766-16.18z" fill="#8ea3ca"/><path d="m337.91 170.6a11.28 11.28 0 1 1 -11.28 11.28 11.278 11.278 0 0 1 11.28-11.28z" fill="#5fcda4"/><path d="m337.91 223.49a11.285 11.285 0 1 1 -11.28 11.28 11.278 11.278 0 0 1 11.28-11.28z" fill="#5fcda4"/><path d="m274.48 170.6a11.28 11.28 0 1 1 -11.28 11.28 11.271 11.271 0 0 1 11.28-11.28z" fill="#5fcda4"/><path d="m274.48 223.49a11.285 11.285 0 1 1 -11.28 11.28 11.271 11.271 0 0 1 11.28-11.28z" fill="#5fcda4"/><path d="m211.05 170.6a11.28 11.28 0 1 1 -11.28 11.28 11.271 11.271 0 0 1 11.28-11.28z" fill="#5fcda4"/><path d="m211.05 223.49a11.285 11.285 0 1 1 -11.28 11.28 11.271 11.271 0 0 1 11.28-11.28z" fill="#5fcda4"/><path d="m211.05 276.38a11.285 11.285 0 1 1 -11.28 11.29 11.28 11.28 0 0 1 11.28-11.29z" fill="#5fcda4"/><path d="m211.05 329.28a11.28 11.28 0 1 1 -11.28 11.28 11.271 11.271 0 0 1 11.28-11.28z" fill="#5fcda4"/><circle cx="147.62" cy="181.88" fill="#5fcda4" r="11.28"/><path d="m147.62 223.49a11.285 11.285 0 1 1 -11.28 11.28 11.28 11.28 0 0 1 11.28-11.28z" fill="#5fcda4"/><path d="m147.62 276.38a11.285 11.285 0 1 1 -11.28 11.29 11.288 11.288 0 0 1 11.28-11.29z" fill="#5fcda4"/><circle cx="147.62" cy="340.56" fill="#5fcda4" r="11.28"/><path d="m84.19 223.49a11.285 11.285 0 1 1 -11.28 11.28 11.28 11.28 0 0 1 11.28-11.28z" fill="#5fcda4"/><path d="m84.19 276.38a11.285 11.285 0 1 1 -11.28 11.29 11.288 11.288 0 0 1 11.28-11.29z" fill="#5fcda4"/><circle cx="84.19" cy="340.56" fill="#5fcda4" r="11.28"/><path d="m53 380.09v-249.09h-30v249.09c0 15.48 13.03 27.91 28.49 27.91h30c-15.46 0-28.49-12.43-28.49-27.91z" fill="#b6c2d1"/><path d="m81.49 63h-30c-15.46 0-28.49 12.4-28.49 27.88v40.12h30v-40.12c0-15.48 13.03-27.88 28.49-27.88z" fill="#cc7189"/><path d="m274.27 373.82a103.738 103.738 0 0 1 88.57-102.7 103.785 103.785 0 1 0 0 205.394 103.735 103.735 0 0 1 -88.57-102.694z" fill="#959bad"/><path d="m290.92 363.03a15.083 15.083 0 1 1 -21.31 0 15.125 15.125 0 0 1 21.31 0z" fill="#4689d3"/><g fill="#284268"><path d="m147.619 164.6a17.284 17.284 0 1 0 17.281 17.28 17.3 17.3 0 0 0 -17.281-17.28zm0 22.568a5.284 5.284 0 1 1 5.277-5.285 5.287 5.287 0 0 1 -5.277 5.282z"/><path d="m211.048 164.6a17.284 17.284 0 1 0 17.276 17.283 17.3 17.3 0 0 0 -17.276-17.283zm0 22.568a5.284 5.284 0 1 1 5.276-5.285 5.288 5.288 0 0 1 -5.276 5.282z"/><path d="m274.478 199.165a17.284 17.284 0 1 0 -17.278-17.285 17.3 17.3 0 0 0 17.278 17.285zm0-22.568a5.284 5.284 0 1 1 -5.277 5.283 5.286 5.286 0 0 1 5.277-5.28z"/><path d="m337.907 199.165a17.284 17.284 0 1 0 -17.276-17.285 17.3 17.3 0 0 0 17.276 17.285zm0-22.568a5.284 5.284 0 1 1 -5.276 5.283 5.286 5.286 0 0 1 5.276-5.28z"/><path d="m84.189 217.49a17.284 17.284 0 1 0 17.277 17.284 17.3 17.3 0 0 0 -17.277-17.284zm0 22.568a5.284 5.284 0 1 1 5.277-5.284 5.286 5.286 0 0 1 -5.277 5.284z"/><path d="m147.619 217.49a17.284 17.284 0 1 0 17.281 17.284 17.3 17.3 0 0 0 -17.281-17.284zm0 22.568a5.284 5.284 0 1 1 5.277-5.284 5.286 5.286 0 0 1 -5.277 5.284z"/><path d="m211.048 217.49a17.284 17.284 0 1 0 17.276 17.284 17.3 17.3 0 0 0 -17.276-17.284zm0 22.568a5.284 5.284 0 1 1 5.276-5.284 5.287 5.287 0 0 1 -5.276 5.284z"/><path d="m274.478 252.058a17.284 17.284 0 1 0 -17.278-17.284 17.3 17.3 0 0 0 17.278 17.284zm0-22.568a5.284 5.284 0 1 1 -5.277 5.284 5.286 5.286 0 0 1 5.277-5.284z"/><path d="m84.189 270.383a17.284 17.284 0 1 0 17.277 17.284 17.3 17.3 0 0 0 -17.277-17.284zm0 22.568a5.284 5.284 0 1 1 5.277-5.284 5.286 5.286 0 0 1 -5.277 5.284z"/><path d="m147.619 270.383a17.284 17.284 0 1 0 17.281 17.284 17.3 17.3 0 0 0 -17.281-17.284zm0 22.568a5.284 5.284 0 1 1 5.277-5.284 5.286 5.286 0 0 1 -5.277 5.284z"/><path d="m211.048 270.383a17.284 17.284 0 1 0 17.276 17.284 17.3 17.3 0 0 0 -17.276-17.284zm0 22.568a5.284 5.284 0 1 1 5.276-5.284 5.287 5.287 0 0 1 -5.276 5.284z"/><path d="m84.189 323.277a17.284 17.284 0 1 0 17.277 17.284 17.3 17.3 0 0 0 -17.277-17.284zm0 22.568a5.284 5.284 0 1 1 5.277-5.284 5.287 5.287 0 0 1 -5.277 5.284z"/><path d="m147.619 323.277a17.284 17.284 0 1 0 17.281 17.284 17.3 17.3 0 0 0 -17.281-17.284zm0 22.568a5.284 5.284 0 1 1 5.277-5.284 5.287 5.287 0 0 1 -5.277 5.284z"/><path d="m50 150.8a6 6 0 0 0 -6 6v2.935a6 6 0 0 0 12 0v-2.935a6 6 0 0 0 -6-6z"/><path d="m50 172.722a6 6 0 0 0 -6 6v85.224a6 6 0 0 0 12 0v-85.224a6 6 0 0 0 -6-6z"/><path d="m488.512 433.646a32.793 32.793 0 0 0 -32.728 32.783 21.567 21.567 0 0 1 -21.514 21.571h-30.565a127.26 127.26 0 0 0 1.295-227.722v-169.398c0-18.762-15.647-33.88-34.4-33.88h-20.6v-17.119a29 29 0 0 0 -58 0v17.119h-162v-17.119a29 29 0 0 0 -58 0v17.119h-20.5c-18.756 0-34.5 15.118-34.5 33.88v289.207c0 18.762 15.744 33.913 34.5 33.913h175.9c16.827 50.5 64.456 87 120.439 87a127.439 127.439 0 0 0 15.938-1h70.493a33.58 33.58 0 0 0 33.514-33.571 20.779 20.779 0 0 1 20.728-20.783 6 6 0 0 0 0-12zm-184.512-393.765a17 17 0 0 1 34 0v44.119h-34zm-220 0a17 17 0 0 1 34 0v44.119h-34zm-55 51c0-12.146 10.36-21.881 22.5-21.881h20.5v20.627a6.425 6.425 0 0 0 6.11 6.373h45.763a6.439 6.439 0 0 0 6.127-6.373v-20.627h162v20.627a6.524 6.524 0 0 0 6.224 6.373h45.762a6.342 6.342 0 0 0 6.014-6.373v-20.627h20.6c12.134 0 22.4 9.735 22.4 21.88v34.12h-364zm198.161 243.5a17.3 17.3 0 1 0 -4.617 19.05 127.725 127.725 0 0 0 1.508 48.569h-172.552c-12.14 0-22.5-9.768-22.5-21.913v-243.087h364v117.957a125.993 125.993 0 0 0 -42.587-8.292 17.272 17.272 0 1 0 -23.2 1.656 127.405 127.405 0 0 0 -100.052 86.055zm-10.837 6.185a5.277 5.277 0 1 1 -5.276-5.284 5.287 5.287 0 0 1 5.276 5.279zm126.86-105.787a5.277 5.277 0 1 1 -5.277-5.284 5.287 5.287 0 0 1 5.277 5.279zm4.657 254.221c-63.376 0-114.936-51.671-114.936-115.184s51.56-115.184 114.936-115.184 114.936 51.668 114.936 115.184-51.56 115.184-114.936 115.184z"/><path d="m347.841 353.8a19.84 19.84 0 0 0 -14.135 5.865 20.06 20.06 0 0 0 0 28.294 19.964 19.964 0 0 0 28.271 0 20.06 20.06 0 0 0 0-28.294 19.843 19.843 0 0 0 -14.136-5.865zm5.641 25.682a7.962 7.962 0 0 1 -11.282 0 8.039 8.039 0 0 1 0-11.34 7.965 7.965 0 0 1 11.282 0 8.038 8.038 0 0 1 0 11.344z"/><path d="m347.948 420.432a20.909 20.909 0 0 0 -14.9 6.183 21.146 21.146 0 0 0 0 29.828 21.046 21.046 0 0 0 29.8 0 21.145 21.145 0 0 0 0-29.829 20.913 20.913 0 0 0 -14.9-6.182zm6.407 27.535a9.045 9.045 0 0 1 -12.813 0 9.128 9.128 0 0 1 0-12.875 9.045 9.045 0 0 1 12.813 0 9.126 9.126 0 0 1 0 12.875z"/><path d="m430.319 359.01a21.044 21.044 0 0 0 -29.8 0 21.146 21.146 0 0 0 0 29.828 21.044 21.044 0 0 0 29.8 0 21.146 21.146 0 0 0 0-29.828zm-8.494 21.351a9.042 9.042 0 0 1 -12.813 0 9.128 9.128 0 0 1 0-12.875 9.045 9.045 0 0 1 12.813 0 9.128 9.128 0 0 1 0 12.875z"/><path d="m347.734 327.2a20.914 20.914 0 0 0 14.9-6.184 21.146 21.146 0 0 0 0-29.828 21.046 21.046 0 0 0 -29.8 0 21.145 21.145 0 0 0 0 29.829 20.91 20.91 0 0 0 14.9 6.183zm-6.407-27.535a9.044 9.044 0 0 1 12.814 0 9.128 9.128 0 0 1 0 12.875 9.045 9.045 0 0 1 -12.814 0 9.125 9.125 0 0 1 0-12.874z"/><path d="m280.265 352.61a20.918 20.918 0 0 0 -14.9 6.184 21.147 21.147 0 0 0 0 29.829 21.047 21.047 0 0 0 29.8 0 21.149 21.149 0 0 0 0-29.829 20.914 20.914 0 0 0 -14.9-6.184zm6.406 27.536a9.046 9.046 0 0 1 -12.814 0 9.126 9.126 0 0 1 0-12.875 9.044 9.044 0 0 1 12.814 0 9.128 9.128 0 0 1 0 12.875z"/><path d="m347.84 332.17a41.266 41.266 0 0 0 -29.4 12.2 41.749 41.749 0 0 0 0 58.887 41.269 41.269 0 0 0 29.4 12.2 41.267 41.267 0 0 0 29.4-12.2 41.749 41.749 0 0 0 0-58.887 41.266 41.266 0 0 0 -29.4-12.2zm20.908 62.613a29.52 29.52 0 0 1 -41.813 0 29.728 29.728 0 0 1 0-41.934 29.52 29.52 0 0 1 41.813 0 29.73 29.73 0 0 1 0 41.934z"/><path d="m347.841 264.033c-60.417 0-109.57 49.249-109.57 109.783s49.153 109.784 109.57 109.784 109.571-49.25 109.571-109.784-49.153-109.783-109.571-109.783zm0 207.566c-53.8 0-97.57-43.866-97.57-97.783s43.769-97.783 97.57-97.783 97.571 43.865 97.571 97.783-43.77 97.784-97.571 97.784z"/></g></svg>