<svg id="Layer_1" height="512" viewBox="0 0 512 512" width="512" xmlns="http://www.w3.org/2000/svg" data-name="Layer 1"><path d="m271.36 442.04v18.73a29.571 29.571 0 0 1 -29.57 29.57h-195.21a29.573 29.573 0 0 1 -29.58-29.57v-18.73z" fill="#879bc1"/><path d="m233.1 89.31-.17-.31h-38.73a50.145 50.145 0 0 1 -100.04 0h-47.58a29.762 29.762 0 0 0 -29.58 29.79v323.21h254v-185.06z" fill="#a9b9d8"/><path d="m271.36 263.94a131.366 131.366 0 1 1 70.84 20.74 131.447 131.447 0 0 1 -70.84-20.74z" fill="#58606d"/><path d="m342.2 40.54a112.625 112.625 0 1 1 -112.51 112.63 112.569 112.569 0 0 1 112.51-112.63z" fill="#797e89"/><path d="m369.52 125.81a38.661 38.661 0 1 1 -54.64 0 38.718 38.718 0 0 1 54.64 0z" fill="#998277"/><ellipse cx="415.605" cy="153.285" fill="#c79a83" rx="16.367" ry="16.387"/><ellipse cx="342.315" cy="226.645" fill="#c79a83" rx="16.37" ry="16.383"/><path d="m353.65 68.1a16.373 16.373 0 1 1 -23.14 0 16.38 16.38 0 0 1 23.14 0z" fill="#c79a83"/><path d="m352.94 142.41a15.2 15.2 0 1 1 -21.48 0 15.228 15.228 0 0 1 21.48 0z" fill="#c79a83"/><path d="m61.43 248.58h165.5v151.54h-165.5z" fill="#dfe1e6"/><path d="m76.58 89h-30a29.762 29.762 0 0 0 -29.58 29.79v323.21h30v-323.21a29.762 29.762 0 0 1 29.58-29.79z" fill="#95a4bc"/><path d="m47 460.77v-18.73h-30v18.73a29.573 29.573 0 0 0 29.58 29.57h30a29.573 29.573 0 0 1 -29.58-29.57z" fill="#7083a0"/><path d="m259.69 153.17a112.609 112.609 0 0 1 97.51-111.631 112.625 112.625 0 1 0 0 223.252 112.6 112.6 0 0 1 -97.51-111.621z" fill="#696e77"/><path d="m280.37 141.47a16.377 16.377 0 1 1 -23.15 0 16.4 16.4 0 0 1 23.15 0z" fill="#c79a83"/><g fill="#284268"><path d="m226 243h-165a6 6 0 0 0 -6 6v152a6 6 0 0 0 6 6h165a6 6 0 0 0 6-6v-152a6 6 0 0 0 -6-6zm-5 151h-154v-139h154z"/><path d="m163.437 294h39.317a6 6 0 1 0 0-12h-39.317a6 6 0 0 0 0 12z"/><path d="m85.607 294h51.421a6 6 0 1 0 0-12h-51.421a6 6 0 1 0 0 12z"/><path d="m202.754 306h-83.564a6 6 0 0 0 0 12h83.564a6 6 0 1 0 0-12z"/><path d="m85.607 318h7.174a6 6 0 0 0 0-12h-7.174a6 6 0 1 0 0 12z"/><path d="m202.754 330h-43.718a6 6 0 0 0 0 12h43.718a6 6 0 1 0 0-12z"/><path d="m85.607 342h47.019a6 6 0 0 0 0-12h-47.019a6 6 0 1 0 0 12z"/><path d="m202.754 354h-73.185a6 6 0 1 0 0 12h73.185a6 6 0 1 0 0-12z"/><path d="m85.607 366h18.6a6 6 0 0 0 0-12h-18.6a6 6 0 1 0 0 12z"/><path d="m42 133.249a6 6 0 0 0 -6 6v6.2a6 6 0 0 0 12 0v-6.2a6 6 0 0 0 -6-6z"/><path d="m42 158.179a6 6 0 0 0 -6 6v100.527a6 6 0 0 0 12 0v-100.527a6 6 0 0 0 -6-6z"/><path d="m495 218.691a35.228 35.228 0 0 0 -35.033 35.227 24.07 24.07 0 0 1 -23.886 24.082h-36.313a137.7 137.7 0 0 0 79.8-124.833c0-75.822-61.622-137.508-137.367-137.508a137.4 137.4 0 0 0 -118.094 67.341h-29.907a6.1 6.1 0 0 0 -5.985 5.685 44.139 44.139 0 0 1 -88.069-.027 6.072 6.072 0 0 0 -5.985-5.658h-47.586a35.8 35.8 0 0 0 -35.575 35.786v341.988a35.321 35.321 0 0 0 35.575 35.226h195.211a35.013 35.013 0 0 0 35.214-35.226v-186.6a136.4 136.4 0 0 0 65.2 16.5q6.9 0 13.633-.676h80.25a36.084 36.084 0 0 0 35.888-36.082 23.145 23.145 0 0 1 23.029-23.144 6.041 6.041 0 0 0 0-12.081zm-230 242.083a23 23 0 0 1 -23.214 23.226h-195.211a23.308 23.308 0 0 1 -23.575-23.226v-12.774h242zm0-24.774h-242v-317.214a23.785 23.785 0 0 1 23.575-23.786h42.278a56.144 56.144 0 0 0 110.655 0h18.238a137.471 137.471 0 0 0 47.254 171.848zm77.2-157.324c-69.127 0-125.366-56.3-125.366-125.509s56.237-125.508 125.366-125.508 125.367 56.3 125.367 125.508-56.241 125.509-125.367 125.509z"/><path d="m342.2 131.961a21.207 21.207 0 0 0 0 42.413 21.207 21.207 0 0 0 0-42.413zm6.5 27.719a9.178 9.178 0 0 1 -12.991 0 9.228 9.228 0 0 1 0-13.025 9.178 9.178 0 0 1 12.991 0 9.228 9.228 0 0 1 -.006 13.025z"/><path d="m342.315 204.266a22.384 22.384 0 1 0 15.818 6.558 22.214 22.214 0 0 0 -15.818-6.558zm7.328 29.734a10.355 10.355 0 0 1 -14.656 0 10.407 10.407 0 0 1 0-14.69 10.355 10.355 0 0 1 14.656 0 10.407 10.407 0 0 1 0 14.69z"/><path d="m431.422 137.459a22.384 22.384 0 1 0 0 31.651 22.209 22.209 0 0 0 0-31.651zm-8.49 23.17a10.355 10.355 0 0 1 -14.656 0 10.407 10.407 0 0 1 0-14.69 10.355 10.355 0 0 1 14.656 0 10.407 10.407 0 0 1 0 14.69z"/><path d="m342.081 102.069a22.384 22.384 0 1 0 -15.818-6.558 22.212 22.212 0 0 0 15.818 6.558zm-7.328-29.729a10.355 10.355 0 0 1 14.656 0 10.407 10.407 0 0 1 0 14.69 10.355 10.355 0 0 1 -14.656 0 10.408 10.408 0 0 1 0-14.69z"/><path d="m268.792 130.666a22.385 22.385 0 1 0 15.818 6.559 22.21 22.21 0 0 0 -15.818-6.559zm7.328 29.73a10.355 10.355 0 0 1 -14.656 0 10.41 10.41 0 0 1 0-14.691 10.355 10.355 0 0 1 14.656 0 10.408 10.408 0 0 1 0 14.695z"/><path d="m342.2 108.485a44.683 44.683 0 1 0 31.569 13.09 44.324 44.324 0 0 0 -31.569-13.09zm23.078 67.8a32.611 32.611 0 0 1 -46.156 0 32.749 32.749 0 0 1 0-46.225 32.611 32.611 0 0 1 46.156 0 32.747 32.747 0 0 1 -.002 46.22z"/><path d="m342.2 34.542c-65.343 0-118.5 53.215-118.5 118.625s53.16 118.625 118.5 118.625 118.5-53.214 118.5-118.625-53.159-118.625-118.5-118.625zm0 225.25c-58.726 0-106.5-47.831-106.5-106.625s47.772-106.625 106.5-106.625 106.5 47.832 106.5 106.625-47.776 106.625-106.5 106.625z"/></g></svg>