<svg id="Layer_1" height="512" viewBox="0 0 512 512" width="512" xmlns="http://www.w3.org/2000/svg" data-name="Layer 1"><path d="m464.94 38h-380.79a29.817 29.817 0 0 0 -30.15 29.68v203.32l182 45h228.94a30.146 30.146 0 0 0 30.06-30.15v-218.17a29.746 29.746 0 0 0 -30.06-29.68z" fill="#6994fe"/><path d="m495 96.26v56.66h-.74-439.44-.74v-56.66h.74 439.44z" fill="#7d8696"/><path d="m114.15 38h-30a29.817 29.817 0 0 0 -30.15 29.68v203.32l30 7.418v-210.738a29.817 29.817 0 0 1 30.15-29.68z" fill="#638ee5"/><path d="m54.82 96.26h-.74v56.66h.74 29.26v-56.66z" fill="#6b737f"/><path d="m420.76 217.99a28.95 28.95 0 0 1 0 57.9h-73.65a28.95 28.95 0 0 1 0-57.9z" fill="#7ce5e9"/><path d="m275.49 315.98a131.852 131.852 0 0 1 2.87 27.43c0 72.32-58.5 130.95-130.68 130.95s-130.68-58.63-130.68-130.95a130.671 130.671 0 0 1 258.49-27.43z" fill="#8ea3ca"/><path d="m147.68 231.26a112.145 112.145 0 1 1 -111.91 112.15c0-61.94 50.1-112.15 111.91-112.15z" fill="#a9b9d8"/><path d="m176.23 314.8a40.418 40.418 0 1 1 -57.1 0 40.517 40.517 0 0 1 57.1 0z" fill="#8ea3ca"/><path d="m234.93 331.99a16.3 16.3 0 1 1 -23.02 0 16.332 16.332 0 0 1 23.02 0z" fill="#e9ba6e"/><path d="m159.31 407.76a16.3 16.3 0 1 1 -23.02 0 16.332 16.332 0 0 1 23.02 0z" fill="#e9ba6e"/><path d="m159.08 255.98a16.3 16.3 0 1 1 -23.03 0 16.344 16.344 0 0 1 23.03 0z" fill="#e9ba6e"/><path d="m160.23 330.83a17.77 17.77 0 1 1 -25.1 0 17.8 17.8 0 0 1 25.1 0z" fill="#e9ba6e"/><path d="m65.77 343.41a112.083 112.083 0 0 1 96.91-111.144 112.637 112.637 0 0 0 -15-1.006c-61.81 0-111.91 50.21-111.91 112.15a111.937 111.937 0 0 0 126.91 111.134 112.08 112.08 0 0 1 -96.91-111.134z" fill="#9faec4"/><path d="m83.46 331.75a16.3 16.3 0 1 1 -23.03 0 16.363 16.363 0 0 1 23.03 0z" fill="#e9ba6e"/><g fill="#284268"><path d="m464.938 32h-380.792a35.86 35.86 0 0 0 -36.146 35.681v182.131a136.589 136.589 0 0 0 -37 93.595c0 75.514 61.315 136.95 136.682 136.95a137.021 137.021 0 0 0 19.194-1.357h74.2a35.651 35.651 0 0 0 35.732-35.614 22.861 22.861 0 0 1 22.882-22.852 5.956 5.956 0 1 0 0-11.911 34.8 34.8 0 0 0 -34.882 34.763 23.637 23.637 0 0 1 -23.733 23.614h-34.548a137.116 137.116 0 0 0 76.163-145h182.248a36.183 36.183 0 0 0 36.062-36.146v-218.173a35.788 35.788 0 0 0 -36.062-35.681zm-317.256 436.357c-68.75 0-124.682-56.052-124.682-124.95s55.932-124.95 124.682-124.95 124.682 56.052 124.682 124.95-55.932 124.95-124.682 124.95zm341.318-182.503a24.169 24.169 0 0 1 -24.062 24.146h-184.695c-14.922-59.42-68.692-103.543-132.561-103.543a135.9 135.9 0 0 0 -87.682 31.981v-79.438h429zm0-138.854h-429v-45h429zm0-57h-429v-22.319a23.846 23.846 0 0 1 24.146-23.681h380.792a23.775 23.775 0 0 1 24.062 23.681z"/><path d="m347.109 282h73.653a35 35 0 0 0 0-70h-73.653a35 35 0 0 0 0 70zm0-58h73.653a23 23 0 0 1 0 46h-73.653a23 23 0 0 1 0-46z"/><path d="m31 79.544a6 6 0 0 0 6-6v-4.357a6 6 0 0 0 -12 0v4.357a6 6 0 0 0 6 6z"/><path d="m25 238.083a6 6 0 0 0 12 0v-143.621a6 6 0 0 0 -12 0z"/><path d="m147.682 319.619a23.577 23.577 0 0 0 -16.8 6.971 23.844 23.844 0 0 0 0 33.634 23.728 23.728 0 0 0 33.6 0 23.844 23.844 0 0 0 0-33.634 23.575 23.575 0 0 0 -16.8-6.971zm8.305 32.128a11.727 11.727 0 0 1 -16.611 0 11.826 11.826 0 0 1 0-16.68 11.727 11.727 0 0 1 16.611 0 11.824 11.824 0 0 1 0 16.68z"/><path d="m147.8 396.98a22.117 22.117 0 0 0 -15.759 6.541 22.364 22.364 0 0 0 0 31.548 22.256 22.256 0 0 0 31.519 0 22.366 22.366 0 0 0 0-31.548 22.117 22.117 0 0 0 -15.76-6.541zm7.264 29.613a10.256 10.256 0 0 1 -14.53 0 10.347 10.347 0 0 1 0-14.6 10.256 10.256 0 0 1 14.53 0 10.346 10.346 0 0 1 -.001 14.6z"/><path d="m207.662 359.3a22.116 22.116 0 0 0 15.758 6.54 22.121 22.121 0 0 0 15.76-6.54 22.367 22.367 0 0 0 0-31.549 22.258 22.258 0 0 0 -31.519 0 22.365 22.365 0 0 0 .001 31.549zm8.494-23.072a10.257 10.257 0 0 1 14.531 0 10.346 10.346 0 0 1 0 14.6 10.257 10.257 0 0 1 -14.531 0 10.346 10.346 0 0 1 0-14.602z"/><path d="m147.565 289.833a22.117 22.117 0 0 0 15.76-6.54 22.366 22.366 0 0 0 0-31.548 22.256 22.256 0 0 0 -31.519 0 22.366 22.366 0 0 0 0 31.548 22.114 22.114 0 0 0 15.759 6.54zm-7.265-29.612a10.257 10.257 0 0 1 14.531 0 10.347 10.347 0 0 1 0 14.6 10.259 10.259 0 0 1 -14.531 0 10.347 10.347 0 0 1 0-14.6z"/><path d="m71.943 320.976a22.121 22.121 0 0 0 -15.76 6.54 22.365 22.365 0 0 0 0 31.549 22.258 22.258 0 0 0 31.519 0 22.365 22.365 0 0 0 0-31.549 22.117 22.117 0 0 0 -15.759-6.54zm7.265 29.612a10.257 10.257 0 0 1 -14.531 0 10.346 10.346 0 0 1 0-14.6 10.257 10.257 0 0 1 14.531 0 10.346 10.346 0 0 1 0 14.6z"/><path d="m147.682 296.944a46.034 46.034 0 0 0 -32.8 13.614 46.576 46.576 0 0 0 0 65.7 46.32 46.32 0 0 0 65.6 0 46.574 46.574 0 0 0 0-65.7 46.03 46.03 0 0 0 -32.8-13.614zm24.305 70.836a34.322 34.322 0 0 1 -48.611 0 34.557 34.557 0 0 1 0-48.746 34.319 34.319 0 0 1 48.611 0 34.557 34.557 0 0 1 0 48.746z"/><path d="m147.682 225.26c-65.02 0-117.917 53-117.917 118.147s52.9 118.147 117.917 118.147 117.917-53 117.917-118.147-52.899-118.147-117.917-118.147zm0 224.294c-58.4 0-105.917-47.617-105.917-106.147s47.514-106.147 105.917-106.147 105.918 47.617 105.918 106.147-47.516 106.147-105.918 106.147z"/></g></svg>