<svg id="Layer_1" enable-background="new 0 0 512 512" height="512" viewBox="0 0 512 512" width="512" xmlns="http://www.w3.org/2000/svg"><path d="m17 190 46.6 247.7c.3 1.8 1.8 3.2 3.6 3.3h196c1.8-.1 3.3-1.4 3.6-3.2l.8-4.4.2-.3 36.9-196.4 8.5-46.7z" fill="#ea7288"/><path d="m93.6 437.7-46.6-247.7h-30l46.6 247.7c.3 1.8 1.8 3.2 3.6 3.3h30c-1.8-.1-3.3-1.5-3.6-3.3z" fill="#cc667c"/><path d="m254.5 279h-220.8l16.1 85h185.3v.1l19.7-85.2z" fill="#ccd3df"/><path d="m33.7 279 16.1 85h30l-16.1-85z" fill="#b1bbc9"/><path d="m203 278.6c23.7 20.9 26 57 5.1 80.7s-57 26-80.7 5.1-26-57-5.1-80.7c10.9-12.3 26.5-19.4 42.9-19.4 13.9 0 27.3 5.1 37.8 14.3z" fill="#8b9fc6"/><path d="m225 93.1c-1.4-5.6-4.3-10.7-8.4-14.8 5.6-12.4 0-27-12.4-32.6s-27 0-32.6 12.4c-.7 1.7-1.3 3.4-1.7 5.2-12-2.4-24.2 3.6-29.5 14.7-.6 1.3-1.2 2.7-1.6 4.2 9.6 3.6 14.5 14.2 10.9 23.8-.6 1.5-1.4 3-2.3 4.3 6 5 13.9 7.1 21.6 5.9 2.6 4.4 6.3 8 10.8 10.5l30-10.3c-.6-10.3 5.6-19.7 15.3-23.2z" fill="#f5cac1"/><path d="m264.6 103.2c-3.9-1.6-8.2-2-12.3-1.1-7.2-10.6-21.7-13.4-32.3-6.2-6.8 4.6-10.6 12.4-10.2 20.6l9.8 33.5s.1.1.1.1h.1c2 2.9 4.8 5.2 8.1 6.6 6.7 2.8 14.5 1.5 19.9-3.4h.1c1.7-12.6 13.2-21.5 25.9-19.9h.2v-.4c.6-1 1.2-2 1.6-3.1 4.2-10.4-.6-22.3-11-26.7z" fill="#fbedce"/><path d="m304.8 235.5c61.5-26.9 133.2 1.1 160.2 62.6 26.9 61.5-1.1 133.2-62.6 160.2-61.5 26.9-133.2-1.1-160.2-62.6-16.7-38.2-12.7-82.3 10.6-116.9 12.8-19.1 30.9-34.1 52-43.3z" fill="#8fbdc1"/><path d="m353.5 242.8c57.5 0 104.1 46.7 104.1 104.2s-46.7 104.1-104.2 104.1-104.1-46.6-104.1-104.1c.1-57.6 46.7-104.2 104.2-104.2z" fill="#b4d8e3"/><path d="m378.8 321.6c14 14 14 36.6 0 50.6s-36.6 14-50.6 0-14-36.6 0-50.6 36.6-14 50.6 0z" fill="#8fbdc1"/><g fill="#d4d6da"><circle cx="421.5" cy="347" r="15.2"/><circle cx="353.6" cy="414.8" r="15.2"/><path d="m364.1 268.2c5.9 5.9 5.9 15.5 0 21.4s-15.5 5.9-21.4 0-5.9-15.5 0-21.4 15.5-5.9 21.4 0z"/><ellipse cx="353.5" cy="346.9" rx="14.1" ry="14.1"/></g><path d="m301.9 144.4c10.3 4.3 15.1 16.2 10.8 26.5-3.6 8.5-12.5 13.5-21.6 12.2-.2 1.5-.7 3-1.2 4.4-.3.7-.7 1.4-1 2.1h-32.3v-.2c-2.7-4.9-3.1-10.7-1.1-15.9-9.5-8.4-10.5-23-2-32.6 8.4-9.5 23-10.5 32.6-2 1.4 1.3 2.7 2.7 3.8 4.3 3.9-.8 8.1-.4 12 1.2z" fill="#f5cac1"/><path d="m255.3 173.6c-5.7-5.1-8.4-12.7-7.3-20.3-6 4.7-13.1 6.3-20 3.4-3.3-1.4-6.1-3.6-8.2-6.6h-.1l-39.9-23.4c-4.4-2.6-8.1-6.2-10.7-10.5-7.7 1.3-15.6-.9-21.6-5.9l-59.7-23.7c0-.9.1-1.9.2-2.8-12.4-8.3-29.2-5-37.5 7.4s-5 29.2 7.4 37.5c.5.4 1.1.7 1.7 1l-.1.2c0 5.6 1.4 11.1 4 16-1.3-.2-2.7-.3-4-.2-18.8.1-34 15.4-33.9 34.2 0 3.3.5 6.5 1.4 9.7v.6h229v-.6c-2-4.9-2.8-10.7-.7-16z" fill="#fdddd8"/><path d="m179.8 126.7c5.9-11.3 19.8-15.7 31.1-9.7s15.7 19.8 9.7 31.1c-.3.6-.7 1.3-1.1 1.9 0 0 .1.1.1.1 6.4 9.2 4.1 21.8-5.1 28.2s-21.8 4.1-28.2-5.1c-1.4-2-2.4-4.1-3-6.5-9.9 2.5-20-3.5-22.6-13.4-2.5-9.9 3.5-20 13.4-22.6 1.3-.3 2.7-.5 4.1-.6.5-1.1 1-2.3 1.6-3.4z" fill="#e8d0bf"/><path d="m146.5 162.9c7.5 6.5 9.9 17.1 6 26.3l-.2.5c-5.2 11.6-18.9 16.8-30.5 11.6-3.9-1.7-7.2-4.5-9.6-8.1-10.9 2.4-21.7-4.5-24.1-15.4s4.5-21.7 15.4-24.1c2.4-.5 4.9-.6 7.3-.2.2-1.5.7-3 1.2-4.4 4-9.4 14.9-13.9 24.3-9.9 9.4 3.8 13.9 14.3 10.2 23.7z" fill="#ffc9c0"/><path d="m147.4 110.3c-3.4 4.7-8.8 7.6-14.6 7.8-4 12.1-17.1 18.6-29.2 14.6s-18.6-17.1-14.6-29.2c.6-1.8 1.5-3.6 2.5-5.2-2.4-3.4-3.7-7.5-3.7-11.7 0-.9.1-1.9.2-2.8 1.6-11.1 11.8-18.8 22.9-17.2 8.1 1.1 14.7 7.1 16.8 15 1.5-.4 3-.6 4.6-.6 2.2 0 4.4.4 6.5 1.2 9.6 3.6 14.5 14.2 10.9 23.8-.6 1.5-1.4 3-2.3 4.3z" fill="#fbedce"/><path d="m138 321.5c0-25.8 17.3-48.3 42.2-55.1-30.4-8.3-61.8 9.7-70.1 40.1s9.7 61.8 40.1 70.1c9.8 2.7 20.1 2.7 29.9 0-24.8-6.8-42.1-29.4-42.1-55.1z" fill="#798dad"/><path d="m279.4 346.9c0-51.7 38-95.6 89.2-103.1-56.9-8.3-109.7 31.2-118 88.1s31.2 109.7 88.1 118c9.9 1.4 20 1.4 29.9 0-51.3-7.4-89.2-51.3-89.2-103z" fill="#9fc1c9"/><circle cx="285.6" cy="346.8" fill="#d4d6da" r="15.1"/><g fill="#284268"><path d="m339.3 332.7c-3.8 3.8-5.9 8.8-5.9 14.2s2.1 10.4 5.9 14.2c3.9 3.9 9 5.9 14.2 5.9 5.1 0 10.3-2 14.2-5.9 3.8-3.8 5.9-8.8 5.9-14.2s-2.1-10.4-5.9-14.2c-7.8-7.8-20.5-7.8-28.4 0zm19.9 19.9c-3.1 3.1-8.3 3.1-11.4 0-1.5-1.5-2.4-3.5-2.4-5.7s.8-4.2 2.4-5.7c1.6-1.6 3.6-2.4 5.7-2.4s4.1.8 5.7 2.4c1.5 1.5 2.4 3.5 2.4 5.7 0 2.1-.8 4.2-2.4 5.7z"/><path d="m338.7 399.9c-4 4-6.2 9.3-6.2 15 0 5.6 2.2 11 6.2 15 4.1 4.1 9.5 6.2 15 6.2 5.4 0 10.8-2.1 15-6.2 4-4 6.2-9.3 6.2-15 0-5.6-2.2-11-6.2-15-8.4-8.3-21.8-8.3-30 0zm21.4 21.4c-3.6 3.6-9.4 3.6-12.9 0-1.7-1.7-2.7-4-2.7-6.5 0-2.4 1-4.7 2.7-6.5 1.8-1.8 4.1-2.7 6.5-2.7 2.3 0 4.7.9 6.5 2.7 1.7 1.7 2.7 4 2.7 6.5-.1 2.5-1.1 4.8-2.8 6.5z"/><path d="m436.4 332c-8.2-8.2-21.7-8.2-29.9 0-4 4-6.2 9.3-6.2 15 0 5.6 2.2 11 6.2 15 4.1 4.1 9.5 6.2 15 6.2 5.4 0 10.8-2.1 15-6.2 4-4 6.2-9.3 6.2-15-.1-5.7-2.3-11-6.3-15zm-8.4 21.5c-3.6 3.6-9.4 3.6-12.9 0-1.7-1.7-2.7-4-2.7-6.5 0-2.4 1-4.7 2.7-6.5 1.8-1.8 4.1-2.7 6.5-2.7 2.3 0 4.7.9 6.5 2.7 1.7 1.7 2.7 4 2.7 6.5-.2 2.4-1.1 4.7-2.8 6.5z"/><path d="m353.4 300.1c5.4 0 10.8-2.1 15-6.2 4-4 6.2-9.3 6.2-15 0-5.6-2.2-11-6.2-15-8.2-8.2-21.7-8.2-29.9 0-4 4-6.2 9.3-6.2 15 0 5.6 2.2 11 6.2 15 4.1 4.1 9.5 6.2 14.9 6.2zm-6.4-27.6c1.8-1.8 4.1-2.7 6.5-2.7s4.7.9 6.5 2.7c1.7 1.7 2.7 4 2.7 6.5 0 2.4-1 4.7-2.7 6.5-3.6 3.6-9.4 3.6-12.9 0-1.7-1.7-2.7-4-2.7-6.5-.1-2.5.8-4.8 2.6-6.5z"/><path d="m270.6 331.8c-4 4-6.2 9.3-6.2 15s2.2 11 6.2 15c4.1 4.1 9.5 6.2 15 6.2 5.4 0 10.8-2.1 15-6.2 4-4 6.2-9.3 6.2-15s-2.2-11-6.2-15c-8.3-8.2-21.7-8.2-30 0zm21.4 21.4c-3.6 3.6-9.4 3.6-12.9 0-1.7-1.7-2.7-4-2.7-6.5s1-4.7 2.7-6.5c1.8-1.8 4.1-2.7 6.5-2.7s4.7.9 6.5 2.7c1.7 1.7 2.7 4 2.7 6.5s-1 4.8-2.8 6.5z"/><path d="m324 317.4c-7.9 7.9-12.2 18.4-12.2 29.5s4.3 21.6 12.2 29.5c8.1 8.1 18.8 12.2 29.5 12.2s21.4-4.1 29.5-12.2c7.9-7.9 12.2-18.4 12.2-29.5s-4.3-21.6-12.2-29.5c-16.2-16.3-42.7-16.3-59 0zm50.6 50.5c-11.6 11.6-30.5 11.6-42.1 0-5.6-5.6-8.7-13.1-8.7-21 0-8 3.1-15.4 8.7-21 5.8-5.8 13.4-8.7 21.1-8.7 7.6 0 15.2 2.9 21.1 8.7 5.6 5.6 8.7 13.1 8.7 21-.1 7.9-3.2 15.4-8.8 21z"/><path d="m495 407.9c-18.1 0-32.9 14.7-32.9 32.9 0 11.9-9.7 21.7-21.7 21.7h-32.9c43.5-20.4 73.6-64.5 73.6-115.6 0-70.3-57.3-127.6-127.6-127.6-14.3 0-28.1 2.4-40.9 6.7l6.6-35.3c.3-1.8-.1-3.6-1.3-4.9-1.1-1.4-2.8-2.2-4.6-2.2h-3.1c3.4-2.7 6.2-6.2 7.9-10.4 2.7-6.5 2.8-13.6.1-20.1-2.6-6.5-7.7-11.6-14.1-14.3-3.8-1.6-7.9-2.3-11.9-2-2.8-3.2-6.4-5.7-10.3-7.4 1.7-5.7 1.4-11.8-.8-17.5-2.7-6.5-7.7-11.6-14.2-14.4-3.8-1.6-7.9-2.3-12-2-2.9-3.2-6.4-5.8-10.5-7.5-5-2.1-10.3-2.7-15.4-2-1.4-3.3-3.2-6.4-5.5-9.2 4.3-14.3-2.2-29.7-16.1-36.4-15.2-7.3-33.6-.9-41 14.3-.3.6-.6 1.3-.8 1.9-12.7-.4-24.8 6.6-30.6 18.4-.9-.1-1.9-.2-2.8-.2-.2 0-.4 0-.6 0-4.3-8.8-13.4-14.6-23.6-14.6-10.4 0-19.4 6.1-23.7 14.9-3.6-1.3-7.5-2-11.4-2-18.2 0-33 14.8-33 33 0 8.8 3.4 17.1 9.7 23.3 1.2 1.2 2.6 2.4 4 3.4.2 2.3.6 4.7 1.1 6.9-19.7 2.5-35 19.3-35 39.6 0 1.5.1 2.9.2 4.3h-2.9c-1.8 0-3.5.8-4.6 2.2s-1.6 3.2-1.3 4.9l46.6 248.1c.9 4.6 4.9 7.9 9.5 7.9h196c2.8 0 5.4-1.2 7.1-3.2 21.6 18.6 49.6 30.2 80.1 30.9h90c18.6 0 33.7-15.1 33.7-33.7 0-11.5 9.4-20.9 20.9-20.9 3.3 0 6-2.7 6-6s-2.7-5.9-6-5.9zm-217.7-267.3c3 1.3 5.6 3.4 7.5 6.1 1.4 2 3.9 3 6.2 2.5 2.9-.6 5.8-.4 8.6.8 3.5 1.5 6.2 4.2 7.7 7.8 1.4 3.5 1.4 7.4-.1 10.9-2.5 6-8.8 9.5-15.2 8.6-3.3-.5-6.3 1.8-6.8 5-.1.5-.2 1-.3 1.5h-24.2c-.7-2.6-.6-5.3.4-7.9.9-2.4.3-5-1.6-6.7-5.5-4.8-7.3-12.7-4.4-19.4 3.4-8.8 13.5-12.9 22.2-9.2zm-37.5-41.4c3.1 1.3 5.7 3.4 7.6 6.2 1.4 2 3.9 3 6.2 2.5 2.9-.6 5.9-.4 8.7.8 3.6 1.5 6.3 4.3 7.8 7.9 1.4 3.4 1.4 7.2.1 10.7-11.1.2-21.6 6.9-26.2 17.7-.7 1.6-1.2 3.3-1.6 4.9-3.5 2.4-8.1 2.9-12.1 1.2-1.2-.5-2.3-1.2-3.3-2 1.6-3.6 2.4-7.6 2.4-11.6 0-7.8-3-15.1-8.5-20.5-1.5-1.5-3.1-2.8-4.9-3.9.2-1.6.6-3.1 1.2-4.6 3.6-8.9 13.8-13 22.6-9.3zm8.5 84.5h-31.1c6.8-4.4 11.4-11.8 11.9-20.3 1.9.5 3.9.7 5.8.7 2.5 0 4.9-.4 7.3-1.1 1.1 4.5 3.2 8.7 6.3 12.3-.5 2.7-.6 5.6-.2 8.4zm-95-22.5c2.5-11.4-3.4-23-14.5-27.7-2.5-1.1-5.1-1.7-7.7-1.9 2.4-2.3 4.4-5 5.8-8 4.3-.8 8.2-2.7 11.3-5.4.7.4 1.3.7 2 1.1 5 2.4 10.4 3.5 15.8 3.2 1 1.3 2 2.4 3.1 3.5-8.9 3.7-15 12.4-15 22.6 0 6.6 2.6 12.7 7.2 17.4 4.8 4.8 11.2 7.4 18 7.2 2.1 4.3 5.3 7.9 9.3 10.4h-28.6c1.1-8-1.3-16.2-6.7-22.4zm-10.7 6.2c5.5 4.8 7.3 12.7 4.4 19.4-3.7 8.7-13.7 12.7-22.4 9.1-3-1.3-5.6-3.4-7.5-6.1-1.1-1.7-3-2.6-5-2.6-.4 0-.9 0-1.3.1-2.9.6-5.8.4-8.6-.8-3.5-1.5-6.2-4.2-7.7-7.8-1.4-3.5-1.4-7.4.1-10.9 2.5-6 8.8-9.5 15.2-8.6 3.3.5 6.3-1.8 6.8-5 .2-1 .4-2 .8-3 2.7-6.4 10.1-9.4 16.5-6.7 6.2 2.6 9.3 9.9 6.8 16.1-.7 2.5 0 5.1 1.9 6.8zm40.8-6.7c-.5 0-1 .1-1.5.2-1 .3-2.1.4-3.1.4-3.4 0-6.5-1.3-8.9-3.7s-3.7-5.5-3.7-8.9c0-6.7 5.5-12.4 12.2-12.5 2.5-.1 4.7-1.7 5.5-4.1 2.3-7 8.8-11.6 16.2-11.6 4.6 0 8.9 1.8 12.1 5s5 7.5 5 12.1c0 3.3-.9 6.5-2.7 9.3-1.3 2.1-1.3 4.7.1 6.7 1.7 2.4 2.6 5.2 2.6 8.2 0 7.9-6.4 14.2-14.3 14.2-6.5 0-12.2-4.4-13.8-10.7-.6-2.8-3-4.6-5.7-4.6zm-14.7-91.5c3.2.7 6.4-1.4 7.1-4.7l.2-.9c.3-1.2.7-2.4 1.3-3.5 4.5-9.3 15.7-13.2 25-8.7 9 4.4 13 15.3 8.9 24.4-1 2.3-.5 5 1.3 6.8 2.2 2.2 4 4.7 5.3 7.6-5 3.1-9.2 7.7-11.7 13.5-.7 1.6-1.2 3.3-1.6 5-1.4-.2-2.8-.3-4.3-.3-8.6 0-16.4 3.7-21.8 9.9-1.6-1.5-3.1-3.3-4.2-5.2-1.3-2.1-3.7-3.2-6.1-2.8-4.3.7-8.6.1-12.5-1.8-.1 0-.2-.1-.3-.2 1-2.7 1.6-5.7 1.6-8.8 0-6.6-2.6-12.7-7.2-17.4-1-1-2.1-1.9-3.3-2.7 4.4-7.8 13.4-12 22.3-10.2zm-60.6 3.2c6.5 0 12.2 4.4 13.8 10.7.8 3.2 4.1 5.1 7.3 4.3 1-.3 2.1-.4 3.1-.4 3.4 0 6.5 1.3 8.9 3.7s3.7 5.5 3.7 8.9c0 6.7-5.5 12.4-12.2 12.5-2.5.1-4.7 1.7-5.5 4.1-2.3 7-8.8 11.7-16.2 11.7-4.6 0-8.9-1.8-12.1-5s-5-7.5-5-12.1c0-3.3.9-6.5 2.7-9.3 1.3-2 1.2-4.7-.2-6.7-1.7-2.4-2.6-5.2-2.6-8.2 0-7.9 6.4-14.2 14.3-14.2zm-48.7 79.2c1.1 0 2.2.1 3.3.2 2.2.3 4.4-.7 5.7-2.6s1.4-4.3.3-6.2c-.7-1.4-1.4-2.8-1.9-4.3 2 .4 4 .6 6.1.6 3.3 0 6-2.7 6-6s-2.7-6-6-6c-5.6 0-10.9-2.2-14.9-6.1-4-4-6.1-9.2-6.1-14.8 0-11.6 9.4-21 21-21 3.1 0 6.1.7 8.9 2 .1 3.9 1 7.7 2.8 11.2-1.8 3.9-2.8 8.1-2.8 12.4 0 7.8 3 15.1 8.5 20.5 5.5 5.5 12.8 8.5 20.6 8.5-1.7 2-3.2 4.2-4.3 6.8-.1.2-.2.4-.2.6-9.8.6-18.7 6.6-22.7 16-2.7 6.5-2.8 13.6-.1 20.1.1.1.1.2.2.4h-51.7c-.2-1.4-.3-2.9-.3-4.3-.1-15.6 12.3-28 27.6-28zm-35.2 44h69.8c1.2.7 2.4 1.4 3.7 1.9 3.8 1.6 7.9 2.3 11.9 2 2.9 3.2 6.4 5.7 10.4 7.4 3.7 1.6 7.5 2.3 11.3 2.3 9.8 0 19.3-5 24.7-13.6h150.2l-6.7 35.7c-19.9 9.3-36.9 23.6-49.6 41.3h-44.7c-10.9-8.9-24.8-14.3-40-14.3s-29.1 5.4-40 14.3h-86.5zm192.2 89h25.7c-6.5 11.5-11.2 24.2-13.8 37.5 0-.2 0-.5 0-.7 0-13.7-4.4-26.4-11.9-36.8zm10 73.7h-10c4.5-6.2 7.8-13.2 9.8-20.8-.2 3.1-.3 6.3-.3 9.4 0 3.8.2 7.6.5 11.4zm-10.1-36.8c0 28.2-22.9 51.1-51.2 51.1-28.2 0-51.2-22.9-51.2-51.1s22.9-51.1 51.2-51.1 51.2 22.9 51.2 51.1zm-175.4-36.9h73c-7.5 10.4-11.9 23.1-11.9 36.8s4.4 26.4 11.9 36.8h-59.1zm28.2 150.1-12.1-64.4h68.2c10.9 8.9 24.8 14.3 40 14.3s29.1-5.4 40-14.3h22.9c4.6 24.7 16.3 46.9 33 64.4zm168.8-87.8c0-63.7 51.9-115.6 115.6-115.6s115.6 51.9 115.6 115.6-51.9 115.6-115.6 115.6-115.6-51.9-115.6-115.6z"/><path d="m353.5 236.8c-60.7 0-110.2 49.4-110.2 110.1s49.4 110.1 110.2 110.1 110.2-49.4 110.2-110.1-49.4-110.1-110.2-110.1zm0 208.2c-54.1 0-98.2-44-98.2-98.1s44-98.1 98.2-98.1 98.2 44 98.2 98.1-44 98.1-98.2 98.1z"/><path d="m51.2 214h-6.2c-3.3 0-6 2.7-6 6s2.7 6 6 6h6.2c3.3 0 6-2.7 6-6s-2.7-6-6-6z"/><path d="m176.5 220c0-3.3-2.7-6-6-6h-100.6c-3.3 0-6 2.7-6 6s2.7 6 6 6h100.5c3.4 0 6.1-2.7 6.1-6z"/></g></svg>