<svg id="Layer_1" enable-background="new 0 0 512 512" height="512" viewBox="0 0 512 512" width="512" xmlns="http://www.w3.org/2000/svg"><path d="m472.1 202h-432.2c-12.7.2-22.9 10.5-22.9 23.2v106.8c0 12.6 10.2 22.9 22.9 22.9h432.5c12.5-.1 22.7-10.3 22.6-22.8v-.1-106.8c0-12.7-10.2-23-22.9-23.2z" fill="#9ac5a1"/><path d="m256 100.1c-50.5 0-91.4 40.9-91.4 91.4v.4c0 3.5.2 6.9.6 10.4 4.9 42.1 38.1 75.3 80.2 80.2 50.1 5.9 95.6-30 101.4-80.2.4-3.5.6-6.9.6-10.4v-.4c0-50.5-40.9-91.4-91.4-91.4z" fill="#797e89"/><path d="m319 191.5v.4c-.2 34.8-28.6 62.8-63.3 62.6-34.5-.2-62.4-28.1-62.6-62.6 0-.1 0-.3 0-.4 0-34.8 28.2-63 63-63s62.9 28.2 62.9 63z" fill="#49bdff"/><path d="m495 253.1v20.9h-.5-63.4v-20.9h63.4z" fill="#75967a"/><path d="m495 295.2v20.9h-.5-63.4v-20.9h63.4z" fill="#75967a"/><path d="m243 308h26c7.2 0 13 5.8 13 13 0 7.2-5.8 13-13 13h-26c-7.2 0-13-5.8-13-13 0-7.2 5.8-13 13-13z" fill="#ff5576"/><path d="m46 355v.3 27.7h420v-27.7-.3z" fill="#898871"/><path d="m452.7 382.9v29.1h-74.9v-29.1-.1h74.9z" fill="#797e89"/><path d="m134.2 382.9v29.1h-74.9v-29.1-.1h74.9z" fill="#797e89"/><path d="m47 332.1v-106.9c0-12.7 10.2-23.1 22.9-23.2h-30c-12.7.2-22.9 10.5-22.9 23.2v106.8c0 12.6 10.2 22.9 22.9 22.9h30c-12.7.1-22.9-10.2-22.9-22.8z" fill="#b8e0bd"/><path d="m223 191.9c0-.1 0-.3 0-.4 0-29 19.8-54.3 48-61.3-33.8-8.3-67.9 12.4-76.2 46.2-1.2 4.9-1.8 10-1.8 15.1v.4c.2 34.8 28.5 62.8 63.3 62.7 5 0 9.9-.6 14.7-1.8-28-6.9-47.8-32-48-60.9z" fill="#3eabdb"/><path d="m76 355h-30v.3 27.7h30v-27.7z" fill="#a5a38e"/><path d="m81.4 253.1v20.9h-63.4-1v-20.9h1z" fill="#75967a"/><path d="m81.4 295.2v20.9h-63.4-1v-20.9h1z" fill="#75967a"/><g fill="#284268"><path d="m472.1 196.3h-118.4c.1-1.7.1-3.5.1-5.2 0-53.9-43.9-97.8-97.8-97.8s-97.8 43.9-97.8 97.8c0 1.7 0 3.5.1 5.2h-118.4c-15.9 0-28.9 13-28.9 28.9v106.9c0 15.8 12.8 28.7 28.5 28.9v21.9c0 3.3 2.7 6 6 6h7.8v23.2c0 3.3 2.7 6 6 6h74.8c3.3 0 6-2.7 6-6v-23.2h231.7v23.2c0 3.3 2.7 6 6 6h74.8c3.3 0 6-2.7 6-6v-23.2h7.8c3.3 0 6-2.7 6-6v-21.9c15.8-.2 28.5-13.1 28.5-28.9v-106.9c.1-15.9-12.8-28.9-28.8-28.9zm-216.1-91c47.3 0 85.8 38.5 85.8 85.8s-38.5 85.8-85.8 85.8-85.8-38.5-85.8-85.8 38.5-85.8 85.8-85.8zm-233 153.8h52.4v8.9h-52.4zm0 42.1h52.4v8.9h-52.4zm105.2 104.9h-62.9v-17.2h62.8zm318.5 0h-62.8v-17.2h62.8zm13.8-29.3h-409v-15.8h409zm28.5-66.7h-51.9v-8.9h51.9zm0-42.1h-51.9v-8.9h51.9zm0-20.9h-57.9c-3.3 0-6 2.7-6 6v20.9c0 3.3 2.7 6 6 6h57.9v9.2h-57.9c-3.3 0-6 2.7-6 6v20.9c0 3.3 2.7 6 6 6h57.9v9.9c0 9.3-7.6 16.9-16.9 16.9h-432.2c-9.3 0-16.9-7.6-16.9-16.9v-9.9h58.4c3.3 0 6-2.7 6-6v-20.9c0-3.3-2.7-6-6-6h-58.4v-9.2h58.4c3.3 0 6-2.7 6-6v-20.9c0-3.3-2.7-6-6-6h-58.4v-21.9c0-9.3 7.6-16.9 16.9-16.9h119.8c8.2 45.8 48.2 80.6 96.3 80.6s88.1-34.8 96.3-80.6h119.8c9.3 0 16.9 7.6 16.9 16.9z"/><path d="m273.4 166.9c.8.4 19.6 10.6 11.9 36.6-.9 3.2.9 6.5 4.1 7.5.6.2 1.1.2 1.7.2 2.6 0 5-1.7 5.8-4.3 8.4-28.2-8-45.4-17.9-50.6-2.9-1.5-6.6-.4-8.1 2.5-1.6 2.9-.5 6.6 2.5 8.1z"/><path d="m269 302h-26c-10.5 0-19 8.5-19 19s8.5 19 19 19h26c10.5 0 19-8.5 19-19s-8.5-19-19-19zm0 26h-26c-3.9 0-7-3.1-7-7s3.1-7 7-7h26c3.9 0 7 3.1 7 7s-3.2 7-7 7z"/><path d="m46.2 219h-6.2c-3.3 0-6 2.7-6 6s2.7 6 6 6h6.2c3.3 0 6-2.7 6-6s-2.7-6-6-6z"/><path d="m145.5 219h-80.6c-3.3 0-6 2.7-6 6s2.7 6 6 6h80.5c3.3 0 6-2.7 6-6s-2.6-6-5.9-6z"/><path d="m256 259.4c37.6 0 68.3-30.6 68.3-68.3s-30.6-68.3-68.3-68.3-68.3 30.6-68.3 68.3 30.7 68.3 68.3 68.3zm0-124.5c31 0 56.3 25.2 56.3 56.3s-25.3 56.2-56.3 56.2-56.3-25.2-56.3-56.3 25.3-56.2 56.3-56.2z"/></g></svg>