<svg id="Layer_1" height="512" viewBox="0 0 512 512" width="512" xmlns="http://www.w3.org/2000/svg" data-name="Layer 1"><path d="m495 191.91-15.89 26.43 12.78 28.02-30.07-6.89-22.77 20.83-2.69-30.69-26.86-15.15 28.41-12.07 6.17-30.2 20.25 23.23z" fill="#efce7c"/><path d="m409.15 140.66-30.53 4.43-13.66 27.64-13.66-27.64-30.53-4.43 22.09-21.51-5.21-30.37 27.31 14.34 27.31-14.34-5.21 30.37z" fill="#efce7c"/><path d="m249.78 168.36a149.755 149.755 0 1 1 -149.76 149.75 149.756 149.756 0 0 1 149.76-149.75z" fill="#6b7077"/><path d="m292.79 96.01-30.54 4.43-13.65 27.64-13.66-27.64-30.54-4.43 22.1-21.51-5.22-30.37 27.32 14.34 27.31-14.34-5.22 30.37z" fill="#efce7c"/><path d="m176.42 140.66-30.53 4.43-13.66 27.64-13.66-27.64-30.53-4.43 22.09-21.51-5.21-30.37 27.31 14.34 27.31-14.34-5.21 30.37z" fill="#efce7c"/><path d="m102.5 214.46-26.86 15.15-2.69 30.69-22.77-20.83-30.07 6.89 12.78-28.02-15.89-26.43 30.67 3.51 20.25-23.23 6.17 30.2z" fill="#efce7c"/><path d="m249.78 189.86a128.255 128.255 0 1 1 -128.25 128.25 128.249 128.249 0 0 1 128.25-128.25z" fill="#878a8e"/><path d="m282.49 285.39a46.27 46.27 0 1 1 -65.43 0 46.274 46.274 0 0 1 65.43 0z" fill="#6b7077"/><path d="m349.76 305.05a18.661 18.661 0 1 1 -26.39 0 18.656 18.656 0 0 1 26.39 0z" fill="#aa9a7b"/><path d="m264.16 303.73a20.343 20.343 0 1 1 -28.77 0 20.352 20.352 0 0 1 28.77 0z" fill="#aa9a7b"/><path d="m263.1 391.71a18.653 18.653 0 1 1 -26.38 0 18.644 18.644 0 0 1 26.38 0z" fill="#aa9a7b"/><path d="m262.83 218.13a18.657 18.657 0 1 1 -26.38 0 18.656 18.656 0 0 1 26.38 0z" fill="#aa9a7b"/><path d="m151.53 318.11a128.265 128.265 0 0 1 113.249-127.372 128.255 128.255 0 1 0 0 254.754 128.268 128.268 0 0 1 -113.249-127.382z" fill="#76797c"/><circle cx="162.985" cy="317.98" fill="#aa9a7b" r="18.659"/><g fill="#284268"><path d="m423.964 393.7a39.2 39.2 0 0 0 -39.1 39.163 28.158 28.158 0 0 1 -28.064 28.137h-44.768a155.994 155.994 0 0 0 93.494-142.822c0-85.885-69.87-155.79-155.751-155.79s-155.752 69.857-155.752 155.742 69.87 155.814 155.752 155.814c5.95 0 11.819.056 17.6-.944h89.425a40.171 40.171 0 0 0 40.07-40.136 27.155 27.155 0 0 1 27.1-27.13 6.016 6.016 0 0 0 0-12.032zm-174.189 68.17c-79.265 0-143.752-64.489-143.752-143.758s64.487-143.756 143.752-143.756 143.751 64.49 143.751 143.758-64.486 143.758-143.751 143.758z"/><path d="m268.4 299.487a26.344 26.344 0 1 0 7.715 18.627 26.166 26.166 0 0 0 -7.715-18.627zm-8.486 28.77a14.344 14.344 0 1 1 0-20.285 14.345 14.345 0 0 1 0 20.285z"/><path d="m249.908 380.244a24.657 24.657 0 1 0 17.436 7.223 24.5 24.5 0 0 0 -17.436-7.223zm8.949 33.609a12.658 12.658 0 1 1 0-17.9 12.672 12.672 0 0 1 0 17.9z"/><path d="m354 300.812a24.658 24.658 0 1 0 0 34.871 24.49 24.49 0 0 0 0-34.871zm-8.484 26.388a12.652 12.652 0 1 1 0-17.9 12.573 12.573 0 0 1 0 17.9z"/><path d="m249.642 255.984a24.658 24.658 0 1 0 -17.435-7.222 24.492 24.492 0 0 0 17.435 7.222zm-8.95-33.608a12.658 12.658 0 1 1 0 17.9 12.573 12.573 0 0 1 0-17.9z"/><path d="m162.984 293.323a24.658 24.658 0 1 0 17.435 7.222 24.5 24.5 0 0 0 -17.435-7.222zm8.95 33.608a12.658 12.658 0 1 1 0-17.9 12.576 12.576 0 0 1 0 17.9z"/><path d="m249.775 265.84a52.275 52.275 0 1 0 36.962 15.311 51.93 51.93 0 0 0 -36.962-15.311zm28.476 80.752a40.274 40.274 0 1 1 0-56.956 40 40 0 0 1 0 56.956z"/><path d="m249.775 183.86c-74.025 0-134.249 60.226-134.249 134.254s60.224 134.254 134.249 134.254 134.248-60.226 134.248-134.254-60.223-134.254-134.248-134.254zm0 256.508a122.254 122.254 0 1 1 122.248-122.254 122.39 122.39 0 0 1 -122.248 122.254z"/><path d="m187.252 218.07a118.033 118.033 0 0 0 -51.143 68.367 6 6 0 1 0 11.558 3.224 106.059 106.059 0 0 1 45.962-61.426 6 6 0 1 0 -6.377-10.165z"/><path d="m204.6 221.627a5.969 5.969 0 0 0 2.425-.515c2.07-.916 4.2-1.776 6.316-2.555a6 6 0 0 0 -4.136-11.265c-2.364.869-4.732 1.827-7.038 2.848a6 6 0 0 0 2.433 11.487z"/><path d="m198.7 97.863a6 6 0 0 0 4.845 4.085l27.416 3.979 12.259 24.807a6 6 0 0 0 10.758 0l12.259-24.807 27.416-3.979a6 6 0 0 0 3.325-10.237l-19.838-19.311 4.681-27.26a6 6 0 0 0 -8.7-6.329l-24.521 12.88-24.529-12.876a6 6 0 0 0 -8.7 6.329l4.682 27.26-19.836 19.307a6 6 0 0 0 -1.517 6.152zm31.984-19.063a6 6 0 0 0 1.728-5.315l-3.16-18.4 16.554 8.691a6 6 0 0 0 5.578 0l16.554-8.691-3.16 18.4a6 6 0 0 0 1.728 5.315l13.376 13.02-18.492 2.68a6 6 0 0 0 -4.518 3.28l-8.272 16.753-8.278-16.749a6 6 0 0 0 -4.522-3.284l-18.492-2.68z"/><path d="m82.329 142.515a6 6 0 0 0 4.845 4.086l27.416 3.978 12.26 24.807a6 6 0 0 0 10.758 0l12.259-24.807 27.417-3.978a6 6 0 0 0 3.323-10.238l-19.834-19.307 4.682-27.256a6 6 0 0 0 -8.7-6.328l-24.526 12.871-24.524-12.876a6 6 0 0 0 -8.705 6.333l4.683 27.261-19.832 19.302a6 6 0 0 0 -1.522 6.152zm31.988-19.063a6 6 0 0 0 1.729-5.315l-3.16-18.4 16.554 8.691a6 6 0 0 0 5.578 0l16.553-8.691-3.159 18.4a6 6 0 0 0 1.728 5.315l13.376 13.021-18.493 2.683a6 6 0 0 0 -4.517 3.28l-8.277 16.749-8.278-16.749a6 6 0 0 0 -4.517-3.28l-18.492-2.683z"/><path d="m315.062 142.515a6 6 0 0 0 4.845 4.086l27.415 3.978 12.26 24.807a6 6 0 0 0 10.758 0l12.26-24.807 27.415-3.978a6 6 0 0 0 3.324-10.238l-19.834-19.307 4.683-27.256a6 6 0 0 0 -8.7-6.328l-24.527 12.871-24.523-12.876a6 6 0 0 0 -8.7 6.328l4.682 27.261-19.834 19.307a6 6 0 0 0 -1.524 6.152zm31.989-19.063a6 6 0 0 0 1.727-5.315l-3.159-18.4 16.553 8.691a6 6 0 0 0 5.578 0l16.55-8.687-3.159 18.4a6 6 0 0 0 1.727 5.315l13.376 13.021-18.491 2.683a6 6 0 0 0 -4.518 3.28l-8.278 16.749-8.277-16.749a6 6 0 0 0 -4.518-3.28l-18.491-2.683z"/><path d="m494.318 185.948-27.536 3.15-18.182-20.849a6 6 0 0 0 -10.4 2.742l-5.536 27.109-25.509 10.842a6 6 0 0 0 -.6 10.748l24.1 13.6 2.417 27.541a6 6 0 0 0 10.027 3.9l20.445-18.7 27.006 6.189a6 6 0 0 0 6.8-8.339l-11.473-25.151 14.265-23.73a6 6 0 0 0 -5.824-9.053zm-20.672 34.88 7.744 16.972-18.234-4.179a6 6 0 0 0 -5.389 1.422l-13.8 12.627-1.631-18.584a6 6 0 0 0 -3.028-4.7l-16.249-9.168 17.2-7.312a6 6 0 0 0 3.532-4.321l3.741-18.309 12.279 14.083a5.993 5.993 0 0 0 5.2 2.017l18.567-2.124-9.617 15.992a6 6 0 0 0 -.315 5.584z"/><path d="m108.489 214.125a6 6 0 0 0 -3.644-5.186l-25.509-10.839-5.536-27.109a6 6 0 0 0 -10.4-2.742l-18.182 20.851-27.536-3.15a6 6 0 0 0 -5.824 9.05l14.266 23.722-11.473 25.152a6 6 0 0 0 6.8 8.339l27.006-6.189 20.444 18.7a6 6 0 0 0 10.028-3.9l2.416-27.541 24.1-13.6a6 6 0 0 0 3.044-5.558zm-35.794 10.263a6 6 0 0 0 -3.028 4.7l-1.631 18.584-13.8-12.627a6 6 0 0 0 -5.39-1.422l-18.236 4.177 7.743-16.975a6 6 0 0 0 -.317-5.582l-9.617-15.992 18.567 2.124a5.991 5.991 0 0 0 5.2-2.017l12.279-14.083 3.741 18.309a6 6 0 0 0 3.532 4.321l17.2 7.312z"/></g></svg>