<svg id="Layer_1" height="512" viewBox="0 0 512 512" width="512" xmlns="http://www.w3.org/2000/svg" data-name="Layer 1"><path d="m440 164.14v29.86h27v-29.85z" fill="#b0b5ca"/><path d="m356 52h-27l100 386v-135z" fill="#e75163"/><path d="m156 52-72 250v134l99-384z" fill="#e75163"/><path d="m329 52h-146l-99 384v5l11 19h323l11-19v-3z" fill="#f58387"/><path d="m45 164h28v30h-28z" fill="#b0b5ca"/><path d="m439.66 166.14a31.46 31.46 0 1 1 13.88 3.23 31.359 31.359 0 0 1 -13.88-3.23z" fill="#f1c889"/><path d="m72.83 166.15a31.375 31.375 0 1 1 17.51-28.15 31.339 31.339 0 0 1 -17.51 28.15z" fill="#f1c889"/><path d="m403.32 215.1q12.93-6.375 25.4-13.93h.08v33.64h-.08q-8.37 5.07-16.95 9.61-14.535 7.7-29.61 13.85a333.255 333.255 0 0 1 -252.28.03q-15.06-6.18-29.64-13.87-8.37-4.425-16.55-9.37v-33.64q12.27 7.425 24.99 13.69 14.295 7.05 29.07 12.65a333.238 333.238 0 0 0 236.5 0q14.76-5.61 29.07-12.66z" fill="#eadf53"/><path d="m481.23 441h-55.38c-7.61 0-13.85 5.69-13.85 13.29v5.71h83v-5.71c0-7.6-6.16-13.29-13.77-13.29z" fill="#b0b5ca"/><path d="m429 194h49v247h-49z" fill="#ccd3df"/><path d="m87.14 441h-56.37c-7.61 0-13.77 5.69-13.77 13.29v5.71h84v-5.71c0-7.6-6.26-13.29-13.86-13.29z" fill="#b0b5ca"/><path d="m33 194v247h51v-240-7z" fill="#ccd3df"/><path d="m45.08 166.15a31.483 31.483 0 0 0 26.375.63c-.463-.2-.924-.408-1.375-.63a31.375 31.375 0 0 1 1.373-56.926 31.378 31.378 0 0 0 -26.373 56.926z" fill="#d6af7b"/><path d="m55.77 441h-25c-7.61 0-13.77 5.69-13.77 13.29v5.71h25v-5.71c0-7.6 6.16-13.29 13.77-13.29z" fill="#9ca2b5"/><path d="m58 441v-247h-25v247h22.77z" fill="#b5bcc6"/><g fill="#284268"><path d="m52 243.958a6 6 0 0 0 -6 6v70.242a6 6 0 0 0 12 0v-70.242a6 6 0 0 0 -6-6z"/><path d="m53 217.169a6 6 0 0 0 -6 6v6.448a6 6 0 0 0 12 0v-6.448a6 6 0 0 0 -6-6z"/><path d="m58.953 127.064a10.888 10.888 0 0 1 4.261.858 11.007 11.007 0 0 1 4.522 3.549 6 6 0 0 0 9.615-7.18 22.917 22.917 0 0 0 -18.4-9.227 6 6 0 0 0 0 12z"/><path d="m484 434.785v-240.617a5.914 5.914 0 0 0 -5.72-6.168h-5.28v-18.367a36.464 36.464 0 0 0 17.717-31.633 37.224 37.224 0 1 0 -74.447 0 36.476 36.476 0 0 0 17.73 31.633v18.367h-5.2a5.977 5.977 0 0 0 -5.8 6.168v3.549q-7.875 4.615-15.944 8.76l-45.121-156.211a5.938 5.938 0 0 0 -5.765-4.266h-200.34a5.918 5.918 0 0 0 -5.765 4.242l-45.088 156.119q-7.59-3.967-14.977-8.352v-3.841a6.414 6.414 0 0 0 -6.306-6.168h-4.694v-18.389c10-6.625 17.405-18.311 17.405-31.611a37.43 37.43 0 0 0 -74.859 0c0 13.308 7.454 25.007 17.454 31.629v18.371h-5.771a6.345 6.345 0 0 0 -6.229 6.168v240.692a19.791 19.791 0 0 0 -16 19.428v5.9a5.843 5.843 0 0 0 6 5.812h478a5.843 5.843 0 0 0 6-5.813v-5.9a19.546 19.546 0 0 0 -17-19.502zm-55.846-296.785a25.385 25.385 0 1 1 25.385 25.37 25.406 25.406 0 0 1 -25.385-25.37zm43.846 62v235h-37v-235zm-26-12v-13.468a33.824 33.824 0 0 0 15 0v13.468zm-94.342-130 44.449 153.862q-8.807 4.138-17.807 7.738l-42-161.6zm-27.758 0 43.118 165.858a328.837 328.837 0 0 1 -110.839 19.142h-.179a329.265 329.265 0 0 1 -111.008-19.126l43.108-165.874zm-163.558 0h15.358l-42 161.592q-9-3.614-17.779-7.786zm-70.342 153.864c50 28.543 107.672 43.136 166 43.136h.186a339.666 339.666 0 0 0 166.814-43.414v19.764a328.938 328.938 0 0 1 -166.769 45.65h-.231a324.972 324.972 0 0 1 -166-45.359zm328.908 35.613q2.052-1.118 4.092-2.259v16.431zm4.092 57.433v86.6l-33.7-129.704q9.49-4.042 18.754-8.664zm-333-59.41c1.051.6 2.109 1.185 3.167 1.772l-3.167 11.089zm0 56.582 14-49.047q9.208 4.668 18.709 8.74l-32.709 125.891zm-56.432-164.082a25.385 25.385 0 1 1 25.385 25.37 25.407 25.407 0 0 1 -25.385-25.37zm33.432 36.524v13.476h-16v-13.468a42.113 42.113 0 0 0 8 .842 41.64 41.64 0 0 0 8-.85zm-28 25.476h39v233.852l-.3 1.148h-38.7zm-16 254c.054-4 3.518-7 7.769-7h56.368c4.25 0 7.714 3 7.769 7zm383.012 0h-299.026a20.217 20.217 0 0 0 -16.819-19.259l43.752-168.391a339.268 339.268 0 0 0 122.081 22.65h.239a339.278 339.278 0 0 0 121.842-22.649l43.819 168.649a19.49 19.49 0 0 0 -15.887 19zm12.065 0c.055-4 3.518-7 7.769-7h55.384c4.251 0 7.715 3 7.769 7z"/></g></svg>