<svg id="Layer_1" enable-background="new 0 0 512 512" height="512" viewBox="0 0 512 512" width="512" xmlns="http://www.w3.org/2000/svg"><path d="m238 34.7c122 0 221 99.1 221 221.3s-99 221.3-221 221.3-221-99.1-221-221.3 98.9-221.3 221-221.3z" fill="#758ebd"/><path d="m238 66.5c104.5 0 189.2 84.8 189.2 189.5s-84.7 189.5-189.2 189.5-189.3-84.8-189.3-189.5 84.8-189.5 189.3-189.5z" fill="#5fcda4"/><path d="m306.3 256c0 37.7-30.5 68.4-68.3 68.4-37.7 0-68.4-30.5-68.4-68.3s30.5-68.4 68.3-68.4h.1c37.7.1 68.2 30.6 68.3 68.3z" fill="#758ebd"/><g fill="#b4d7e4"><path d="m393.6 256.2c0 15.2-12.3 27.6-27.5 27.6s-27.6-12.3-27.6-27.5 12.3-27.6 27.5-27.6c15.2 0 27.6 12.3 27.6 27.5z"/><ellipse cx="238" cy="256" rx="30" ry="30" transform="matrix(.707 -.707 .707 .707 -111.321 243.254)"/><path d="m265.7 384.2c0 15.2-12.3 27.6-27.5 27.6s-27.6-12.3-27.6-27.5 12.3-27.6 27.5-27.6c15.3 0 27.6 12.3 27.6 27.5z"/><path d="m265.3 127.7c0 15.2-12.3 27.6-27.5 27.6s-27.6-12.3-27.6-27.5 12.3-27.6 27.5-27.6c15.3.1 27.6 12.4 27.6 27.5z"/><path d="m137.5 255.8c0 15.2-12.3 27.6-27.5 27.6s-27.6-12.4-27.6-27.6 12.3-27.6 27.5-27.6c15.2.1 27.5 12.4 27.6 27.6z"/></g><path d="m78.7 256c0-99.6 76.7-181.3 174.2-188.9-5-.4-10-.6-15-.6-104.4 0-189.2 84.8-189.2 189.5s84.8 189.5 189.3 189.5c5.1 0 10.1-.2 15-.6-97.5-7.6-174.3-89.3-174.3-188.9z" fill="#52af89"/><g fill="#284268"><path d="m495.2 372c-.1 0-.1 0-.2 0-30.3 0-54.8 24.5-54.8 54.8 0 24.4-19.8 44.2-44.3 44.2h-84.8c118.8-40.6 182.2-169.7 141.7-288.5-11.2-32.8-29.8-62.7-54.3-87.2-88.7-88.6-232.4-88.6-321 0-42.6 42.6-66.6 100.4-66.5 160.7-.1 122.8 97.4 223.3 220.1 227h164.8c31.1 0 56.2-25.1 56.3-56.2 0-23.7 19.2-42.8 42.8-42.8 3.3 0 6-2.6 6-5.9.1-3.3-2.6-6-5.8-6.1zm-409.2 36.2c-83.8-83.9-83.7-219.9.3-303.7s219.9-83.7 303.7.3 83.7 219.9-.3 303.7c-40.3 40.2-94.8 62.8-151.7 62.8-57.1.1-111.8-22.6-152-63.1z"/><path d="m238 60.5c-107.7 0-195.3 87.7-195.3 195.5s87.6 195.5 195.3 195.5 195.2-87.7 195.2-195.5-87.6-195.5-195.2-195.5zm0 379c-101 0-183.2-82.3-183.2-183.5s82.1-183.5 183.2-183.5 183.2 82.3 183.2 183.5-82.2 183.5-183.2 183.5z"/><path d="m147.2 110.6c-36.2 22.7-62.7 58.1-74.2 99.4-.9 3.2 1 6.5 4.2 7.4s6.5-1 7.4-4.2c10.7-38.3 35.3-71.3 69-92.4 2.8-1.8 3.7-5.5 1.9-8.3s-5.5-3.7-8.3-1.9z"/><path d="m171.3 110.6c.8 0 1.7-.2 2.4-.5 3.1-1.4 6.3-2.7 9.5-3.8 3.1-1.1 4.7-4.6 3.6-7.7s-4.6-4.7-7.7-3.6c-3.4 1.3-6.9 2.7-10.2 4.1-3 1.3-4.4 4.9-3.1 7.9 1 2.2 3.1 3.6 5.5 3.6z"/><path d="m263.5 230.5c-6.7-6.8-15.9-10.6-25.5-10.5-19.9 0-36 16.2-36.1 36.1 0 19.9 16.1 36 36 36h.1c19.9 0 36-16.2 36.1-36.1-.1-9.6-3.9-18.8-10.6-25.5zm-25.6 49.5c-13.2 0-24-10.7-24-24 0-13.3 10.8-24 24.1-24.1 13.2 0 24 10.7 24 24 0 13.4-10.8 24.1-24.1 24.1z"/><path d="m238.2 350.7c-18.6 0-33.6 15-33.6 33.6 0 18.5 15 33.5 33.5 33.5h.1c18.5 0 33.5-15 33.6-33.6-.1-18.5-15-33.5-33.6-33.5zm-.1 55.1c-11.9 0-21.5-9.6-21.5-21.5 0 0 0 0 0-.1 0-11.9 9.7-21.5 21.6-21.6 11.9 0 21.5 9.6 21.5 21.5v.1c0 11.9-9.7 21.6-21.6 21.6z"/><path d="m399.6 256.2c0-18.5-15-33.5-33.5-33.5 0 0 0 0-.1 0-18.5 0-33.5 15-33.6 33.6 0 18.5 15 33.5 33.5 33.5h.1c18.5-.1 33.5-15.1 33.6-33.6zm-33.6 21.5c-11.9 0-21.5-9.6-21.5-21.5 0 0 0 0 0-.1 0-11.9 9.7-21.5 21.6-21.6 11.9 0 21.5 9.6 21.5 21.5v.1c0 12-9.7 21.6-21.6 21.6z"/><path d="m214 151.5c6.3 6.3 14.8 9.8 23.7 9.8 18.5 0 33.5-15 33.6-33.6 0-18.5-15-33.5-33.5-33.5 0 0 0 0-.1 0-18.5 0-33.5 15-33.6 33.6.1 8.9 3.6 17.4 9.9 23.7zm23.8-45.3c11.9 0 21.5 9.6 21.5 21.5v.1c0 11.9-9.7 21.5-21.6 21.6-11.9 0-21.5-9.6-21.5-21.5 0 0 0 0 0-.1 0-11.9 9.7-21.6 21.6-21.6z"/><path d="m133.6 232.1c-6.3-6.3-14.8-9.8-23.7-9.8-18.5 0-33.5 15-33.6 33.6 0 18.5 15 33.5 33.5 33.5h.1c18.5 0 33.5-15 33.6-33.6 0-8.9-3.6-17.5-9.9-23.7zm-23.7 45.3c-11.9 0-21.5-9.6-21.5-21.5 0 0 0 0 0-.1 0-11.9 9.7-21.5 21.6-21.6 11.9 0 21.5 9.6 21.5 21.5v.1c-.1 11.9-9.7 21.5-21.6 21.6z"/><path d="m290.6 203.4c-13.9-14-32.8-21.8-52.5-21.7-41 .1-74.3 33.3-74.4 74.4 0 41 33.2 74.2 74.1 74.3h.1c41-.1 74.3-33.3 74.4-74.4.1-19.8-7.8-38.7-21.7-52.6zm-52.7 114.9c-34.4 0-62.2-27.8-62.3-62.1v-.1c.1-34.4 28-62.3 62.4-62.4 34.4 0 62.2 27.8 62.3 62.1v.1c-.1 34.5-28 62.4-62.4 62.4z"/></g></svg>