<svg id="Layer_1" height="512" viewBox="0 0 512 512" width="512" xmlns="http://www.w3.org/2000/svg" data-name="Layer 1"><path d="m406 49.41a32.318 32.318 0 0 0 -32.34-32.41h-233.74c-17.95 0-32.92 14.51-32.92 32.41v132.59l45 81 209-1 46-80z" fill="#eb7288"/><path d="m169.92 17h-30c-17.95 0-32.92 14.51-32.92 32.41v132.59l30 54v-186.59c0-17.9 14.97-32.41 32.92-32.41z" fill="#d3637b"/><path d="m432.83 191.26a44.855 44.855 0 0 0 -26.775-12.86 44.376 44.376 0 0 0 -5.053-.28 44.944 44.944 0 0 0 -45 44.86v39.02h-200.002v-39.02a44.974 44.974 0 0 0 -45.022-44.86c-1.17 0-2.33.04-3.479.13a44.921 44.921 0 0 0 -41.499 44.73v168.84a13.15 13.15 0 0 0 12.98 13.18h354.184a13.027 13.027 0 0 0 12.836-13.18v-168.84a44.666 44.666 0 0 0 -13.17-31.72z" fill="#d35b75"/><path d="m96 391.82v-168.84a44.892 44.892 0 0 1 29.983-42.295 45.033 45.033 0 0 0 -15.005-2.565c-1.17 0-2.33.04-3.479.13a44.921 44.921 0 0 0 -41.499 44.73v168.84a13.15 13.15 0 0 0 12.98 13.18h30a13.15 13.15 0 0 1 -12.98-13.18z" fill="#b74f6a"/><path d="m367.43 263h-222.86c-5.06 0-9.57 3.81-9.57 8.88v48.1c0 5.07 4.51 9.02 9.57 9.02h222.86c5.06 0 9.57-3.95 9.57-9.02v-48.1c0-5.07-4.51-8.88-9.57-8.88z" fill="#9db38e"/><path d="m316.09 81.39a14 14 0 1 1 -20.06.05c.06-.06.12-.12.18-.17a14 14 0 0 1 19.62-.15c.09.09.18.18.26.27z" fill="#c45773"/><path d="m316.09 171.39a14 14 0 1 1 -20.06.05c.06-.06.12-.12.18-.17a14 14 0 0 1 19.62-.15c.09.09.18.18.26.27z" fill="#c45773"/><path d="m216.09 81.39a14 14 0 1 1 -20.06.05c.06-.06.12-.12.18-.17a14 14 0 0 1 19.62-.15c.09.09.18.18.26.27z" fill="#c45773"/><path d="m216.09 171.39a14 14 0 1 1 -20.06.05c.06-.06.12-.12.18-.17a14 14 0 0 1 19.62-.15c.09.09.18.18.26.27z" fill="#c45773"/><path d="m420.29 405.28v89.72h-37.93v-89.72-.49h37.93z" fill="#c3cfdd"/><path d="m129.64 405.28v89.72h-37.93v-89.72-.49h37.93z" fill="#c3cfdd"/><g fill="#284268"><path d="m188.333 171.993a20.073 20.073 0 0 0 0 18.365l-9.166 9.471a6 6 0 0 0 8.623 8.345l8.987-9.286a19.877 19.877 0 0 0 9.3 2.292h.335a19.9 19.9 0 0 0 8.74-2.18l9.412 9.109a6 6 0 1 0 8.346-8.623l-9.188-8.893a20.061 20.061 0 0 0 .123-18.581l9-9.3a6 6 0 1 0 -8.623-8.345l-8.826 9.119a20.073 20.073 0 0 0 -18.6 0l-9.348-9.047a6 6 0 1 0 -8.345 8.623zm12.009 3.623a8 8 0 0 1 10.865-.577 5.986 5.986 0 0 0 .631.747 5.741 5.741 0 0 0 .479.38 8.008 8.008 0 0 1 -.478 10.577 8 8 0 0 1 -11.5-11.128z"/><path d="m288.333 171.993a20.073 20.073 0 0 0 0 18.365l-9.166 9.471a6 6 0 0 0 8.623 8.345l8.987-9.286a19.877 19.877 0 0 0 9.3 2.292h.335a19.9 19.9 0 0 0 8.74-2.18l9.412 9.109a6 6 0 1 0 8.346-8.623l-9.188-8.893a20.061 20.061 0 0 0 .123-18.581l9-9.3a6 6 0 0 0 -8.623-8.345l-8.826 9.119a20.073 20.073 0 0 0 -18.6 0l-9.348-9.047a6 6 0 1 0 -8.345 8.623zm12.009 3.623a8 8 0 0 1 10.865-.577 5.986 5.986 0 0 0 .631.747 5.741 5.741 0 0 0 .479.38 8.008 8.008 0 0 1 -.478 10.577 8 8 0 0 1 -11.5-11.128z"/><path d="m188.333 81.993a20.073 20.073 0 0 0 0 18.365l-9.166 9.471a6 6 0 0 0 8.623 8.345l8.987-9.286a19.877 19.877 0 0 0 9.3 2.292h.335a19.9 19.9 0 0 0 8.74-2.18l9.412 9.109a6 6 0 1 0 8.346-8.623l-9.188-8.893a20.061 20.061 0 0 0 .123-18.581l9-9.3a6 6 0 0 0 -8.623-8.345l-8.826 9.119a20.073 20.073 0 0 0 -18.6 0l-9.348-9.047a6 6 0 0 0 -8.348 8.621zm12.009 3.623a8 8 0 0 1 10.865-.577 5.986 5.986 0 0 0 .631.747 5.741 5.741 0 0 0 .479.38 8.008 8.008 0 0 1 -.478 10.577 8 8 0 0 1 -11.5-11.128z"/><path d="m288.333 81.993a20.073 20.073 0 0 0 0 18.365l-9.166 9.471a6 6 0 0 0 8.623 8.345l8.987-9.286a19.877 19.877 0 0 0 9.3 2.292h.335a19.9 19.9 0 0 0 8.74-2.18l9.412 9.109a6 6 0 1 0 8.346-8.623l-9.188-8.893a20.061 20.061 0 0 0 .123-18.581l9-9.3a6 6 0 0 0 -8.623-8.345l-8.826 9.119a20.07 20.07 0 0 0 -18.6 0l-9.348-9.047a6 6 0 1 0 -8.348 8.621zm12.009 3.623a8 8 0 0 1 10.865-.577 5.986 5.986 0 0 0 .631.747 5.741 5.741 0 0 0 .479.38 8.008 8.008 0 0 1 -.478 10.577 8 8 0 0 1 -11.5-11.128z"/><path d="m132 45.249a6 6 0 0 0 -6 6v6.2a6 6 0 0 0 12 0v-6.2a6 6 0 0 0 -6-6z"/><path d="m132 70.179a6 6 0 0 0 -6 6v66.527a6 6 0 1 0 12 0v-66.527a6 6 0 0 0 -6-6z"/><path d="m412 173.326v-123.913a38.361 38.361 0 0 0 -38.336-38.413h-233.747c-21.226 0-38.917 17.232-38.917 38.413v123.7a50.988 50.988 0 0 0 -41 49.873v168.838a19.17 19.17 0 0 0 18.981 19.176h7.019v84a5.763 5.763 0 0 0 5.714 6h37.931a6.314 6.314 0 0 0 6.355-6v-84h240v84a6.314 6.314 0 0 0 6.355 6h37.931a5.763 5.763 0 0 0 5.714-6v-84h7.019a19.17 19.17 0 0 0 18.981-19.176v-168.842a50.981 50.981 0 0 0 -40-49.656zm-299-123.913c0-14.564 12.308-26.413 26.917-26.413h233.747a26.349 26.349 0 0 1 26.336 26.413v122.732a50.987 50.987 0 0 0 -50 50.837v34.018h-188v-34.018a50.988 50.988 0 0 0 -49-50.811zm253.829 219.587a3.171 3.171 0 0 1 3.171 3.171v47.658a3.171 3.171 0 0 1 -3.171 3.171h-222.658a3.171 3.171 0 0 1 -3.171-3.171v-47.658a3.171 3.171 0 0 1 3.171-3.171zm-242.829 220h-26v-78h26zm290 0h-26v-78h26zm26-97.176a7.158 7.158 0 0 1 -6.981 7.176h-354.038a7.158 7.158 0 0 1 -6.981-7.176v-168.842a39 39 0 0 1 78 0v34.018h-5.428c-8.365 0-15.572 6.513-15.572 14.878v48.106c0 8.366 7.207 15.016 15.572 15.016h222.856c8.365 0 15.572-6.65 15.572-15.016v-48.106c0-8.365-7.207-14.878-15.572-14.878h-5.428v-34.018a39 39 0 0 1 78 0z"/></g></svg>