<svg id="Layer_1" height="512" viewBox="0 0 512 512" width="512" xmlns="http://www.w3.org/2000/svg" data-name="Layer 1"><path d="m480.2 303h-190.05a14.538 14.538 0 0 0 -10.41 4.145 14.339 14.339 0 0 0 -4.32 10.272 14.612 14.612 0 0 0 14.73 14.583h190.13a14.622 14.622 0 0 0 10.41-4.255 14.234 14.234 0 0 0 4.31-10.213 14.627 14.627 0 0 0 -14.8-14.532z" fill="#8ea3ca"/><path d="m221.85 303h-190.045a14.67 14.67 0 0 0 -10.452 4.145 14.386 14.386 0 0 0 -4.332 10.272 14.585 14.585 0 0 0 14.699 14.583h190.13a14.588 14.588 0 0 0 10.41-4.255 14.2 14.2 0 0 0 4.32-10.213 14.563 14.563 0 0 0 -14.73-14.532z" fill="#8ea3ca"/><path d="m442.35 133.93a81.077 81.077 0 0 0 -138.35 57.2v43.44l.22.11 20.78 68.32h120.83l20.1-68.175.07-.445v-43.25a80.66 80.66 0 0 0 -23.65-57.2z" fill="#fb6771"/><path d="m370.59 332.13h28.38v69.63h-28.38z" fill="#c6d2e5"/><path d="m184.14 133.93a80.928 80.928 0 0 0 -138.14 57.2v43.44l.01.11 19.99 68.32h120.4l21.32-68.175.28-.445v-43.25a80.838 80.838 0 0 0 -23.86-57.2z" fill="#fb6771"/><path d="m112.17 332.13h28.38v69.63h-28.38z" fill="#c6d2e5"/><g fill="#cd656e"><path d="m478.25 247.89v54.78h-36.42v-54.78a18.21 18.21 0 1 1 36.42 0z"/><path d="m328.6 247.89v54.78h-36.43v-54.78a18.221 18.221 0 0 1 12.23-17.21 17.961 17.961 0 0 1 5.98-1.01 18.232 18.232 0 0 1 18.22 18.22z"/><path d="m219.83 247.89v54.78h-36.43v-54.78a18.215 18.215 0 0 1 36.43 0z"/><path d="m70.17 247.89v54.78h-36.42v-54.78a18.221 18.221 0 0 1 12.23-17.21 17.917 17.917 0 0 1 5.98-1.01 18.215 18.215 0 0 1 18.21 18.22z"/></g><path d="m47.021 317.417a14.386 14.386 0 0 1 4.332-10.272 14.67 14.67 0 0 1 10.452-4.145h-30a14.67 14.67 0 0 0 -10.452 4.145 14.386 14.386 0 0 0 -4.332 10.272 14.585 14.585 0 0 0 14.699 14.583h30a14.585 14.585 0 0 1 -14.699-14.583z" fill="#7b8faf"/><path d="m141.913 111.652a80.867 80.867 0 0 0 -95.913 79.478v43.44l.01.11 19.99 68.32h10v-111.87a80.933 80.933 0 0 1 65.913-79.478z" fill="#dd626e"/><path d="m484 297.057v-49.166a24.654 24.654 0 0 0 -12-21.014v-35.743a87 87 0 0 0 -174 0v35.743a24.654 24.654 0 0 0 -12 21.014v49.166c-9 1.862-16.661 10.2-16.661 20.276a20.769 20.769 0 0 0 20.808 20.667h74.853v58h-218v-58h74.853a20.769 20.769 0 0 0 20.808-20.667c0-10.071-7.661-18.414-16.661-20.276v-49.166a24.654 24.654 0 0 0 -12-21.014v-35.743a87 87 0 0 0 -174 0v35.743a24.654 24.654 0 0 0 -12 21.014v49.166a20.354 20.354 0 0 0 -16.873 20.276 20.588 20.588 0 0 0 20.596 20.667h74.277v58h-80.592a6 6 0 0 0 0 12h461.184a6 6 0 0 0 0-12h-81.592v-58h75.277a20.588 20.588 0 0 0 20.6-20.667 20.354 20.354 0 0 0 -16.877-20.276zm-270-49.166v49.109h-25v-49.109a12.5 12.5 0 0 1 25 0zm-162-23.891v-32.866a75 75 0 0 1 150 0v32.866h-.384c-13.352 0-24.616 10.533-24.616 23.891v49.109h-101v-49.109a23.815 23.815 0 0 0 -24.04-23.891zm-12 23.891a12 12 0 1 1 24 0v49.109h-24zm-8.277 78.109a8.5 8.5 0 1 1 0-17h190.13a8.5 8.5 0 1 1 0 17zm103.277 70h-17v-58h17zm337-148.109v49.109h-24v-49.109a12 12 0 1 1 24 0zm-162-56.757a75 75 0 0 1 150 0v32.866h.04a23.815 23.815 0 0 0 -24.04 23.891v49.109h-101v-49.109c0-13.358-11.264-23.891-24.616-23.891h-.384zm-12 56.757a12.5 12.5 0 0 1 25 0v49.109h-25zm95 148.109h-16v-58h16zm87.277-70h-190.13a8.5 8.5 0 1 1 0-17h190.13a8.5 8.5 0 1 1 0 17z" fill="#284268"/><path d="m95.638 136.541a63.108 63.108 0 0 0 -31.638 54.593v23.432a6 6 0 1 0 12 0v-23.432a51.077 51.077 0 0 1 25.6-44.187 6 6 0 0 0 -5.966-10.406z" fill="#284268"/><path d="m126.788 128.237a63.166 63.166 0 0 0 -8.339.552 6 6 0 1 0 1.586 11.894 51.324 51.324 0 0 1 6.753-.446 6 6 0 1 0 0-12z" fill="#284268"/></svg>