<svg id="Layer_1" height="512" viewBox="0 0 512 512" width="512" xmlns="http://www.w3.org/2000/svg" data-name="Layer 1"><path d="m373 215.1v161.93l73 36.66v-235.395z" fill="#a9b9d8"/><path d="m495 297.55v.02a52.934 52.934 0 0 1 -35.43 49.99l-13.47 4.71h-.13v-109.41h.13l13.47 4.71a52.93 52.93 0 0 1 35.43 49.98z" fill="#f1c889"/><path d="m336.64 236.82h36.78v120.42h-36.78z" fill="#8ea3ca"/><path d="m305.04 191h-256.43a31.785 31.785 0 0 0 -31.61 31.84v136.74a31.426 31.426 0 0 0 31.61 31.42h256.43c17.45 0 31.96-13.93 31.96-31.42v-136.86a31.989 31.989 0 0 0 -31.96-31.72z" fill="#a9b9d8"/><path d="m93 98h41v154h-41z" fill="#95c9ab"/><path d="m92.66 248.89a52.826 52.826 0 1 1 -32.25 48.67 52.378 52.378 0 0 1 32.25-48.67z" fill="#76b08d"/><path d="m113.11 270.63a26.935 26.935 0 1 1 -26.89 26.93 26.91 26.91 0 0 1 26.89-26.93z" fill="#95c9ab"/><path d="m47 359.58v-136.74a31.785 31.785 0 0 1 31.61-31.84h-30a31.785 31.785 0 0 0 -31.61 31.84v136.74a31.426 31.426 0 0 0 31.61 31.42h30a31.426 31.426 0 0 1 -31.61-31.42z" fill="#95a4bc"/><g fill="#284268"><path d="m461.564 241.907-9.564-3.348v-60.124a6.018 6.018 0 0 0 -8.727-5.355l-72.764 36.662a6.207 6.207 0 0 0 -3.509 5.358v15.9h-24v-8.161a38.131 38.131 0 0 0 -37.964-37.839h-165.036v-86.693a6.665 6.665 0 0 0 -6.446-6.307h-40.9c-3.31 0-5.654 2.994-5.654 6.307v86.693h-38.392a37.826 37.826 0 0 0 -37.608 37.839v136.74a37.468 37.468 0 0 0 37.608 37.421h256.428a37.723 37.723 0 0 0 37.427-34h24.537v14.03a6.2 6.2 0 0 0 3.5 5.355l72.655 36.663a6.214 6.214 0 0 0 2.758.645 6.14 6.14 0 0 0 3.185-.889 6.041 6.041 0 0 0 2.9-5.111v-57.124l9.567-3.349a58.986 58.986 0 0 0 0-111.313zm-362.564-137.907h29v136.569a61.2 61.2 0 0 0 -14.5-1.808 55.286 55.286 0 0 0 -14.5 1.808zm14.106 146.761a46.8 46.8 0 1 1 -46.694 46.8 46.8 46.8 0 0 1 46.694-46.8zm217.894 108.818c0 14.156-11.844 25.421-25.964 25.421h-256.428a25.455 25.455 0 0 1 -25.608-25.421v-136.74a25.813 25.813 0 0 1 25.608-25.839h38.392v48.1a58.714 58.714 0 1 0 66.844 94.9h122.491a6 6 0 1 0 0-12h-112.81a58.29 58.29 0 0 0 8.179-24h104.631a6 6 0 1 0 0-12h-104.535a58.629 58.629 0 0 0 -8.27-25h112.805a6 6 0 1 0 0-12h-122.435a58.715 58.715 0 0 0 -13.9-9.9v-48.1h165.036a26.118 26.118 0 0 1 25.964 25.839zm36-8.579h-24v-108h24zm73 52.938-61-30.6v-154.551l61-30.6zm17.607-62.046-5.607 1.965v-92.586l5.6 1.964a46.986 46.986 0 0 1 0 88.657z"/><path d="m41 216.187a6 6 0 0 0 -6 6v4.357a6 6 0 0 0 12 0v-4.357a6 6 0 0 0 -6-6z"/><path d="m41 241.462a6 6 0 0 0 -6 6v69.621a6 6 0 0 0 12 0v-69.621a6 6 0 0 0 -6-6z"/><path d="m113.106 330.5a32.937 32.937 0 1 0 -32.881-32.937 32.946 32.946 0 0 0 32.881 32.937zm0-53.873a20.937 20.937 0 1 1 -20.881 20.936 20.932 20.932 0 0 1 20.881-20.936z"/></g></svg>