<svg id="Layer_1" enable-background="new 0 0 512 512" height="512" viewBox="0 0 512 512" width="512" xmlns="http://www.w3.org/2000/svg"><path d="m327.3 283.5c86.6-56.9 133.8-138.1 105.5-181.3 56.9 86.9 32.7 203.5-54.1 260.4-.1 0-.1.1-.2.1 2.6-2.9 5-5.9 7.2-9.1 3.8-5.3 7.9-12.1 9.4-18 2.4-12.3-.1-25-7-35.4-13.7-21.6-42.4-28-64-14.3-.4.2-.165.143-.565.343 1.5-1 2.465-1.643 3.765-2.743z" fill="#58606d"/><path d="m432.7 101.9c0 .1 0 .1 0 0-28.3-43.1-121.4-32.1-208 24.5-1.6.8-2.406 1.231-3.906 2.131 10.4-6.9 17.106-17.031 19.806-29.231 2.4-12.3-.1-25-7-35.4s-17.5-17.8-29.7-20.5c-12-2.1-31.5 4.4-31.5 4.4 86.6-56.9 203-32.9 260 53.8.1.1.2.2.3.3z" fill="#ccd3df"/><path d="m292.1 178.1c.2-1 .4-1.8.5-2.7l-134.3 88.4 17.5 23.6h.2l129.8-86.4v-.2z" fill="#c79a83"/><path d="m158 264 .3-.2c-.1 0-.2-.1-.3-.2z" fill="#c79a83"/><path d="m191.8 459h-107.2c-19.9-.1-36.1 16-36.2 35.9v.1h179.6c0-19.9-16.2-36-36.1-36 0 0 0 0-.1 0z" fill="#987a70"/><path d="m123.9 322.4.1.2v136.4h29v-135z" fill="#c79a83"/><path d="m305.7 200.7c-11.9-2-23.265.129-33.365 6.729 1.3-.9 1.865-1.329 3.065-2.329l.1.2 157.3-103.1c28.4 43.2-18.8 124.4-105.5 181.3 8.2-6.8 13.9-16.2 16.3-26.6 2.4-12.3-.1-25-7-35.4s-17.5-17.8-29.7-20.5c-.4-.2-.8-.2-1.2-.3z" fill="#797e89"/><path d="m432.8 102.2-157.3 103.1-.1-.2c8.4-6.9 14.3-16.4 16.7-26.9.2-1 .4-1.9.5-2.9 1.5-11.4-1.1-22.9-7.4-32.5-12.9-20.3-39.2-27.6-60.5-16.4 86.7-56.7 179.7-67.4 208.1-24.2-.1-.1 0-.1 0 0z" fill="#b0b5ca"/><path d="m241.8 191-30.5 19.5 31.8 48.9 30-19.8z" fill="#6addc7"/><path d="m152.9 330c-19 7.1-40.1-2.5-47.2-21.5s2.5-40.1 21.5-47.2 40.1 2.5 47.2 21.5c.6 1.5 1 3.1 1.4 4.7 4.1 17.8-5.7 36-22.9 42.5z" fill="#4689d3"/><ellipse cx="140" cy="295.6" fill="#5fa8ed" rx="15.3" ry="15.3"/><path d="m114.6 459h-30c-19.9-.1-36.1 16-36.2 35.9v.1h30c0-19.9 16.2-36 36.1-36z" fill="#82645d"/><g fill="#284268"><path d="m140 274.3c-11.7 0-21.3 9.5-21.3 21.3s9.5 21.3 21.3 21.3 21.3-9.5 21.3-21.3-9.5-21.3-21.3-21.3zm0 30.6c-5.1 0-9.3-4.2-9.3-9.3s4.2-9.3 9.3-9.3 9.3 4.2 9.3 9.3-4.1 9.3-9.3 9.3z"/><path d="m342.3 50c-27.3-6.5-56.2-6.9-83.6-1.3-3.2.7-5.3 3.8-4.7 7.1.7 3.2 3.8 5.3 7.1 4.7 25.7-5.3 52.8-4.8 78.4 1.2.5.1.9.2 1.4.2 2.7 0 5.2-1.9 5.8-4.6.8-3.3-1.2-6.5-4.4-7.3z"/><path d="m438.2 98.2-.1-.2c-28.4-43.4-72-73-122.7-83.6-48.7-10.1-98.4-1.5-140.6 24.4-3 1.8-4.1 5.6-2.5 8.7l.1.1c1.4 2.9 4.7 4.4 7.8 3.6 6.7-1.7 16.6-3.7 23.1-2.6 11 2.7 19.9 8.9 25.9 18s8.2 20.1 6.1 30.8c-2.2 9.2-6.9 16.9-13.5 22.6-2.4 2.1-2.9 5.7-1.1 8.4 1.8 2.6 5.2 3.7 8 2.3 7.9-3.8 16.9-5 26.1-3.4 11 2.7 20 8.9 25.9 18 5.1 7.7 7.4 16.7 6.8 25.8l-35.5 23.1-3.6-5.6c-2.4-3.7-7.3-4.8-11-2.4l-27.2 17.4c-1.8 1.2-3.1 3-3.5 5.1-.5 2.1-.1 4.3 1.1 6.1l3.9 6-53.6 35.2c-6.7-3.1-14.3-4.5-22.3-3.7-20.7 2.2-36.9 19.3-38.1 40.1-.9 16.3 7.4 30.7 20.1 38.6v121h-33c-23.3 0-42.2 18.9-42.2 42.3 0 3.3 2.7 5.9 6 5.9h179.7c3.3 0 6-2.7 6-5.9 0-23.3-18.9-42.3-42.2-42.3h-33v-118.9c14.1-7 23.8-21.5 23.8-38.3 0-1 0-2-.1-3l52.1-35.1 2.2 3.4c1.2 1.8 3 3 5.1 3.5.6.1 1.1.2 1.7.2 1.5 0 3-.4 4.4-1.3l26.7-17.5c3.7-2.4 4.7-7.3 2.3-11l-2.2-3.4 35.1-23.3c9 3.1 16.4 8.8 21.5 16.7 6 9.1 8.2 20.1 6.1 30.8-2.2 9.2-6.9 16.9-13.5 22.6-2.4 2.1-2.9 5.7-1.1 8.4 1.8 2.6 5.2 3.7 8 2.3 7.9-3.8 16.9-5 26.1-3.4 11 2.7 20 8.9 25.9 18 6 9.1 8.2 20.1 6.1 30.8-1.5 6.2-7.1 14.4-11.4 19.8-1.9 2.4-2.1 5.8-.4 8.3 2.2 3.2 6.5 4 9.6 1.8 85.6-59.8 108.6-177.4 51.1-265.2zm-193.5 8.8c.8-2.2 1.5-4.6 2.1-7 0-.1 0-.2.1-.2 2.8-13.9 0-28.1-7.8-39.9-7.7-11.7-19.2-19.7-33.3-23.1-.1 0-.2-.1-.4-.1s-.4-.1-.6-.1c33.9-14.5 71.3-18.3 108.1-10.6 34.5 7.2 65.4 23.8 90 47.8-14.8-4.5-32.8-5.7-53.4-3.3-32.8 4-69.3 16.7-104.8 36.5zm-52.5 357c14.6 0 26.8 10.4 29.6 24.2h-166.4c2.8-13.8 15-24.2 29.6-24.2zm-62.3-12v-115.8c3.4.9 6.9 1.3 10.5 1.3 2.3 0 4.6-.2 6.8-.6v115.1zm10.5-126.5c-16.9 0-30.7-13.8-30.7-30.7s13.8-30.7 30.7-30.7 30.7 13.8 30.7 30.7-13.8 30.7-30.7 30.7zm39.8-46.3c-2.4-6.2-6.3-11.7-11.1-16.1l49.2-32.3 10.3 15.9zm65-29-25.2-38.7 20.4-13 24.8 38.6zm23.7-29.7-10.4-16.2 22.6-14.8c-2.2 3.4-4.8 6.5-7.8 9.2-2.4 2.1-3 5.7-1.2 8.4 1.8 2.7 5.2 3.7 8.1 2.3 3.4-1.6 7-2.8 10.8-3.5zm21.7-81.9c-7.7-11.7-19.2-19.7-33.3-23.1-.1 0-.2-.1-.4-.1-.7-.1-1.4-.2-2.1-.3 32.8-17.7 66.1-29.1 96.1-32.6 33.7-4 59.3 2.3 73 17.8l-127.1 83.5c.5-1.6 1-3.3 1.4-5 0-.1 0-.2.1-.2 2.8-14 .1-28.1-7.7-40zm51.6 78.8c-7.7-11.7-19.2-19.7-33.3-23.1-.1 0-.2-.1-.4-.1-1.5-.3-3.1-.5-4.6-.6l126.7-83.3c8.8 18.7 4.4 44.8-12.7 74.2-15.4 26.2-39.3 52.4-68.7 75.5.2-.8.5-1.7.7-2.5 0-.1 0-.2.1-.2 2.8-13.9 0-28.1-7.8-39.9zm59 119.4c0-.2.1-.3.1-.5 0-.1 0-.2.1-.2 2.8-13.9 0-28.1-7.8-39.9-7.7-11.7-19.2-19.7-33.3-23.1-.1 0-.2-.1-.4-.1-2.3-.4-4.5-.7-6.8-.8 32.2-24.7 58.4-53.1 75.1-81.6 10.3-17.7 16.4-34.6 18.2-49.9 25.5 68.1 7.8 145.8-45.2 196.1z"/></g></svg>