<svg id="Layer_1" height="512" viewBox="0 0 512 512" width="512" xmlns="http://www.w3.org/2000/svg" data-name="Layer 1"><path d="m441.18 167h-370.36a28.618 28.618 0 0 0 -28.82 28.81v251.45a28.559 28.559 0 0 0 28.82 28.74h370.2a28.7 28.7 0 0 0 28.98-28.74v-251.45a28.618 28.618 0 0 0 -28.82-28.81z" fill="#797e89"/><path d="m207.5 137h-111.89c-2.85 0-5.61 2.28-5.61 6.43v23.57h121v-26.16a3.543 3.543 0 0 0 -3.5-3.84z" fill="#b0b5ca"/><path d="m179.9 136.96h-57.98a28.99 28.99 0 0 1 57.98 0z" fill="#ccd3df"/><path d="m416.7 385.67a16.93 16.93 0 1 1 -16.91 16.93 16.928 16.928 0 0 1 16.91-16.93z" fill="#b0b5ca"/><path d="m348.72 476.35h74.95v18.65h-74.95z" fill="#b0b5ca"/><path d="m88.33 476.35h74.95v18.65h-74.95z" fill="#b0b5ca"/><path d="m381.22 208.13v226.81a9.7 9.7 0 0 1 -9.7 9.7h-292.42a9.7 9.7 0 0 1 -9.69-9.7v-226.81a9.694 9.694 0 0 1 9.69-9.7h292.42a9.7 9.7 0 0 1 9.7 9.7z" fill="#d4e1f4"/><path d="m218.35 216.11a105.255 105.255 0 1 1 -105.02 105.26 105.139 105.139 0 0 1 105.02-105.26z" fill="#758ebd"/><path d="m218.35 231.22a90.145 90.145 0 1 1 -89.94 90.15 90.048 90.048 0 0 1 89.94-90.15z" fill="#5fcda4"/><path d="m241.3 298.37a32.485 32.485 0 1 1 -45.89 0 32.574 32.574 0 0 1 45.89 0z" fill="#758ebd"/><ellipse cx="279.225" cy="321.46" fill="#b4d7e4" rx="13.087" ry="13.111"/><path d="m228.44 311.26a14.28 14.28 0 1 1 -20.17 0 14.322 14.322 0 0 1 20.17 0z" fill="#b4d7e4"/><ellipse cx="218.45" cy="382.365" fill="#b4d7e4" rx="13.084" ry="13.114"/><path d="m227.51 251.09a13.1 13.1 0 1 1 -18.5 0 13.139 13.139 0 0 1 18.5 0z" fill="#b4d7e4"/><path d="m99.41 434.94v-226.81a9.694 9.694 0 0 1 9.69-9.7h-30a9.694 9.694 0 0 0 -9.69 9.7v226.81a9.7 9.7 0 0 0 9.69 9.7h30a9.7 9.7 0 0 1 -9.69-9.7z" fill="#bfcee0"/><path d="m158.41 321.37a90.108 90.108 0 0 1 74.941-88.9 90.145 90.145 0 1 0 0 177.78 90.1 90.1 0 0 1 -74.941-88.88z" fill="#54b58d"/><path d="m166.74 312a13.1 13.1 0 1 1 -18.51 0 13.139 13.139 0 0 1 18.51 0z" fill="#b4d7e4"/><g fill="#284268"><path d="m416.7 379.667a22.93 22.93 0 1 0 22.916 22.93 22.949 22.949 0 0 0 -22.916-22.93zm0 33.86a10.93 10.93 0 1 1 10.916-10.93 10.935 10.935 0 0 1 -10.916 10.93z"/><path d="m425.27 327h-17.137a6 6 0 0 0 0 12h17.137a6 6 0 0 0 0-12z"/><path d="m425.27 304h-17.137a6 6 0 0 0 0 12h17.137a6 6 0 0 0 0-12z"/><path d="m425.27 351h-17.137a6 6 0 0 0 0 12h17.137a6 6 0 0 0 0-12z"/><path d="m408.133 292h17.137a6 6 0 0 0 0-12h-17.137a6 6 0 0 0 0 12z"/><path d="m441.18 161h-224.18v-20.157a9.54 9.54 0 0 0 -9.5-9.843h-22.14a34.638 34.638 0 0 0 -23.192-27.094l71.854-82.968a6 6 0 0 0 -9.07-7.864l-75.354 87-55.67-37.454a6 6 0 1 0 -6.7 9.956l48.75 32.815a35.765 35.765 0 0 0 -19.52 25.609h-20.847c-5.55 0-11.611 4.246-11.611 12.432v17.568h-13.18a34.66 34.66 0 0 0 -34.82 34.807v251.454a34.6 34.6 0 0 0 34.82 34.739h11.18v13a6.289 6.289 0 0 0 6.327 6h74.952a5.768 5.768 0 0 0 5.721-6v-13h174v13a5.768 5.768 0 0 0 5.721 6h74.952a6.289 6.289 0 0 0 6.327-6v-13h11.18a34.6 34.6 0 0 0 34.82-34.739v-251.454a34.66 34.66 0 0 0 -34.82-34.807zm-290.27-46.947a22.752 22.752 0 0 1 22.173 16.947h-44.345a22.75 22.75 0 0 1 22.172-16.947zm-54.91 29.379c0-.185.45-.432.465-.432h108.535v18h-109zm61 345.568h-63v-7h63zm261 0h-63v-7h63zm47-41.088a23.088 23.088 0 0 1 -23.089 23.088h-370.822a23.088 23.088 0 0 1 -23.089-23.088v-251.824a23.088 23.088 0 0 1 23.089-23.088h370.822a23.088 23.088 0 0 1 23.089 23.088z"/><path d="m371.3 192h-292.6a15.7 15.7 0 0 0 -15.7 15.7v226.6a15.7 15.7 0 0 0 15.7 15.7h292.6a15.7 15.7 0 0 0 15.7-15.7v-226.6a15.7 15.7 0 0 0 -15.7-15.7zm3.7 242.3a3.7 3.7 0 0 1 -3.7 3.7h-292.6a3.7 3.7 0 0 1 -3.7-3.7v-226.6a3.7 3.7 0 0 1 3.7-3.7h292.6a3.7 3.7 0 0 1 3.7 3.7z"/><path d="m91 214.521a6 6 0 0 0 -6 6v6.106a6 6 0 0 0 12 0v-6.106a6 6 0 0 0 -6-6z"/><path d="m91 239.058a6 6 0 0 0 -6 6v64.021a6 6 0 0 0 12 0v-64.021a6 6 0 0 0 -6-6z"/><path d="m340.519 372.438a29.421 29.421 0 0 0 -29.212 29.438 18.093 18.093 0 0 1 -17.895 18.124h-23.026c35.066-19 58.994-55.928 58.994-98.446 0-61.348-49.806-111.352-111.026-111.352s-111.025 49.863-111.025 111.211 49.806 111.423 111.025 111.423c5.041 0 10-.836 14.864-.836h60.194a30.116 30.116 0 0 0 29.9-30.135 17.338 17.338 0 0 1 17.212-17.357 6.035 6.035 0 0 0 0-12.07zm-122.165 48.187c-54.6 0-99.025-44.527-99.025-99.259s44.423-99.258 99.025-99.258 99.026 44.527 99.026 99.258-44.423 99.259-99.026 99.259z"/><path d="m218.354 301.068a20.113 20.113 0 0 0 -14.334 5.95 20.345 20.345 0 0 0 0 28.7 20.242 20.242 0 0 0 28.669 0 20.345 20.345 0 0 0 0-28.7 20.114 20.114 0 0 0 -14.335-5.95zm5.841 26.171a8.243 8.243 0 0 1 -11.681 0 8.327 8.327 0 0 1 0-11.745 8.243 8.243 0 0 1 11.681 0 8.327 8.327 0 0 1 .005 11.745z"/><path d="m218.449 363.252a18.948 18.948 0 0 0 -13.5 5.6 19.162 19.162 0 0 0 0 27.022 19.065 19.065 0 0 0 27 0 19.155 19.155 0 0 0 0-27.021 18.94 18.94 0 0 0 -13.5-5.601zm5 24.149a7.066 7.066 0 0 1 -10.01 0 7.141 7.141 0 0 1 0-10.07 7.065 7.065 0 0 1 10.011 0 7.138 7.138 0 0 1 .003 10.069z"/><path d="m292.725 307.949a19.065 19.065 0 0 0 -27 0 19.161 19.161 0 0 0 0 27.022 19.064 19.064 0 0 0 27 0 19.163 19.163 0 0 0 0-27.022zm-8.5 18.546a7.064 7.064 0 0 1 -10.01 0 7.14 7.14 0 0 1 0-10.07 7.064 7.064 0 0 1 10.01 0 7.14 7.14 0 0 1 .004 10.075z"/><path d="m218.26 279.481a18.952 18.952 0 0 0 13.5-5.6 19.163 19.163 0 0 0 0-27.022 19.064 19.064 0 0 0 -27 0 19.156 19.156 0 0 0 0 27.022 18.94 18.94 0 0 0 13.5 5.6zm-5-24.149a7.065 7.065 0 0 1 10.011 0 7.142 7.142 0 0 1 0 10.07 7.065 7.065 0 0 1 -10.011 0 7.138 7.138 0 0 1 -.004-10.07z"/><path d="m157.484 302.159a18.947 18.947 0 0 0 -13.5 5.6 19.161 19.161 0 0 0 0 27.021 19.063 19.063 0 0 0 27 0 19.156 19.156 0 0 0 0-27.022 18.944 18.944 0 0 0 -13.5-5.599zm5.006 24.149a7.065 7.065 0 0 1 -10.011 0 7.142 7.142 0 0 1 0-10.07 7.065 7.065 0 0 1 10.011 0 7.138 7.138 0 0 1 0 10.07z"/><path d="m218.354 282.842a38.165 38.165 0 0 0 -27.194 11.289 38.623 38.623 0 0 0 0 54.472 38.4 38.4 0 0 0 54.389 0 38.622 38.622 0 0 0 0-54.471 38.166 38.166 0 0 0 -27.195-11.29zm18.7 57.284a26.4 26.4 0 0 1 -37.4 0 26.6 26.6 0 0 1 0-37.52 26.4 26.4 0 0 1 37.4 0 26.6 26.6 0 0 1 .001 37.52z"/><path d="m218.354 225.222c-52.9 0-95.944 43.13-95.944 96.144s43.04 96.144 95.944 96.144 95.946-43.13 95.946-96.144-43.041-96.144-95.946-96.144zm0 180.288a84.144 84.144 0 1 1 83.946-84.144 84.139 84.139 0 0 1 -83.946 84.144z"/></g></svg>