<svg id="Layer_1" height="512" viewBox="0 0 512 512" width="512" xmlns="http://www.w3.org/2000/svg" data-name="Layer 1"><path d="m488.62 140.86v214.3a3.824 3.824 0 0 1 -3.83 3.83h-24.89a3.83 3.83 0 0 1 -3.83-3.83v-214.3a3.839 3.839 0 0 1 3.83-3.84h24.89a3.832 3.832 0 0 1 3.83 3.84z" fill="#c9a786"/><path d="m397 201.79v92.43l59 60.94v-214.3z" fill="#f1c889"/><path d="m371.29 210.47h25.62v74.07h-25.62z" fill="#c9a786"/><path d="m352.13 147h-264.04a19.3 19.3 0 0 0 -19.09 19.39v151.41a19.325 19.325 0 0 0 19.305 19.2h263.825c10.58 0 18.87-8.83 18.87-19.41v-150.97c0-10.58-8.29-19.62-18.87-19.62z" fill="#f1c889"/><path d="m282.45 17a64.6 64.6 0 1 1 -64.53 64.6 64.563 64.563 0 0 1 64.53-64.6z" fill="#b4d8e3"/><path d="m254.26 404.54 69.59 69.67-20.77 20.79-69.51-69.58v-20.88z" fill="#ccd3df"/><path d="m204 337h30v158h-30z" fill="#b0b5ca"/><path d="m152.35 17a64.6 64.6 0 1 1 -64.53 64.6 64.563 64.563 0 0 1 64.53-64.6z" fill="#b4d8e3"/><path d="m204.2 404.54v20.88l-69.51 69.58-20.77-20.79 69.59-69.67z" fill="#ccd3df"/><path d="m68.75 175h-22.75v65h22.75.25v-65z" fill="#616184"/><path d="m23.38 187.08h22.85v40.82h-22.85z" fill="#6c63b5"/><path d="m282.45 59.46a22.135 22.135 0 1 1 -22.11 22.14 22.124 22.124 0 0 1 22.11-22.14z" fill="#7790c0"/><path d="m152.35 59.46a22.135 22.135 0 1 1 -22.11 22.14 22.124 22.124 0 0 1 22.11-22.14z" fill="#7790c0"/><path d="m312.66 247.73v.02a24.591 24.591 0 0 1 -24.59 24.59h-20.59v-49.2h20.59a24.591 24.591 0 0 1 24.59 24.59z" fill="#689b2d"/><path d="m283.67 169.81a15.135 15.135 0 1 1 -15.12 15.13 15.123 15.123 0 0 1 15.12-15.13z" fill="#e75163"/><path d="m220.84 223.14h46.64v49.2h-46.64z" fill="#81c83d"/><path d="m174.2 223.14h46.64v49.2h-46.64z" fill="#9be147"/><path d="m174.2 223.14v49.2h-22.05a24.591 24.591 0 0 1 -24.59-24.59v-.02a24.591 24.591 0 0 1 24.59-24.59z" fill="#d8ff33"/><path d="m164 377h109v28h-109z" fill="#6d7486"/><path d="m99 317.8v-151.41a19.3 19.3 0 0 1 19.09-19.39h-30a19.3 19.3 0 0 0 -19.09 19.39v151.41a19.325 19.325 0 0 0 19.305 19.2h30a19.325 19.325 0 0 1 -19.305-19.2z" fill="#d6ae78"/><path d="m152.35 146.19a64.586 64.586 0 0 0 15-1.773 64.606 64.606 0 0 1 0-125.644 64.585 64.585 0 1 0 -15 127.417z" fill="#9fc5ce"/><g fill="#284268"><path d="m283.672 206.077a21.135 21.135 0 1 0 -21.117-21.135 21.151 21.151 0 0 0 21.117 21.135zm0-30.269a9.135 9.135 0 1 1 -9.117 9.134 9.137 9.137 0 0 1 9.117-9.134z"/><path d="m288.069 217h-135.916a30.5 30.5 0 1 0 0 61h135.916a30.5 30.5 0 1 0 0-61zm-120.069 49h-15.847a18.5 18.5 0 1 1 0-37h15.847zm47 0h-35v-37h35zm46 0h-34v-37h34zm27.069 0h-15.069v-37h15.069a18.5 18.5 0 1 1 0 37z"/><path d="m180.459 81.6a28.11 28.11 0 1 0 -28.109 28.133 28.153 28.153 0 0 0 28.109-28.133zm-44.22 0a16.11 16.11 0 1 1 16.111 16.129 16.141 16.141 0 0 1 -16.111-16.129z"/><path d="m282.449 109.729a28.134 28.134 0 1 0 -28.11-28.129 28.153 28.153 0 0 0 28.11 28.129zm0-44.267a16.134 16.134 0 1 1 -16.11 16.138 16.141 16.141 0 0 1 16.11-16.138z"/><path d="m97.2 170h-6.2a6 6 0 0 0 0 12h6.2a6 6 0 1 0 0-12z"/><path d="m222.457 176a6 6 0 0 0 -6-6h-100.527a6 6 0 0 0 0 12h100.527a6 6 0 0 0 6-6z"/><path d="m484.794 131h-24.894a9.856 9.856 0 0 0 -9.4 6.967l-57.85 59.641a5.977 5.977 0 0 0 -1.65 4.186v2.206h-14v-37.61c0-13.871-10.993-25.39-24.865-25.39h-32.016c19.727-12 32.857-34.454 32.857-59.521a70.506 70.506 0 0 0 -135.576-27.179 70.516 70.516 0 0 0 -135.577 27.172c0 25.067 13.131 47.528 32.857 59.528h-26.592a25.327 25.327 0 0 0 -25.088 25.39v2.61h-16.772c-3.314 0-6.228 2.281-6.228 5.594v6.406h-16.623a6.4 6.4 0 0 0 -6.377 6.076v40.824a6.418 6.418 0 0 0 6.377 6.1h16.623v6.383c0 3.317 2.914 5.617 6.228 5.617h16.772v71.59a25.344 25.344 0 0 0 25.088 25.41h109.912v28h-33.639c-3.313 0-6.361 2.233-6.361 5.546v28a6.722 6.722 0 0 0 6.361 6.454h4.673l-59.359 59.2a5.863 5.863 0 0 0 0 8.366l20.769 20.734a5.973 5.973 0 0 0 4.245 1.731 5.788 5.788 0 0 0 4.147-1.774l59.164-59.342v55.085a6.171 6.171 0 0 0 6.2 6h29.373c3.314 0 6.431-2.687 6.431-6v-55.085l59.045 59.325a5.754 5.754 0 0 0 4.138 1.76 5.876 5.876 0 0 0 4.191-1.76l20.744-20.792a5.728 5.728 0 0 0 -.014-8.252l-59.377-59.196h4.669c3.314 0 5.6-3.142 5.6-6.456v-28a5.294 5.294 0 0 0 -5.6-5.544h-33.4v-28h112.135c13.872 0 24.865-11.539 24.865-25.41v-26.59h14v3.224a5.962 5.962 0 0 0 1.65 4.179l57.877 59.639a9.822 9.822 0 0 0 9.373 6.958h24.891c5.42 0 10.206-4.417 10.206-9.84v-214.3a10.192 10.192 0 0 0 -10.203-9.86zm-444.794 91h-11v-29h11zm23 12h-11v-53h11zm219.449-211a58.6 58.6 0 1 1 -58.526 58.6 58.628 58.628 0 0 1 58.526-58.6zm-37.669 118h-54.761c12.125-7 21.76-18.987 27.38-32.373 5.621 13.386 15.256 25.373 27.381 32.373zm-150.957-59.4a58.527 58.527 0 1 1 58.527 58.6 58.628 58.628 0 0 1 -58.527-58.6zm104.177 341.336-63.409 63.574-12.239-12.074 63.648-63.436h12zm30 66.064h-18v-78h18zm87.473-14.564-12.182 12.074-63.291-63.574v-11.936h11.77zm-48.473-91.436v16h-97v-16zm-57-12v-28h18v28zm155-53.157a13.158 13.158 0 0 1 -13.157 13.157h-263.686a13.158 13.158 0 0 1 -13.157-13.157v-151.686a13.158 13.158 0 0 1 13.157-13.157h263.686a13.158 13.158 0 0 1 13.157 13.157zm26-38.843h-14v-63h14zm59 61.367-47-48.577v-87.562l47-48.577zm33 12.633h-21v-210h21z"/></g></svg>