<svg id="Layer_1" height="512" viewBox="0 0 512 512" width="512" xmlns="http://www.w3.org/2000/svg" data-name="Layer 1"><path d="m326.86 476.75a12.229 12.229 0 0 1 -4.79 16.7 12.375 12.375 0 0 1 -16.78-4.76l-72.88-130.44v122.92a12.325 12.325 0 0 1 -12.34 12.28 12.315 12.315 0 0 1 -12.34-12.28v-122.92l-72.88 130.44a12.323 12.323 0 0 1 -21.56-11.94l94.44-169.02v-50.47h24.68v50.47z" fill="#b0b5ca"/><path d="m378 87h28v146h-28z" fill="#92c4a7"/><path d="m378.06 98.64v123.06l-52.68-32.74v-57.59z" fill="#76b08d"/><path d="m147 227h144v30h-144z" fill="#b54e64"/><path d="m112.865 100.41.135.02v103.85a22.724 22.724 0 0 0 22.44 22.72h167.47c12.39 0 22.09-10.39 22.09-22.72v-105.15z" fill="#dd5e6a"/><path d="m195.21 145.88v33.49h-14.58a16.745 16.745 0 1 1 0-33.49z" fill="#76b08d"/><path d="m195.21 145.88h72.9v33.49h-72.9z" fill="#92c4a7"/><path d="m223.18 93.73a55.574 55.574 0 0 1 -3.96-20.69 56.306 56.306 0 0 1 112.61 0 55.592 55.592 0 0 1 -6.45 26.07 56.433 56.433 0 0 1 -102.2-5.38z" fill="#da9b80"/><path d="m214.55 93.73a56.43 56.43 0 0 1 -101.49 6.67 55.536 55.536 0 0 1 -7.16-27.36 56.306 56.306 0 0 1 112.61 0 55.574 55.574 0 0 1 -3.96 20.69z" fill="#da9b80"/><ellipse cx="304.175" cy="73.42" fill="#eab595" rx="11.645" ry="11.386"/><ellipse cx="275.255" cy="45.165" fill="#eab595" rx="11.646" ry="11.377"/><ellipse cx="246.475" cy="73.285" fill="#eab595" rx="11.643" ry="11.38"/><path d="m283.63 93.5a11.189 11.189 0 0 1 0 16.09 11.828 11.828 0 0 1 -16.47 0 11.189 11.189 0 0 1 0-16.09 11.847 11.847 0 0 1 16.47 0z" fill="#eab595"/><path d="m143 204.28v-103.85l-.135-.02h-30l.135.02v103.85a22.724 22.724 0 0 0 22.44 22.72h30a22.724 22.724 0 0 1 -22.44-22.72z" fill="#c45565"/><path d="m147 227h30v30h-30z" fill="#9b455b"/><path d="m177.217 127.078a56.359 56.359 0 0 1 -34.157-26.678 55.536 55.536 0 0 1 -7.16-27.36 56.1 56.1 0 0 1 41.31-54.014 56.338 56.338 0 0 0 -71.31 54.014 55.536 55.536 0 0 0 7.16 27.36 56.544 56.544 0 0 0 64.157 26.678z" fill="#c18570"/><ellipse cx="133.155" cy="73.285" fill="#eab595" rx="11.646" ry="11.377"/><ellipse cx="190.865" cy="73.42" fill="#eab595" rx="11.648" ry="11.383"/><ellipse cx="161.945" cy="45.165" fill="#eab595" rx="11.646" ry="11.377"/><path d="m153.84 93.5a11.189 11.189 0 0 0 0 16.09 11.828 11.828 0 0 0 16.47 0 11.189 11.189 0 0 0 0-16.09 11.847 11.847 0 0 0 -16.47 0z" fill="#eab595"/><g fill="#284268"><path d="m275.258 62.521a17.732 17.732 0 0 0 12.428-5.021 17.2 17.2 0 0 0 0-24.676 17.89 17.89 0 0 0 -24.857 0 17.2 17.2 0 0 0 0 24.676 17.736 17.736 0 0 0 12.429 5.021zm-4.042-21.114a5.816 5.816 0 0 1 8.084 0 5.2 5.2 0 0 1 0 7.51 5.819 5.819 0 0 1 -8.084 0 5.2 5.2 0 0 1 0-7.51z"/><path d="m262.964 89.208a17.194 17.194 0 0 0 0 24.675 17.89 17.89 0 0 0 24.857 0 17.194 17.194 0 0 0 0-24.675 17.888 17.888 0 0 0 -24.857 0zm16.471 16.092a5.818 5.818 0 0 1 -8.084 0 5.194 5.194 0 0 1 0-7.509 5.816 5.816 0 0 1 8.084 0 5.2 5.2 0 0 1 0 7.509z"/><path d="m291.75 61.082a17.194 17.194 0 0 0 0 24.675 17.89 17.89 0 0 0 24.857 0 17.194 17.194 0 0 0 0-24.675 17.89 17.89 0 0 0 -24.857 0zm18.075 12.337a5.222 5.222 0 0 1 -1.6 3.755 5.818 5.818 0 0 1 -8.084 0 5.194 5.194 0 0 1 0-7.509 5.816 5.816 0 0 1 8.084 0 5.221 5.221 0 0 1 1.6 3.754z"/><path d="m264.118 73.288a17.127 17.127 0 0 0 -5.218-12.338 17.888 17.888 0 0 0 -24.857 0 17.194 17.194 0 0 0 0 24.675 17.89 17.89 0 0 0 24.857 0 17.124 17.124 0 0 0 5.218-12.337zm-13.6 3.754a5.82 5.82 0 0 1 -8.085 0 5.2 5.2 0 0 1 0-7.509 5.818 5.818 0 0 1 8.085 0 5.2 5.2 0 0 1 0 7.509z"/><path d="m161.943 62.521a17.732 17.732 0 0 0 12.428-5.021 17.2 17.2 0 0 0 0-24.676 17.889 17.889 0 0 0 -24.857 0 17.2 17.2 0 0 0 0 24.676 17.736 17.736 0 0 0 12.429 5.021zm-4.043-21.114a5.818 5.818 0 0 1 8.085 0 5.2 5.2 0 0 1 0 7.51 5.821 5.821 0 0 1 -8.085 0 5.2 5.2 0 0 1 0-7.51z"/><path d="m149.649 89.208a17.194 17.194 0 0 0 0 24.675 17.89 17.89 0 0 0 24.857 0 17.194 17.194 0 0 0 0-24.675 17.89 17.89 0 0 0 -24.857 0zm16.471 16.092a5.819 5.819 0 0 1 -8.085 0 5.2 5.2 0 0 1 0-7.509 5.818 5.818 0 0 1 8.085 0 5.2 5.2 0 0 1 0 7.509z"/><path d="m173.217 73.419a17.127 17.127 0 0 0 5.218 12.338 17.89 17.89 0 0 0 24.857 0 17.194 17.194 0 0 0 0-24.675 17.89 17.89 0 0 0 -24.857 0 17.126 17.126 0 0 0 -5.218 12.337zm13.6-3.754a5.816 5.816 0 0 1 8.084 0 5.2 5.2 0 0 1 0 7.509 5.818 5.818 0 0 1 -8.084 0 5.194 5.194 0 0 1 0-7.509z"/><path d="m145.584 85.625a17.193 17.193 0 0 0 0-24.675 17.888 17.888 0 0 0 -24.857 0 17.194 17.194 0 0 0 0 24.675 17.889 17.889 0 0 0 24.856 0zm-18.074-12.337a5.222 5.222 0 0 1 1.6-3.755 5.816 5.816 0 0 1 8.084 0 5.194 5.194 0 0 1 0 7.509 5.818 5.818 0 0 1 -8.084 0 5.223 5.223 0 0 1 -1.6-3.754z"/><path d="m268.107 140h-87.475a22.5 22.5 0 1 0 0 45h87.475a5.608 5.608 0 0 0 5.893-5.635v-33.488a5.805 5.805 0 0 0 -5.893-5.877zm-79.107 33h-8.368a10.5 10.5 0 1 1 0-21h8.368zm73 0h-61v-21h61z"/><path d="m151.433 195h-5.805a6 6 0 0 0 0 12h5.805a6 6 0 0 0 0-12z"/><path d="m235.026 195h-66.075a6 6 0 0 0 0 12h66.075a6 6 0 0 0 0-12z"/><path d="m406.1 81h-28.042c-3.314 0-6.058 3.117-6.058 6.431v7.869l-41 25.279v-20.079c5-8.282 6.64-17.6 6.64-27.452a62.247 62.247 0 0 0 -118.82-25.767 62.316 62.316 0 0 0 -118.932 25.762c0 10.357 2.112 20.128 7.112 28.723v102.512c0 15.622 12.763 28.722 28.44 28.722h5.56v24.257a5.857 5.857 0 0 0 6.082 5.743h54.918v43.163l-93.818 167.661a18.218 18.218 0 0 0 15.869 27.169 18.565 18.565 0 0 0 16.177-9.379l61.772-110.326v99.883a18 18 0 1 0 36 0v-99.884l61.852 110.327a18.512 18.512 0 0 0 25.023 7.085 18.214 18.214 0 0 0 7.015-24.875l-93.89-167.661v-43.163h53.308a5.529 5.529 0 0 0 5.692-5.743v-24.257h5.95c15.676 0 28.05-13.1 28.05-28.722v-4.522l41 25.279v7.872a6.129 6.129 0 0 0 6.058 6.093h28.042a6 6 0 0 0 5.9-6.093v-145.476c0-3.314-2.591-6.431-5.9-6.431zm-294.19-7.957a50.306 50.306 0 1 1 50.305 50.043 50.231 50.231 0 0 1 -50.31-50.043zm209.606 406.634a6.1 6.1 0 0 1 -2.351 8.524 6.369 6.369 0 0 1 -8.634-2.441l-72.886-130.437a6.276 6.276 0 0 0 -6.954-2.88 6.188 6.188 0 0 0 -4.691 5.807v122.921a6.006 6.006 0 1 1 -12 0v-122.921a6.129 6.129 0 0 0 -11.437-2.927l-72.919 130.437a6.389 6.389 0 0 1 -8.65 2.441 6.257 6.257 0 0 1 -3.015-3.775 6.186 6.186 0 0 1 .55-4.749l94.578-169.025a6.144 6.144 0 0 0 .893-2.927v-44.725h12v44.725a6.239 6.239 0 0 0 .966 2.927zm-36.516-228.677h-132v-18h132zm34-46.722c0 9-6.99 16.722-16.05 16.722h-167.51a16.747 16.747 0 0 1 -16.44-16.722v-86.59a62.313 62.313 0 0 0 99.445-17.688h.845a61.977 61.977 0 0 0 99.71 17.084zm-43.475-81.192a50.044 50.044 0 1 1 50.305-50.043 50.231 50.231 0 0 1 -50.305 50.043zm96.475 87.82-41-25.278v-50.918l41-25.279zm28 16.094h-16v-134h16z"/></g></svg>