<svg id="Layer_1" height="512" viewBox="0 0 512 512" width="512" xmlns="http://www.w3.org/2000/svg" data-name="Layer 1"><path d="m483.26 79h-347.06a11.154 11.154 0 0 0 -11.2 11.51v178.49h370v-178.49a11.607 11.607 0 0 0 -11.74-11.51z" fill="#49bdff"/><path d="m309.77 109.17a64.575 64.575 0 1 1 -64.67 64.58 64.629 64.629 0 0 1 64.67-64.58z" fill="#4faa85"/><path d="m335.51 173.75-38.54 25.57v-51.14z" fill="#d8ff33"/><path d="m125.75 269h-.75v24.74a10.951 10.951 0 0 0 11.2 11.26h347.06c6.43 0 11.74-4.83 11.74-11.26v-24.74z" fill="#c79a83"/><path d="m420.98 249.73a19.415 19.415 0 1 1 -19.43 19.41 19.42 19.42 0 0 1 19.43-19.41z" fill="#4faa85"/><path d="m130.52 331h-100.09a13.188 13.188 0 0 0 -13.43 13.14v86.97a63.5 63.5 0 0 0 127 0v-86.97a13.231 13.231 0 0 0 -13.48-13.14z" fill="#b0b5ca"/><path d="m143.96 344.14v72.05l-8.2-9.76a66.023 66.023 0 0 1 -15.5-42.5v-33.21h10.26a13.433 13.433 0 0 1 13.44 13.42z" fill="#797e89"/><path d="m40.98 331.05v32.88a66.023 66.023 0 0 1 -15.5 42.5l-8.2 9.76h-.28v-72.05a13.424 13.424 0 0 1 13.43-13.42h10.55z" fill="#797e89"/><path d="m72.2 352.56h16.55v25.89h-16.55z" fill="#797e89"/><path d="m155 269v-178.49a11.154 11.154 0 0 1 11.2-11.51h-30a11.154 11.154 0 0 0 -11.2 11.51v178.49z" fill="#3fafe0"/><path d="m155 293.74v-24.74h-30v24.74a10.951 10.951 0 0 0 11.2 11.26h30a10.951 10.951 0 0 1 -11.2-11.26z" fill="#a57c6a"/><path d="m275.1 173.75a64.6 64.6 0 0 1 49.67-62.815 64.575 64.575 0 1 0 0 125.62 64.6 64.6 0 0 1 -49.67-62.805z" fill="#479674"/><g fill="#284268"><path d="m146 106.687a6 6 0 0 0 -6 6v4.357a6 6 0 0 0 12 0v-4.357a6 6 0 0 0 -6-6z"/><path d="m146 131.962a6 6 0 0 0 -6 6v69.621a6 6 0 0 0 12 0v-69.621a6 6 0 0 0 -6-6z"/><path d="m309.774 103.171a70.574 70.574 0 1 0 70.676 70.574 70.705 70.705 0 0 0 -70.676-70.574zm0 129.148a58.574 58.574 0 1 1 58.676-58.574 58.691 58.691 0 0 1 -58.676 58.574z"/><path d="m338.832 168.745-38.546-25.57a5.978 5.978 0 0 0 -9.286 5v51.14a5.98 5.98 0 0 0 9.29 5l38.543-25.57a6 6 0 0 0 0-10zm-35.832 19.39v-28.78l21.692 14.39z"/><path d="m72 385h17a6 6 0 0 0 6-6v-26a6 6 0 0 0 -6-6h-17a6 6 0 0 0 -6 6v26a6 6 0 0 0 6 6zm6-26h5v13h-5z"/><path d="m483.257 73h-301.257v-7.616a54 54 0 0 0 -108 0v259.616h-43.568a19.214 19.214 0 0 0 -19.432 19.143v86.967a69.5 69.5 0 0 0 139 0v-86.967a19.252 19.252 0 0 0 -19.476-19.143h-44.524v-259.616a42 42 0 0 1 84 0v7.616h-33.8a17.172 17.172 0 0 0 -17.2 17.511v203.225a16.963 16.963 0 0 0 17.2 17.264h347.057a17.422 17.422 0 0 0 17.743-17.264v-203.225a17.629 17.629 0 0 0 -17.743-17.511zm-460.257 271.143a7.2 7.2 0 0 1 7.432-7.143h4.568v26.934a60.141 60.141 0 0 1 -12 35.96zm103-7.143h4.524a7.241 7.241 0 0 1 7.476 7.143v55.366a57.575 57.575 0 0 1 -12-35.575zm-12 0v26.934a72.29 72.29 0 0 0 17.056 46.366l6.944 8.073v12.737a57.5 57.5 0 0 1 -115 0v-12.4l7.085-8.415a72.147 72.147 0 0 0 16.915-46.361v-26.934zm375-43.264c0 3.117-2.626 5.264-5.743 5.264h-347.057a4.968 4.968 0 0 1 -5.2-5.264v-18.736h265.272a25.43 25.43 0 0 0 49.418 0h43.31zm-81.45-24.593a13.431 13.431 0 1 1 13.431 13.417 13.439 13.439 0 0 1 -13.431-13.417zm81.45-6.143h-43.31a25.43 25.43 0 0 0 -49.418 0h-265.272v-172.489a5.17 5.17 0 0 1 5.2-5.511h347.057a5.618 5.618 0 0 1 5.743 5.511z"/></g></svg>