<svg id="Layer_1" height="512" viewBox="0 0 512 512" width="512" xmlns="http://www.w3.org/2000/svg" data-name="Layer 1"><path d="m494 89h-477v296.42a39.614 39.614 0 0 0 39.83 39.58h398.34a39.614 39.614 0 0 0 39.83-39.58v-296.42z" fill="#80aaff"/><path d="m495 63.17v25.85h-347.64a27.16 27.16 0 0 0 27.16-27.16v-38.52h280.65a39.827 39.827 0 0 1 39.83 39.83z" fill="#d4e1f4"/><path d="m56.83 23c-22 0-39.83 18.17-39.83 40.17v25.83h130.36c15 0 27.64-12.14 27.64-27.14v-38.86z" fill="#b0b5ca"/><path d="m387.2 425.25a152.482 152.482 0 0 1 -276.2-89.26c0-84.32 68.26-152.68 152.48-152.68s152.48 68.36 152.48 152.68a152.143 152.143 0 0 1 -28.76 89.26z" fill="#758ebd"/><path d="m263.48 205.24a130.75 130.75 0 1 1 -130.59 130.75 130.664 130.664 0 0 1 130.59-130.75z" fill="#cd6870"/><path d="m296.79 302.63a47.143 47.143 0 1 1 -66.63 0 47.21 47.21 0 0 1 66.63 0z" fill="#758ebd"/><path d="m365.28 322.67a19.007 19.007 0 1 1 -26.86 0 19.036 19.036 0 0 1 26.86 0z" fill="#e9b767"/><ellipse cx="263.475" cy="335.985" fill="#e9b767" rx="20.712" ry="20.739"/><path d="m277.04 411.01a19.007 19.007 0 1 1 -26.86 0 19.036 19.036 0 0 1 26.86 0z" fill="#e9b767"/><ellipse cx="263.34" cy="247.51" fill="#e9b767" rx="18.994" ry="19.021"/><path d="m47 385.42v-296.42h-30v296.42a39.614 39.614 0 0 0 39.83 39.58h30a39.614 39.614 0 0 1 -39.83-39.58z" fill="#739fe5"/><path d="m86.83 23h-30c-22 0-39.83 18.17-39.83 40.17v25.83h30v-25.83c0-22 17.83-40.17 39.83-40.17z" fill="#9fa5b7"/><path d="m162.89 335.99a130.708 130.708 0 0 1 115.59-129.89 130.75 130.75 0 1 0 0 259.772 130.708 130.708 0 0 1 -115.59-129.882z" fill="#b55b66"/><path d="m188.54 322.4a19.011 19.011 0 1 1 -26.87 0 19.054 19.054 0 0 1 26.87 0z" fill="#e9b767"/><g fill="#284268"><path d="m455.167 17h-398.334c-25.272 0-45.833 20.9-45.833 46.168v322.254a45.669 45.669 0 0 0 45.833 45.578h79.718a158.249 158.249 0 0 0 126.925 63.852c6 0 11.915-.852 17.742-.852h91.229a40.905 40.905 0 0 0 40.692-40.9 27.862 27.862 0 0 1 10.9-22.1h31.123a45.669 45.669 0 0 0 45.838-45.578v-322.254c0-25.268-20.561-46.168-45.833-46.168zm-432.167 46.168c0-18.653 15.178-34.168 33.833-34.168h112.167v32.86c0 11.666-9.97 21.14-21.637 21.14h-124.363zm240.476 419.493c-80.77 0-146.481-65.8-146.481-146.674s65.711-146.674 146.481-146.674 146.48 65.8 146.48 146.674-65.711 146.674-146.48 146.674zm137.663-29.561a28.892 28.892 0 0 1 -28.692 28.9h-46.178a162.74 162.74 0 0 0 64.067-51h17.487a39.785 39.785 0 0 0 -6.684 22.1zm87.861-67.678a33.656 33.656 0 0 1 -33.833 33.578h-8.341a6.03 6.03 0 0 0 -5.988-5.817 39.22 39.22 0 0 0 -20.584 5.817h-21.748a157.263 157.263 0 0 0 23.45-82.844c0-87.493-71.094-158.758-158.48-158.758s-158.476 71.138-158.476 158.631a158.058 158.058 0 0 0 23.417 82.971h-71.584a33.656 33.656 0 0 1 -33.833-33.578v-290.422h466zm0-302.422h-316.126c4.773-6 8.126-13.1 8.126-21.14v-32.86h274.167c18.655 0 33.833 15.515 33.833 34.168z"/><path d="m63.171 48.005a8.173 8.173 0 1 0 8.172 8.173 8.182 8.182 0 0 0 -8.172-8.173z"/><path d="m95.762 48.005a8.173 8.173 0 1 0 8.173 8.173 8.182 8.182 0 0 0 -8.173-8.173z"/><path d="m128.353 48.005a8.173 8.173 0 1 0 8.172 8.173 8.182 8.182 0 0 0 -8.172-8.173z"/><path d="m41 129.453a6 6 0 0 0 6-6v-6.2a6 6 0 0 0 -12 0v6.2a6 6 0 0 0 6 6z"/><path d="m41 248.706a6 6 0 0 0 6-6v-100.527a6 6 0 0 0 -12 0v100.527a6 6 0 0 0 6 6z"/><path d="m263.476 309.248a26.739 26.739 0 1 0 18.891 7.834 26.526 26.526 0 0 0 -18.891-7.834zm10.4 37.164a14.7 14.7 0 0 1 -20.8 0 14.774 14.774 0 0 1 0-20.85 14.7 14.7 0 0 1 20.8 0 14.774 14.774 0 0 1 .001 20.85z"/><path d="m263.61 399.443a24.818 24.818 0 0 0 -17.677 7.331 25.068 25.068 0 0 0 0 35.38 24.98 24.98 0 0 0 35.356 0 25.021 25.021 0 0 0 -17.679-42.711zm9.189 34.231a12.981 12.981 0 0 1 -18.376 0 13.053 13.053 0 0 1 0-18.42 12.981 12.981 0 0 1 18.376 0 13.051 13.051 0 0 1 .001 18.42z"/><path d="m369.526 318.433a24.98 24.98 0 0 0 -35.356 0 25.021 25.021 0 0 0 17.679 42.711 25.021 25.021 0 0 0 17.677-42.711zm-8.49 26.9a12.981 12.981 0 0 1 -18.376 0 13.051 13.051 0 0 1 0-18.42 12.981 12.981 0 0 1 18.376 0 13.051 13.051 0 0 1 0 18.42z"/><path d="m263.339 272.531a25.022 25.022 0 1 0 -17.678-7.332 24.824 24.824 0 0 0 17.679 7.332zm-9.187-34.231a12.98 12.98 0 0 1 18.375 0 13.051 13.051 0 0 1 0 18.421 12.98 12.98 0 0 1 -18.375 0 13.053 13.053 0 0 1 0-18.421z"/><path d="m192.78 318.161a24.816 24.816 0 0 0 -17.68-7.331 25.021 25.021 0 1 0 17.677 7.331zm-8.49 26.9a12.98 12.98 0 0 1 -18.375 0 13.051 13.051 0 0 1 0-18.42 12.98 12.98 0 0 1 18.375 0 13.051 13.051 0 0 1 0 18.42z"/><path d="m263.476 282.812a52.732 52.732 0 0 0 -37.561 15.578 53.278 53.278 0 0 0 0 75.194 53.073 53.073 0 0 0 75.121 0 53.278 53.278 0 0 0 0-75.194 52.732 52.732 0 0 0 -37.56-15.578zm29.07 82.292a41.074 41.074 0 0 1 -58.141 0 41.262 41.262 0 0 1 0-58.235 41.074 41.074 0 0 1 58.141 0 41.262 41.262 0 0 1 0 58.231z"/><path d="m263.476 199.236c-75.314 0-136.585 61.347-136.585 136.751s61.271 136.751 136.585 136.751 136.585-61.346 136.585-136.751-61.272-136.751-136.585-136.751zm0 261.5c-68.7 0-124.585-55.963-124.585-124.751s55.888-124.751 124.585-124.751 124.585 55.966 124.585 124.753-55.889 124.751-124.585 124.751z"/></g></svg>