<svg id="Layer_1" enable-background="new 0 0 512 512" height="512" viewBox="0 0 512 512" width="512" xmlns="http://www.w3.org/2000/svg"><path d="m134 244.4-15.4 7.8-2 1c-3 1.5-6 2.9-9.1 4.2-11.4 4.9-23.2 8.7-35.3 11.5-32.3 7.9-55.2 36.8-55.2 70.1v113h298.3l.2-.1.6-149.7c-10-16.7-26.2-28.7-45.1-33.2-11.8-2.9-23.2-6.9-34.1-12-4.1-1.9-7.9-3.9-11.9-6.1-.4-.2-1-.4-1.4-.7l-14.6-7.9" fill="#c79a83"/><path d="m134 244.4-15.4 7.8-2 1c-3 1.5-6 2.9-9.1 4.2-11.4 4.9-23.2 8.7-35.3 11.5-32.3 7.9-55.2 36.8-55.2 70.1v113h30v-113c0-33.3 22.9-62.3 55.3-70 12.1-2.8 23.9-6.7 35.3-11.5 3.1-1.3 6.1-2.7 9.1-4.2l2-1 15.4-7.8h-30.1z" fill="#ad8674"/><path d="m245.4 86.2c1.4 6.7 1.9 13.6 1.4 20.4l-1.9 26.8c-26.7-2.8-33.6-30.7-33.6-30.7-35.3-2.2-53.9-9.1-65.5-22.7-8.2-9.6-13-22.5-17.8-39.4 0-.1-.1-.2-.2-.3 0 0 40.4-26.1 76-6.8 10.2 5.5 19.7 12.3 26.9 21.4 7.3 9.1 12.3 19.8 14.7 31.3z" fill="#797e89"/><path d="m244.9 166v21.3l1.9 26.9c1.1 14.9-2.4 29.9-9.9 42.8-4.1-1.9-8.2-3.9-12.1-6.1-.4-.2-.8-.4-1.2-.7l-14.4-7.9v-13c19.6-14.3 32.9-38.7 33.7-63.3h1.2z" fill="#58606d"/><path d="m128 40.6c4.8 16.8 9.6 29.8 17.8 39.4-15.2 6-36.9 20.2-47.4 53.5l-1.8-26.8c-1.8-26 10-51.2 31.3-66.3 0 0 .1.1.1.2z" fill="#58606d"/><path d="m100.5 166c.8 24.6 14.1 49.1 33.8 63.3v15.1l-15.6 7.8-2.1 1c-3 1.5-6 2.9-9.1 4.2-8.3-13.5-12.1-29.3-11-45.1l1.8-26.8v-19.5h.9z" fill="#58606d"/><path d="m266.2 329.3-30.1 41.6 19.6 19.3-44.3 62 .4-155.7z" fill="#c2684f"/><path d="m224.5 251.1v4.3c-.1 29.2-23.8 52.9-53 52.8-14 0-27.4-5.6-37.3-15.5-.9-.9-1.8-1.9-2.6-2.8-8.3-9.6-12.9-21.8-12.9-34.5v-3.3l15.6-7.8v21.2c17.5 20.6 48.5 23.1 69.1 5.6 2-1.7 3.9-3.6 5.6-5.6v-23.3l14.4 7.9c.4.2.8.4 1.2.7z" fill="#5fa8ed"/><path d="m211.8 289.9v6.6l-.4 155.7h-79.5l-.3-155.6v-6.6c.8 1 1.7 1.9 2.6 2.8 20.7 20.7 54.2 20.6 74.9-.1.9-.9 1.8-1.8 2.7-2.8z" fill="#9ac5a1"/><path d="m131.6 296.6.3 155.6-44.4-62 20.6-19.3-31.1-40.7z" fill="#c2684f"/><path d="m134 229.3v36.2c17.7 20.7 48.8 23.2 69.5 5.5 2-1.7 3.8-3.5 5.5-5.5v-36.3z" fill="#efc597"/><path d="m376.9 282c56.1 0 101.5 45.6 101.5 101.8s-45.4 101.8-101.5 101.8c-54.2-.1-98.8-42.7-101.4-96.9-.1-1.6-.1-3.3-.1-5-.2-56 45.3-101.6 101.5-101.7-.1 0-.1 0 0 0z" fill="#7790c0"/><path d="m376.9 296.6c48.2-.1 87.3 38.8 87.4 87s-38.8 87.3-87 87.4-87.3-38.8-87.4-87c0-.1 0-.2 0-.2 0-48.1 38.9-87.1 87-87.2z" fill="#a9b9d8"/><path d="m399.1 361.5c12.3 12.3 12.3 32.1.1 44.4-12.3 12.3-32.1 12.3-44.4.1-12.3-12.3-12.3-32.1-.1-44.4 0 0 0 0 .1-.1 12.2-12.1 32-12.1 44.3 0z" fill="#7790c0"/><g fill="#d67f82"><ellipse cx="435.7" cy="383.9" rx="12.6" ry="12.7"/><path d="m386.6 374c5.4 5.4 5.4 14.1 0 19.5s-14.1 5.4-19.5 0-5.4-14.1 0-19.5c5.4-5.3 14.1-5.3 19.5 0z"/><ellipse cx="377" cy="442.8" rx="12.6" ry="12.7"/><path d="m385.7 315.8c5 4.9 5 13 0 17.9-4.9 5-13 5-17.9 0s-5-13 0-17.9c5-4.9 13-4.9 17.9 0z"/></g><path d="m244.9 166c-.3 0-.6 0-.9 0h-1.2c-.8 24.6-14.1 49-33.7 63.3-10.9 7.9-23.7 12.7-37.4 12.7s-26.5-4.8-37.3-12.6c-19.7-14.3-33-38.7-33.8-63.3h-1.3c-.3 0-.6 0-.9 0-9.7-.5-17.3-8.4-17.3-18.1 0-1.5.2-2.9.5-4.3 1.9-7.7 9.4-11.4 16.2-10.1h.6v-.1c10.5-33.3 32.3-47.5 47.5-53.5 11.6 13.6 30.2 20.6 65.5 22.7 0 0 6.9 27.9 33.6 30.7h.5c7.2-1.5 14.4 3 16.2 10.2 2.4 9.7-3.6 19.5-13.3 21.9-1.2.3-2.3.4-3.5.5z" fill="#ffd8b7"/><path d="m309.9 383.8c0-44.2 33-81.5 77-86.6-47.8-5.5-91.1 28.8-96.6 76.6s28.8 91.1 76.6 96.6c6.7.8 13.4.8 20 0-43.9-5.1-77-42.4-77-86.6z" fill="#91a3c1"/><ellipse cx="318" cy="383.7" fill="#d67f82" rx="12.6" ry="12.7"/><g fill="#284268"><path d="m45.3 331.7c-3.3 0-6 2.7-6 6v5.8c0 3.3 2.7 6 6 6s6-2.7 6-6v-5.8c0-3.4-2.7-6-6-6z"/><path d="m45.3 355c-3.3 0-6 2.7-6 6v70.1c0 3.3 2.7 6 6 6s6-2.7 6-6v-70.1c0-3.3-2.7-6-6-6z"/><path d="m495 433.9c-15.7 0-28.4 12.8-28.4 28.5 0 9.5-7.7 17.2-17.1 17.2h-23.3c34.6-17.9 58.3-54.2 58.3-95.8 0-59.5-48.2-107.8-107.5-107.8-21.8 0-42.2 6.6-59.1 17.8-10.9-15.2-27.1-26.3-45.4-30.6-9-2.1-18.1-5.2-27.2-9.1 6-12.5 8.6-26.3 7.6-40.3l-1.8-26.7v-16.1c10-3 17.2-12.2 17.2-23.1 0-1.9-.2-3.9-.7-5.7-1.9-7.7-8.2-13.3-15.7-14.7l1-20.5c.5-7.4 0-14.8-1.5-22-2.5-12.2-8-23.9-15.8-33.8-6.9-8.7-16.3-16.2-28.7-22.9-16-8.7-35.3-10.2-55.9-4.3-13.3 3.8-23.7 9.7-26.5 11.6-23.3 16.4-35.9 43.1-34 71.4l1.4 20.5c-7.7 1.2-14.2 6.8-16.2 14.6-.5 1.9-.7 3.8-.7 5.7 0 10.9 7.3 20.1 17.3 23.1v14.3l-1.8 26.6c-1 14.7 2 29.5 8.5 42.6-8.7 3.4-18 6.3-28.2 8.7-35.2 8.5-59.8 39.7-59.8 75.9v113.2c0 3.3 2.7 6 6 6h282.1c19 20 45.7 32.7 75.2 33.4h75.2c16 0 29.1-13.1 29.1-29.2 0-9.1 7.4-16.5 16.4-16.5 3.3 0 6-2.7 6-6s-2.7-6-6-6zm-340.3-398.6c17.5-4.8 33.1-3.7 46.3 3.5 11 6 19.2 12.4 25 19.8 6.7 8.4 11.3 18.4 13.5 28.8 1.3 6.1 1.7 12.5 1.3 18.8v.1l-1 20c-17.4-5.3-22.4-24.2-22.7-25-.6-2.5-2.8-4.4-5.5-4.5-55-3.4-65.9-17.5-76.7-53.6 4.2-2.2 11.2-5.5 19.8-7.9zm-30 15.3c3.3 10.5 6.9 19.5 11.8 27-11.4 5.8-24 15.4-33.8 31.6l-.2-2.9c-1.5-21.3 6.7-41.6 22.2-55.7zm-37.6 97.3c0-1 .1-1.9.3-2.9 1-3.9 4.4-5.7 7.7-5.7.5 0 1.1.1 1.7.2l1.6.1c1.7 0 3.3-.7 4.4-1.9.7-.8 1.2-1.7 1.5-2.7 8.9-27.7 25.9-41.2 40-47.7 12.1 12 30.6 18.8 62.6 21.2 3.2 8.5 12.6 27 34.7 30.6 1.6.3 3.3.4 4.9.3 3.6-.7 8.1 1.1 9.2 5.7.2.9.3 1.9.3 2.9 0 6.7-5.4 12.1-12.1 12.1h-1.2c-3.2 0-5.9 2.6-6 5.9-.6 17.3-7.9 34.9-20 48.4-12.6 14-28.6 21.7-45.1 21.7s-32.5-7.7-45.1-21.7c-12.2-13.5-19.5-31.1-20.1-48.4-.1-3.2-2.8-5.9-6-5.9h-1.3c-6.6-.1-12-5.5-12-12.2zm41.2 106.2v11.5c0 1.4.5 2.8 1.4 3.9 10.5 12.3 25.8 19.4 41.9 19.4s31.5-7.1 41.9-19.4c.9-1.1 1.4-2.5 1.4-3.9v-13.1l3.5 1.9v1.1c0 25.8-21 46.8-46.9 46.8-25.7 0-46.7-20.8-46.9-46.4zm-18.2-4.4c-5.8-11.3-8.5-24.2-7.6-37l.8-11.8c3.7 7.7 8.5 14.9 14.3 21.3 3.4 3.7 6.9 7.1 10.7 10v8.3zm30.2 13.6v-23.2c9.8 5.1 20.5 7.9 31.3 7.9 10.9 0 21.5-2.7 31.4-7.9v23.2c-8.1 8.6-19.4 13.6-31.4 13.6-11.8 0-23.2-5-31.3-13.6zm74.8-24.5v-6.5c3.7-2.9 7.3-6.2 10.6-9.9 5.7-6.3 10.5-13.5 14.2-21.1l.9 13.4c.8 12-1.4 23.8-6.6 34.5zm-138.7 207.4v-57.3c0-3.3-2.7-6-6-6s-6 2.7-6 6v57.3h-41.4v-107.2c0-30.7 20.8-57.1 50.7-64.2 14.5-3.5 27.4-7.8 39.4-13.2 1.2 11.5 5.7 22 12.6 30.5v1.2l-51.7 31.8c-1.4.9-2.4 2.3-2.8 4-.3 1.7.1 3.4 1.1 4.7l27.8 36.4-16.6 15.6c-2.2 2.1-2.5 5.4-.8 7.9l37.6 52.5zm19.1-55.2 16.8-15.7c2.2-2.1 2.5-5.6.7-8l-27.1-35.4 39.8-24.5.2 126.1zm109.9 55.2h-67.5l-.3-142.7c9.6 6.8 21.3 10.8 34 10.8s24.5-4 34.1-10.9zm12.3-139.1 39.8 23.9-26.4 36.3c-1.7 2.4-1.5 5.7.7 7.8l16 15.7-30.5 42.5zm49.1 81.8v57.3h-43.8l37.6-52.5c1.7-2.4 1.4-5.7-.7-7.8l-16-15.7 27.2-37.4c1-1.4 1.4-3.1 1-4.7-.3-1.6-1.3-3.1-2.8-3.9l-51.6-31v-1.1c7-8.8 11.5-19.6 12.5-31.5 13.2 6.4 26.3 11.2 39.3 14.3 15.5 3.7 29.3 13.1 38.5 26.1-23.7 19.8-38.8 49.6-38.8 82.8v.2c-1.4 1.1-2.4 2.8-2.4 4.9zm12 57.3v-18.2c2.9 6.4 6.4 12.5 10.4 18.2zm2.5-62.4c0-52.8 42.9-95.8 95.5-95.8 52.7 0 95.5 43 95.5 95.8s-42.9 95.8-95.5 95.8-95.5-43-95.5-95.8z"/><path d="m376.9 364c-5.3 0-10.3 2.1-14 5.8-7.7 7.7-7.7 20.3 0 28 3.7 3.7 8.7 5.8 14 5.8s10.3-2.1 14-5.8c7.7-7.7 7.7-20.3 0-28-3.8-3.8-8.7-5.8-14-5.8zm5.5 25.3c-1.5 1.5-3.4 2.3-5.5 2.3s-4-.8-5.5-2.3c-3-3.1-3-8 0-11.1 1.5-1.5 3.4-2.3 5.5-2.3s4 .8 5.5 2.3c3 3.1 3 8.1 0 11.1z"/><path d="m390.2 429.6c-3.5-3.5-8.2-5.5-13.2-5.5s-9.7 1.9-13.2 5.5c-7.3 7.3-7.3 19.1 0 26.4 3.5 3.5 8.2 5.5 13.2 5.5s9.7-1.9 13.2-5.5c7.2-7.3 7.2-19.1 0-26.4zm-8.5 17.9c-1.3 1.3-2.9 2-4.7 2s-3.4-.7-4.7-2c-2.6-2.6-2.6-6.9 0-9.5 1.3-1.3 2.9-2 4.7-2s3.4.7 4.7 2c2.6 2.7 2.6 6.9 0 9.5z"/><path d="m448.9 370.7c-3.5-3.5-8.2-5.5-13.2-5.5s-9.7 1.9-13.2 5.5c-7.3 7.3-7.3 19.1 0 26.4 3.5 3.5 8.2 5.5 13.2 5.5s9.7-1.9 13.2-5.5c7.3-7.3 7.3-19.1 0-26.4zm-8.5 17.9c-1.3 1.3-2.9 2-4.7 2s-3.4-.7-4.7-2c-2.6-2.6-2.6-6.9 0-9.5 1.3-1.3 2.9-2 4.7-2s3.4.7 4.7 2c2.6 2.7 2.6 6.9 0 9.5z"/><path d="m376.8 343.5c5 0 9.7-1.9 13.2-5.5 7.3-7.3 7.3-19.1 0-26.4-3.5-3.5-8.2-5.5-13.2-5.5s-9.7 1.9-13.2 5.5c-7.3 7.3-7.3 19.1 0 26.4 3.5 3.5 8.2 5.5 13.2 5.5zm-4.7-23.5c1.3-1.3 2.9-2 4.7-2s3.4.7 4.7 2c2.6 2.6 2.6 6.9 0 9.5-1.3 1.3-2.9 2-4.7 2s-3.4-.7-4.7-2c-2.6-2.6-2.6-6.8 0-9.5z"/><path d="m331.2 370.5c-3.5-3.5-8.2-5.5-13.2-5.5s-9.7 1.9-13.2 5.5c-7.3 7.3-7.3 19.1 0 26.4 3.5 3.5 8.2 5.5 13.2 5.5s9.7-1.9 13.2-5.5c7.3-7.3 7.3-19.1 0-26.4zm-8.5 17.9c-1.3 1.3-2.9 2-4.7 2s-3.4-.7-4.7-2c-2.6-2.6-2.6-6.9 0-9.5 1.3-1.3 2.9-2 4.7-2s3.4.7 4.7 2c2.6 2.7 2.6 6.9 0 9.5z"/><path d="m376.9 346.3c-10 0-19.4 3.9-26.4 11-14.6 14.6-14.6 38.4 0 53 7.1 7.1 16.4 11 26.4 11s19.4-3.9 26.4-11c14.6-14.6 14.6-38.4 0-53-7-7.1-16.4-11-26.4-11zm17.9 55.5c-4.8 4.8-11.2 7.5-17.9 7.5-6.8 0-13.1-2.6-17.9-7.5-9.9-9.9-9.9-26.1 0-36 4.8-4.8 11.2-7.5 17.9-7.5 6.8 0 13.1 2.6 17.9 7.5 9.9 9.9 9.9 26.1 0 36z"/><path d="m376.9 290.6c-51.3 0-93 41.8-93 93.2s41.7 93.2 93 93.2 93-41.8 93-93.2-41.8-93.2-93-93.2zm0 174.4c-44.6 0-81-36.4-81-81.2s36.3-81.2 81-81.2c44.6 0 81 36.4 81 81.2s-36.4 81.2-81 81.2z"/></g></svg>